<svg xmlns:dc="http://purl.org/dc/elements/1.1/" xmlns:cc="http://creativecommons.org/ns#" xmlns:rdf="http://www.w3.org/1999/02/22-rdf-syntax-ns#" xmlns:svg="http://www.w3.org/2000/svg" xmlns="http://www.w3.org/2000/svg" xmlns:sodipodi="http://sodipodi.sourceforge.net/DTD/sodipodi-0.dtd" xmlns:inkscape="http://www.inkscape.org/namespaces/inkscape" version="1.1" x="0px" y="0px" viewBox="0 0 100 100"><g transform="translate(0,-952.36218)"><path style="opacity:1;color:#000000;fill:#000000;fill-opacity:1;stroke:none;stroke-width:4;marker:none;visibility:visible;display:inline;overflow:visible;enable-background:accumulate" d="M 50 11 C 47.063902 11 44.599476 12.64622 43.1875 15.03125 L 8.28125 73.96875 A 2.0002 2.0002 0 0 0 8.28125 74 C 7.1600766 75.9372 6 78.2541 6 81 C 6 85.3946 9.6054082 89 14 89 L 86 89 C 90.394592 89 94 85.3946 94 81 C 94 78.2541 92.839923 75.9372 91.71875 74 A 2.0002 2.0002 0 0 0 91.71875 73.96875 L 56.8125 15.03125 C 55.400524 12.64622 52.936098 11 50 11 z M 50 15 C 51.648444 15 52.47145 15.53627 53.375 17.0625 L 88.28125 76 C 89.284061 77.7326 90 79.4071 90 81 C 90 83.2328 88.232824 85 86 85 L 14 85 C 11.767176 85 10 83.2328 10 81 C 10 79.4071 10.715939 77.7326 11.71875 76 L 46.625 17.0625 C 47.52855 15.53627 48.351556 15 50 15 z M 49.78125 34.96875 A 2.0001999 2.0001999 0 0 0 48 37 L 48 63 A 2.0001999 2.0001999 0 1 0 52 63 L 52 37 A 2.0001999 2.0001999 0 0 0 49.78125 34.96875 z M 50 69 C 48.343145 69 47 70.3431 47 72 C 47 73.6568 48.343145 75 50 75 C 51.656855 75 53 73.6568 53 72 C 53 70.3431 51.656855 69 50 69 z " transform="translate(0,952.36218)"></path></g></svg>