<svg xmlns="http://www.w3.org/2000/svg" xmlns:xlink="http://www.w3.org/1999/xlink" version="1.1" x="0px" y="0px" viewBox="0 0 100 100" enable-background="new 0 0 100 100" xml:space="preserve"><g><path d="M31.517,28.822c0.652,0.045,1.114,1.496,1.292,1.878c0.107,0.232,0.335,0.123,0.315-0.029c0,0-0.063-0.876-0.119-2.006   c-0.015-0.018-0.039-0.035-0.051-0.057c-0.259-0.435-1.099-0.807-1.914-0.807c0,0-0.263,0-0.587,0s-0.85,0.251-1.067,0.631   c-0.539,0.943-0.661,2.305-0.442,4.426c0.011,0.117,0.294,2.833,0.829,4.089c0.372,0.873,1.061,1.563,1.957,1.972   c0.127,0.777,0.325,1.804,0.606,2.769c0.831,2.855,5.102,8.047,10.65,8.224c0.141,0.006,0.461,0.006,0.779,0.006l0.725-0.002   c5.573-0.055,10.031-5.384,10.858-8.228c0.283-0.969,0.48-1.993,0.607-2.769c0.896-0.409,1.584-1.099,1.957-1.974   c0.533-1.254,0.817-3.97,0.829-4.085c0.221-2.139,0.093-3.504-0.456-4.446c-0.222-0.38-0.743-0.636-1.064-0.628   c-0.289,0.006-0.578,0.016-0.578,0.016c-0.815,0-1.655,0.372-1.914,0.807c-0.007,0.012-0.021,0.023-0.031,0.035   c-0.054,1.144-0.136,2.027-0.136,2.027c-0.021,0.152,0.207,0.262,0.315,0.029c0.178-0.382,0.641-1.833,1.291-1.878   c0.438-0.021,0.714,0.468,0.789,0.711c0.125,0.407,0.222,1.222,0.047,2.925c-0.152,1.473-0.467,3.12-0.699,3.67   c-0.147,0.343-0.418,0.57-0.81,0.672c-1.105,0.298-1.354,0.964-1.404,1.33c-0.129,0.93-0.359,2.295-0.715,3.522   c-0.59,2.023-4.312,6.786-8.855,6.829c-0.225,0.006-1.23,0.008-1.506-0.002c-4.388-0.139-8.054-4.583-8.707-6.827   c-0.317-1.091-0.534-2.293-0.669-3.201c-0.017-0.11-0.032-0.22-0.047-0.321c-0.048-0.366-0.298-1.032-1.403-1.33   c-0.391-0.102-0.663-0.329-0.809-0.672c-0.233-0.55-0.547-2.197-0.7-3.67c-0.174-1.703-0.077-2.518,0.047-2.925   C30.804,29.29,31.08,28.801,31.517,28.822z"></path><path d="M37.862,17.394l-1.87-9.259c-0.091-0.449-0.481-0.619-0.856-0.353c-3.391,2.416-5.735,6.195-6.215,10.543   c-0.102,0.913-0.527,1.661-1.064,1.661c-0.538,0-0.973,0.744-0.973,1.664v2.912c0,0.921,0.747,1.667,1.668,1.667h0.819   c0.921,0,1.87,0.448,2.163,0.98c0.105,0.196,0.312,0.368,0.574,0.516c0.377,0.205,0.932,0.612,1.341,0.822   c1.529,0.787,5.603,1.354,10.393,1.354c4.791,0,8.864-0.566,10.393-1.354c0.409-0.21,0.964-0.617,1.341-0.822   c0.263-0.147,0.47-0.319,0.574-0.516c0.293-0.532,1.242-0.98,2.164-0.98h0.818c0.923,0,1.669-0.746,1.669-1.667V21.65   c0-0.92-0.436-1.664-0.974-1.664c-0.536,0-0.963-0.748-1.063-1.661c-0.479-4.344-2.821-8.125-6.21-10.539   c-0.375-0.269-0.765-0.097-0.855,0.351l-1.871,9.257c-0.361,1.808-0.85,3.234-1.086,3.197c-0.235-0.043-0.231-1.549,0.008-3.37   l1.316-9.985c0.061-0.458-0.228-0.985-0.654-1.159c-1.723-0.689-3.6-1.077-5.569-1.077c-1.966,0-3.841,0.388-5.561,1.077   c-0.427,0.17-0.717,0.699-0.656,1.155l1.316,9.989c0.24,1.821,0.243,3.327,0.007,3.37C38.712,20.628,38.225,19.201,37.862,17.394z"></path><path d="M12.942,65.264l-1.067,17.723c-0.171,1.735,0.71,3.144,1.97,3.144h35.467c0.383,0,0.539-0.271,0.362-0.609   c-1.553-2.971-2.434-6.349-2.434-9.933c0-8.685,5.154-16.169,12.571-19.558c0.349-0.16,0.354-0.407,0.005-0.565   c-1.194-0.547-1.978-0.905-1.98-0.907c-0.562-0.362-3.583-3.446-3.583-3.446c-0.27-0.315-0.593-0.507-0.847-0.476   c-0.27,0.01-0.472,0.246-0.477,0.83v0.121c0.511,5.035-18.686,5.035-18.175,0l-0.001-0.121c-0.004-0.584-0.208-0.82-0.476-0.83   c-0.255-0.031-0.578,0.16-0.848,0.476c0,0-3.597,3.478-3.608,3.489c-0.238,0.153-14.398,6.543-14.398,6.543   C14.226,61.685,13.114,63.527,12.942,65.264z M20.36,62.088c0-0.444,0.329-0.946,0.734-1.12l5.236-2.25   c0.405-0.175,0.734,0.043,0.734,0.487v19.303c0,0.444-0.357,0.805-0.799,0.805h-5.107c-0.441,0-0.799-0.36-0.799-0.805V62.088z"></path><path d="M68.732,56.174c-10.721,0-19.412,8.694-19.412,19.413c0,10.723,8.691,19.412,19.412,19.412   c10.724,0,19.414-8.689,19.414-19.412C88.146,64.868,79.456,56.174,68.732,56.174z M81.942,73.603l-0.608,0.99   c-0.198,0.323-0.621,0.421-0.942,0.217l-1.063-0.665v10.041c0,1.528-1.118,2.771-2.497,2.771h-4.343   c-0.047,0-0.1-0.032-0.146-0.069c-0.07-0.057-0.115-0.426-0.115-0.809c0.003-1.715,0.012-5.637,0.015-7.351   c0.001-0.383-0.309-0.692-0.692-0.692h-5.696c-0.384,0-0.692,0.31-0.69,0.693l0.031,7.431c0.001,0.383-0.172,0.719-0.389,0.745   c-0.155,0.019-0.316,0.036-0.392,0.036h-3.784c-1.374,0-2.493-1.24-2.493-2.764V74.119l-1.065,0.684   c-0.321,0.207-0.741,0.111-0.938-0.213l-0.609-0.99c-0.198-0.325-0.1-0.754,0.222-0.961l12.374-8.793   c0.261-0.173,0.699-0.173,0.966-0.008l6.453,4.569V66.24h2.8v3.91l3.381,2.497C82.042,72.852,82.142,73.278,81.942,73.603z"></path></g></svg>