<svg xmlns="http://www.w3.org/2000/svg" xmlns:xlink="http://www.w3.org/1999/xlink" version="1.1" x="0px" y="0px" viewBox="0 0 100 100" style="enable-background:new 0 0 100 100;" xml:space="preserve"><g><g><path d="M88,29H69.1l-4.3-7.1c-1.1-1.8-3-2.9-5.1-2.9H40.3c-2.1,0-4.1,1.1-5.1,2.9L30.9,29H12c-3.3,0-6,2.7-6,6v40    c0,3.3,2.7,6,6,6h76c3.3,0,6-2.7,6-6V35C94,31.7,91.3,29,88,29z M90,75c0,1.1-0.9,2-2,2H12c-1.1,0-2-0.9-2-2V35c0-1.1,0.9-2,2-2    h20c0.7,0,1.4-0.4,1.7-1l4.8-8.1c0.4-0.6,1-1,1.7-1h19.5c0.7,0,1.4,0.4,1.7,1l4.8,8.1c0.4,0.6,1,1,1.7,1h20c1.1,0,2,0.9,2,2V75z"></path><path d="M50,33c-11,0-20,9-20,20s9,20,20,20s20-9,20-20S61,33,50,33z M50,69c-8.8,0-16-7.2-16-16s7.2-16,16-16s16,7.2,16,16    S58.8,69,50,69z"></path><path d="M50,41c-6.6,0-12,5.4-12,12c0,1.1,0.9,2,2,2s2-0.9,2-2c0-4.4,3.6-8,8-8c1.1,0,2-0.9,2-2S51.1,41,50,41z"></path><path d="M84,37H74c-1.1,0-2,0.9-2,2v4c0,1.1,0.9,2,2,2h10c1.1,0,2-0.9,2-2v-4C86,37.9,85.1,37,84,37z"></path></g></g></svg>