<svg xmlns="http://www.w3.org/2000/svg" xmlns:xlink="http://www.w3.org/1999/xlink" viewBox="0 0 100 100" version="1.1" xml:space="preserve" style="" x="0px" y="0px" fill-rule="evenodd" clip-rule="evenodd" stroke-linejoin="round" stroke-miterlimit="1.41421" width="100%" height="100%" ><rect id="svgEditorBackground" x="0" y="0" width="100" height="100" style="fill: none; stroke: none;"/><path d="M50,97.315C49.29,97.313 48.58,97.299 47.871,97.268C46.272,97.197 44.678,97.046 43.095,96.814C38.857,96.193 34.709,94.991 30.796,93.249C26.104,91.161 21.762,88.302 17.983,84.826C14.074,81.229 10.773,76.978 8.265,72.296C6.12,68.292 4.558,63.979 3.647,59.529C2.601,54.425 2.407,49.147 3.065,43.98C3.68,39.15 5.048,34.422 7.109,30.011C9.481,24.933 12.764,20.289 16.751,16.349C20.944,12.205 25.908,8.851 31.324,6.52C34.264,5.254 37.334,4.289 40.471,3.647C43.405,3.046 46.395,2.727 49.389,2.689C52.397,2.65 55.408,2.895 58.369,3.424C61.53,3.99 64.632,4.88 67.612,6.077C73.089,8.277 78.137,11.514 82.433,15.561C86.579,19.467 90.014,24.118 92.52,29.234C94.656,33.597 96.109,38.288 96.814,43.094C97.555,48.154 97.476,53.335 96.576,58.369C95.774,62.852 94.317,67.214 92.264,71.279C89.869,76.025 86.668,80.356 82.843,84.047C79.083,87.676 74.724,90.679 69.989,92.891C66.117,94.7 62.001,95.977 57.785,96.676C56.312,96.921 54.826,97.095 53.336,97.199C52.53,97.255 51.723,97.288 50.915,97.306C50.61,97.311 50.305,97.314 50,97.315ZM50,92.685C50.642,92.683 51.283,92.671 51.924,92.642C53.366,92.578 54.806,92.442 56.234,92.233C60.054,91.673 63.794,90.589 67.321,89.019C71.633,87.1 75.617,84.459 79.071,81.244C82.58,77.977 85.537,74.122 87.775,69.882C89.647,66.336 91.013,62.527 91.817,58.6C92.761,53.993 92.936,49.229 92.342,44.564C91.788,40.21 90.555,35.948 88.697,31.971C86.556,27.388 83.593,23.198 79.995,19.643C76.211,15.903 71.733,12.876 66.846,10.772C64.195,9.631 61.427,8.762 58.6,8.183C55.952,7.64 53.254,7.353 50.552,7.318C47.837,7.284 45.119,7.504 42.446,7.982C39.597,8.492 36.8,9.294 34.114,10.373C29.173,12.358 24.618,15.279 20.742,18.931C17.001,22.456 13.9,26.653 11.639,31.27C9.713,35.204 8.402,39.433 7.767,43.766C7.085,48.421 7.173,53.19 8.03,57.816C8.778,61.851 10.115,65.772 11.986,69.423C14.135,73.616 16.982,77.444 20.372,80.715C23.703,83.93 27.554,86.601 31.737,88.586C35.214,90.237 38.915,91.41 42.709,92.064C44.036,92.293 45.373,92.458 46.716,92.56C47.442,92.616 48.17,92.65 48.898,92.671C49.265,92.679 49.633,92.684 50,92.685Z" style="" fill="black" fill-rule="nonzero" transform="matrix(-0.988279, 0.152659, -0.152659, -0.988279, 107.198, 91.781)"/><g transform="matrix(-0.988279, 0.152659, -0.152659, -0.988279, 107.198, 91.781)"><path d="M49.945,52.544C49.779,52.532 49.736,52.533 49.573,52.503C49.388,52.469 49.208,52.415 49.035,52.342C48.34,52.046 47.8,51.444 47.582,50.72C47.528,50.54 47.494,50.355 47.48,50.168C47.476,50.106 47.476,50.043 47.473,49.981L47.473,14.939C47.48,14.773 47.477,14.731 47.501,14.566C47.537,14.318 47.61,14.077 47.716,13.85C47.849,13.567 48.033,13.309 48.258,13.093C48.438,12.919 48.643,12.772 48.866,12.658C49.595,12.283 50.482,12.283 51.211,12.658C51.434,12.772 51.639,12.919 51.819,13.093C52.179,13.44 52.433,13.892 52.542,14.381C52.569,14.503 52.587,14.627 52.597,14.752C52.601,14.814 52.601,14.877 52.603,14.939L52.603,49.981C52.601,50.043 52.601,50.106 52.597,50.168C52.583,50.355 52.549,50.54 52.495,50.72C52.277,51.444 51.737,52.046 51.042,52.342C50.869,52.415 50.689,52.469 50.504,52.503C50.34,52.533 50.298,52.532 50.132,52.544C50.07,52.544 50.007,52.544 49.945,52.544Z" style="" fill="black" fill-rule="nonzero"/><g transform="matrix(2.83277e-16,1,-0.622237,1.76265e-16,81.1655,-0.0695371)"><path d="M49.945,52.544C49.779,52.532 49.736,52.533 49.573,52.503C49.388,52.469 49.208,52.415 49.035,52.342C48.34,52.046 47.8,51.444 47.582,50.72C47.528,50.54 47.494,50.355 47.48,50.168C47.476,50.106 47.476,50.043 47.473,49.981L47.473,14.939C47.48,14.773 47.477,14.731 47.501,14.566C47.537,14.318 47.61,14.077 47.716,13.85C47.849,13.567 48.033,13.309 48.258,13.093C48.438,12.919 48.643,12.772 48.866,12.658C49.595,12.283 50.482,12.283 51.211,12.658C51.434,12.772 51.639,12.919 51.819,13.093C52.179,13.44 52.433,13.892 52.542,14.381C52.569,14.503 52.587,14.627 52.597,14.752C52.601,14.814 52.601,14.877 52.603,14.939L52.603,49.981C52.601,50.043 52.601,50.106 52.597,50.168C52.583,50.355 52.549,50.54 52.495,50.72C52.277,51.444 51.737,52.046 51.042,52.342C50.869,52.415 50.689,52.469 50.504,52.503C50.34,52.533 50.298,52.532 50.132,52.544C50.07,52.544 50.007,52.544 49.945,52.544Z" style="" fill="black" fill-rule="nonzero"/></g></g></svg>