<svg xmlns="http://www.w3.org/2000/svg" xmlns:xlink="http://www.w3.org/1999/xlink" version="1.1" style="" xml:space="preserve" width="100" height="125"><rect id="backgroundrect" width="100%" height="100%" x="0" y="0" fill="none" stroke="none"/><g class="currentLayer" style=""><title>Layer 1</title><path d="M40,90c13.539,0,24.974-8.973,28.707-21.293C81.027,64.974,90,53.539,90,40c0-16.569-13.431-30-30-30  c-13.539,0-24.974,8.973-28.707,21.293C18.973,35.026,10,46.461,10,60C10,76.569,23.431,90,40,90z M60,20c11.028,0,20,8.972,20,20  c0,7.425-4.114,13.842-10.137,17.292c-1.291-14.405-12.751-25.865-27.156-27.156C46.158,24.114,52.575,20,60,20z M60,60  c-11.028,0-20-8.972-20-20C51.028,40,60,48.972,60,60z M30.137,42.708c1.291,14.405,12.751,25.865,27.156,27.156  C53.842,75.886,47.425,80,40,80c-11.028,0-20-8.972-20-20C20,52.575,24.114,46.158,30.137,42.708z" id="svg_1" class="" fill="#000000" fill-opacity="1"/><path fill="#000000" fill-opacity="1" stroke="none" stroke-opacity="1" stroke-width="1" stroke-dasharray="none" stroke-linejoin="miter" stroke-linecap="butt" stroke-dashoffset="" fill-rule="nonzero" opacity="1" marker-start="" marker-mid="" marker-end="" d="M14.943535549161197,62.42187459984871 C14.943535549161197,49.887507314973845 26.01472834926244,39.7346701196775 39.682871336965945,39.7346701196775 C53.35101432466945,39.7346701196775 64.4222083044342,49.887507314973845 64.4222083044342,62.42187459984871 C64.4222083044342,74.95624188472357 53.35101432466945,85.10907908001991 39.682871336965945,85.10907908001991 C26.01472834926244,85.10907908001991 14.943535549161197,74.95624188472357 14.943535549161197,62.42187459984871 z" id="svg_4" class=""/><path fill="#000000" fill-opacity="1" stroke="none" stroke-opacity="1" stroke-width="1" stroke-dasharray="none" stroke-linejoin="miter" stroke-linecap="butt" stroke-dashoffset="" fill-rule="nonzero" opacity="1" marker-start="" marker-mid="" marker-end="" d="M29,59 C29,59 29.223756906077348,59 29.5,59 C29.776243093922652,59 30,59 30,59 C30,59 29.776243093922652,59 29.5,59 C29.223756906077348,59 29,59 29,59 Z" id="svg_6"/></g></svg>