<svg xmlns="http://www.w3.org/2000/svg" xmlns:xlink="http://www.w3.org/1999/xlink" version="1.1" x="0px" y="0px" viewBox="0 0 100 125" enable-background="new 0 0 100 100" xml:space="preserve"  width="100%" height="100%"><rect id="svgEditorBackground" x="0" y="0" width="100" height="125" style="fill: none; stroke: none;"/><g><polygon fill="#000000" points="-31.7972,138.356 -43.1502,138.356 -43.1502,127.003 -53.0952,127.003 -53.0952,138.356 -64.4482,138.356 -64.4482,148.301 -53.0952,148.301 -53.0952,159.655 -43.1502,159.655 -43.1502,148.301 -31.7972,148.301" transform="matrix(0.880285, 0, 0, 0.880285, 107.016, -61.8808)"/><polygon fill="#000000" points="82.4229,81.1367 17.7163,81.1367 17.7163,16.564 92.8504,16.564 93.2514,4.0344 5.32058,4.0344 5.32058,93.5324 94.8186,93.5324 94.8186,3.99729 82.2888,4.39853"/></g><rect x="21.8544" y="26.6813" style="stroke-width: 1px; vector-effect: non-scaling-stroke;" stroke="black" id="e22_rectangle" width="57.2192" height="3.20856" fill="black" transform="matrix(0.581812, 0, 0, 0.236446, 10.0727, 36.5082)"/><rect x="21.7461" y="-15.085" style="stroke-width: 1px; vector-effect: non-scaling-stroke;" stroke="black" id="e32_rectangle" width="57.2192" height="3.20856" fill="black" transform="matrix(0.713591, 0, 0, 0.236446, 7.22469, 36.3735)"/><rect x="26.8002" y="264.379" style="stroke-width: 1px; vector-effect: non-scaling-stroke;" stroke="black" id="e33_rectangle" width="57.2192" height="3.20856" fill="black" transform="matrix(0.831947, 0, 0, 0.236446, 0.471946, -39.3574)"/></svg>