<?xml version="1.0" encoding="UTF-8" standalone="no"?>
<svg
   xmlns:dc="http://purl.org/dc/elements/1.1/"
   xmlns:cc="http://creativecommons.org/ns#"
   xmlns:rdf="http://www.w3.org/1999/02/22-rdf-syntax-ns#"
   xmlns:svg="http://www.w3.org/2000/svg"
   xmlns="http://www.w3.org/2000/svg"
   xmlns:sodipodi="http://sodipodi.sourceforge.net/DTD/sodipodi-0.dtd"
   xmlns:inkscape="http://www.inkscape.org/namespaces/inkscape"
   xml:space="preserve"
   width="500"
   height="500"
   version="1.1"
   style="clip-rule:evenodd;fill-rule:evenodd;image-rendering:optimizeQuality;shape-rendering:geometricPrecision;text-rendering:geometricPrecision"
   viewBox="4.6231146 3.7023373 450.62088 449.4439"
   preserveAspectRatio="xMidYMid meet"
   id="svg3336"
   inkscape:version="0.91 r13725"
   sodipodi:docname="ALCheck.svg"><metadata
     id="metadata3352"><rdf:RDF><cc:Work
         rdf:about=""><dc:format>image/svg+xml</dc:format><dc:type
           rdf:resource="http://purl.org/dc/dcmitype/StillImage" /><dc:title></dc:title></cc:Work></rdf:RDF></metadata><sodipodi:namedview
     pagecolor="#ffffff"
     bordercolor="#666666"
     borderopacity="1"
     objecttolerance="10"
     gridtolerance="10"
     guidetolerance="10"
     inkscape:pageopacity="0"
     inkscape:pageshadow="2"
     inkscape:window-width="1920"
     inkscape:window-height="1138"
     id="namedview3350"
     showgrid="false"
     width="147px"
     inkscape:zoom="4.6142857"
     inkscape:cx="111.07255"
     inkscape:cy="120.79207"
     inkscape:window-x="1192"
     inkscape:window-y="144"
     inkscape:window-maximized="1"
     inkscape:current-layer="svg3336" /><rect
     id="svgEditorBackground"
     x="0"
     y="355.99048"
     width="300"
     height="106"
     style="fill:none;stroke:none" /><defs
     id="defs3339"><style
       type="text/css"
       id="style3341"><![CDATA[
    .fil3 {fill:#231F20}
    .fil1 {fill:#514E4F}
    .fil2 {fill:#231F20;fill-rule:nonzero}
    .fil0 {fill:#FAB70A;fill-rule:nonzero}
   ]]></style></defs><g
     id="Layer_x0020_1"
     transform="translate(58.985298,281.77056)"><metadata
       id="CorelCorpID_0Corel-Layer" /><g
       id="Automotive_lighting_logo.svg"><g
         id="layer1"><g
           id="g2562"><polygon
             id="path45"
             points="81,98 81,22 98,4 98,80 136,80 119,98 " /><polygon
             id="path47"
             points="5,98 75,27 75,98 40,98 58,80 58,67 27,98 " /></g></g></g></g><g
     id="g3407"
     transform="matrix(1.4871885,0,0,1.0711664,119.9151,319.41345)"><rect
       style="fill:none;stroke:none"
       height="100"
       width="100"
       y="0"
       x="0"
       id="svgEditorBackground-0" /><g
       id="g3395"><g
         id="g3397"><path
           id="path3399"
           d="m 19.5,72.5 c 3.3,4 6.6,8.1 9.8,12.1 1.3,1.6 3.6,0.5 4.2,-1.1 C 42,57.9 58.3,35.4 80,19.3 82.6,17.4 80.1,13.1 77.5,15 54.7,31.9 37.6,55.2 28.7,82.2 30.1,81.8 31.5,81.5 32.9,81.1 29.6,77.1 26.3,73 23.1,69 21,66.4 17.5,70 19.5,72.5 l 0,0 z"
           inkscape:connector-curvature="0" /></g></g></g><rect
     style="fill:none;fill-rule:evenodd;stroke:#000000;stroke-width:1.80017543;stroke-linecap:butt;stroke-linejoin:miter;stroke-miterlimit:4;stroke-dasharray:none;stroke-opacity:1"
     id="rect3413"
     width="29.743286"
     height="29.743286"
     x="145.95657"
     y="383.44083" /><rect
     style="fill:none;stroke-width:2.16388154;stroke-miterlimit:4;stroke-dasharray:none"
     id="rect4215"
     width="2.7344177"
     height="0.78126222"
     x="165.1725"
     y="404.71054" /><rect
     style="fill:#000000;fill-opacity:1;stroke-width:2.16388154;stroke-miterlimit:4;stroke-dasharray:none"
     id="rect4221"
     width="8.0079374"
     height="4.9805465"
     x="161.38826"
     y="402.7818" /></svg>