<svg width="100" height="125" xmlns="http://www.w3.org/2000/svg">

 <g>
  <title>background</title>
  <rect fill="none" id="canvas_background" height="402" width="582" y="-1" x="-1"/>
 </g>
 <g>
  <title>Layer 1</title>
  <path id="svg_1" d="m67.55117,38l3.900002,-6.700001l-5.200005,-3l-3.799995,6.700001c-3.799999,-1.700001 -8,-2.700001 -12.400002,-2.700001c-16.599998,0 -30.200001,13.5 -30.200001,30.200001c0,10.100006 5,19 12.600002,24.5l-3.900002,6.700005l5.200001,3l3.799999,-6.700005c3.799999,1.700005 8,2.700005 12.399998,2.700005c16.600002,0 30.200001,-13.5 30.200001,-30.200005c0,-10.099998 -5,-19 -12.599998,-24.5zm-41.799999,24.5c0,-13.299999 10.799999,-24.200001 24.200001,-24.200001c3.299999,0 6.5,0.700001 9.400002,1.899998l-24,41.5c-5.800001,-4.399994 -9.600002,-11.299995 -9.600002,-19.199997zm24.200001,24.199997c-3.299999,0 -6.5,-0.699997 -9.400002,-1.900002l24,-41.5c5.800003,4.400002 9.600006,11.400002 9.600006,19.299999c-0.000008,13.200008 -10.900005,24.100002 -24.200005,24.100002z"/>
 </g>
</svg>