<svg xmlns="http://www.w3.org/2000/svg" xmlns:xlink="http://www.w3.org/1999/xlink" version="1.1" x="0px" y="0px" viewBox="0 0 100 125" style="enable-background:new 0 0 100 100;" xml:space="preserve"><g><path d="M25,60h15v6.25V77.5v15c0,1.381,1.119,2.5,2.5,2.5s2.5-1.119,2.5-2.5v-15V66.25V60h10v6.25V77.5v10   c0,1.381,1.119,2.5,2.5,2.5s2.5-1.119,2.5-2.5v-10V66.25V60h15c1.381,0,2.5-1.119,2.5-2.5V45c0-1.381-1.119-2.5-2.5-2.5h-2.5v-15   C72.5,15.093,62.406,5,50,5S27.5,15.093,27.5,27.5v15H25c-1.381,0-2.5,1.119-2.5,2.5v12.5C22.5,58.881,23.619,60,25,60z M32.5,27.5   C32.5,17.851,40.351,10,50,10s17.5,7.851,17.5,17.5v15H60V28.75c0-1.381-1.119-2.5-2.5-2.5H50c-1.011,0-1.923,0.609-2.31,1.543   c-0.387,0.934-0.173,2.009,0.542,2.724l3.75,3.75c0.819,0.819,2.062,0.951,3.018,0.398V42.5H45v-5.214l1.768-1.768   c0.977-0.976,0.977-2.559,0-3.535l-2.5-2.5c-0.715-0.714-1.787-0.93-2.725-0.542C40.609,29.327,40,30.239,40,31.25v4.997   c0,0.002,0,0.004,0,0.007V42.5h-7.5V27.5z M27.5,47.5H30h40h2.5V55h-45V47.5z"/></g><text x="0" y="115" fill="#000000" font-size="5px" font-weight="bold" font-family="'Helvetica Neue', Helvetica, Arial-Unicode, Arial, Sans-serif">Created by Arthur Shlain</text><text x="0" y="120" fill="#000000" font-size="5px" font-weight="bold" font-family="'Helvetica Neue', Helvetica, Arial-Unicode, Arial, Sans-serif">from the Noun Project</text></svg>