<svg xmlns="http://www.w3.org/2000/svg" xmlns:xlink="http://www.w3.org/1999/xlink" viewBox="0 0 100 100" version="1.1" x="0px" y="0px"><title>tool-6</title><desc>Created with Sketch.</desc><g stroke="none" stroke-width="1" fill="none" fill-rule="evenodd"><path d="M38.4119667,79.7041984 L47.4769438,79.7041984 L47.4769438,70.6392212 L38.4119667,70.6392212 L38.4119667,79.7041984 Z M24.8345176,79.7041984 L33.8994947,79.7041984 L33.8994947,70.6392212 L24.8345176,70.6392212 L24.8345176,79.7041984 Z M65.5658382,65.5395942 L74.6308154,65.5395942 L74.6308154,56.4746171 L65.5658382,56.4746171 L65.5658382,65.5395942 Z M51.9883892,65.5395942 L61.0533663,65.5395942 L61.0533663,56.4746171 L51.9883892,56.4746171 L51.9883892,65.5395942 Z M38.4119667,65.5395942 L47.4769438,65.5395942 L47.4769438,56.4746171 L38.4119667,56.4746171 L38.4119667,65.5395942 Z M24.8345176,65.5395942 L33.8994947,65.5395942 L33.8994947,56.4746171 L24.8345176,56.4746171 L24.8345176,65.5395942 Z M65.5658382,51.37499 L74.6308154,51.37499 L74.6308154,42.3100129 L65.5658382,42.3100129 L65.5658382,51.37499 Z M51.9883892,51.37499 L61.0533663,51.37499 L61.0533663,42.3100129 L51.9883892,42.3100129 L51.9883892,51.37499 Z M38.4119667,51.37499 L47.4769438,51.37499 L47.4769438,42.3100129 L38.4119667,42.3100129 L38.4119667,51.37499 Z M24.8345176,51.37499 L33.8994947,51.37499 L33.8994947,42.3100129 L24.8345176,42.3100129 L24.8345176,51.37499 Z M14.4751303,88.5248697 L85.6984842,88.5248697 L85.6984842,34.1370599 L14.4751303,34.1370599 L14.4751303,88.5248697 Z M74.0426338,5 L67.5685299,5 L67.5685299,10.827412 L32.6040581,10.827412 L32.6040581,5 L26.1299543,5 L26.1299543,10.827412 L8,10.827412 L8,95 L92.172588,95 L92.172588,10.827412 L74.0426338,10.827412 L74.0426338,5 Z" fill="#000000"></path></g></svg>