<svg xmlns="http://www.w3.org/2000/svg" xmlns:xlink="http://www.w3.org/1999/xlink" version="1.1" x="0px" y="0px" viewBox="0 0 100 100" enable-background="new 0 0 100 100" xml:space="preserve"><g><path d="M59.706,50c0-5.352-4.354-9.706-9.706-9.706c-5.352,0-9.706,4.354-9.706,9.706c0,5.352,4.354,9.706,9.706,9.706   C55.352,59.706,59.706,55.352,59.706,50z"></path><path d="M73.764,25.382c-0.076-0.076-0.155-0.152-0.235-0.229c-9.861-9.343-22.412-9.369-22.412-9.369   c-0.371-0.012-0.742-0.02-1.116-0.02c-18.877,0-34.235,15.358-34.235,34.235c0,8.989,3.484,17.179,9.17,23.293L39.234,60.43   C36.616,57.728,35,54.05,35,50c0-8.002,6.298-14.56,14.199-14.978c5.654-0.551,9.93,3.087,9.93,3.087   C62.695,40.854,65,45.162,65,50c0,8.271-6.729,15-15,15c-0.753,0-1.493-0.058-2.217-0.165l-1.909,19.15   c1.354,0.164,2.73,0.25,4.126,0.25c18.878,0,34.235-15.357,34.235-34.235C84.235,40.345,80.215,31.613,73.764,25.382z"></path><path d="M50,5C25.147,5,5,25.147,5,50c0,24.853,20.147,45,45,45c24.853,0,45-20.147,45-45C95,25.147,74.853,5,50,5z M77.952,77.952   C70.485,85.418,60.559,89.529,50,89.529s-20.485-4.111-27.952-11.577C14.583,70.485,10.471,60.559,10.471,50   s4.112-20.485,11.578-27.952C29.515,14.583,39.441,10.471,50,10.471s20.485,4.112,27.952,11.578   C85.418,29.515,89.529,39.441,89.529,50S85.418,70.485,77.952,77.952z"></path></g></svg>