<?xml version="1.0" encoding="UTF-8" standalone="no"?>
<svg
   xmlns:dc="http://purl.org/dc/elements/1.1/"
   xmlns:cc="http://creativecommons.org/ns#"
   xmlns:rdf="http://www.w3.org/1999/02/22-rdf-syntax-ns#"
   xmlns:svg="http://www.w3.org/2000/svg"
   xmlns="http://www.w3.org/2000/svg"
   xmlns:sodipodi="http://sodipodi.sourceforge.net/DTD/sodipodi-0.dtd"
   xmlns:inkscape="http://www.inkscape.org/namespaces/inkscape"
   version="1.1"
   x="0px"
   y="0px"
   viewBox="0 0 100 125"
   enable-background="new 0 0 100 100"
   xml:space="preserve"
   id="svg4136"
   inkscape:version="0.91 r13725"
   sodipodi:docname="cDaq.svg"><metadata
     id="metadata4168"><rdf:RDF><cc:Work
         rdf:about=""><dc:format>image/svg+xml</dc:format><dc:type
           rdf:resource="http://purl.org/dc/dcmitype/StillImage" /></cc:Work></rdf:RDF></metadata><defs
     id="defs4166" /><sodipodi:namedview
     pagecolor="#ffffff"
     bordercolor="#666666"
     borderopacity="1"
     objecttolerance="10"
     gridtolerance="10"
     guidetolerance="10"
     inkscape:pageopacity="0"
     inkscape:pageshadow="2"
     inkscape:window-width="1920"
     inkscape:window-height="1138"
     id="namedview4164"
     showgrid="false"
     inkscape:zoom="7.704"
     inkscape:cx="50"
     inkscape:cy="62.5"
     inkscape:window-x="1192"
     inkscape:window-y="144"
     inkscape:window-maximized="1"
     inkscape:current-layer="svg4136" /><path
     d="M11.334,34.131l5.859,5.858l0.945-0.945l-5.889-5.889C11.925,33.476,11.622,33.801,11.334,34.131z"
     id="path4138" /><path
     d="M31.208,28.722l1.231-0.522l-1.688-3.979c-0.442,0.107-0.88,0.218-1.313,0.332L31.208,28.722z"
     id="path4140" /><path
     d="M40.041,27.194l1.308-0.277l-0.928-4.366c-0.447,0.049-0.893,0.1-1.334,0.156L40.041,27.194z"
     id="path4142" /><path
     d="M21.929,31.682l1.108-0.747l-2.261-3.351c-0.416,0.189-0.82,0.384-1.22,0.581L21.929,31.682z"
     id="path4144" /><path
     d="M68.931,24.109l-1.662,4.112l1.24,0.501l1.734-4.294C69.812,24.317,69.372,24.213,68.931,24.109z"
     id="path4146" /><path
     d="M59.089,22.482l-0.861,4.435l1.312,0.255l0.884-4.548C59.982,22.573,59.535,22.528,59.089,22.482z"
     id="path4148" /><path
     d="M78.594,27.239l-2.375,3.656l1.122,0.728l2.487-3.83C79.426,27.604,79.013,27.42,78.594,27.239z"
     id="path4150" /><path
     d="M87.738,32.989l-6.054,6.055l0.944,0.945l6.037-6.035C88.373,33.628,88.067,33.306,87.738,32.989z"
     id="path4152" /><path
     d="M50.076,22.026c-0.225,0-0.445,0.006-0.669,0.008v7.982h1.337v-7.982C50.521,22.033,50.3,22.026,50.076,22.026z"
     id="path4154" /><polygon
     points="24.545,45.035 22.555,47.025 38.938,63.407 42.918,63.407 "
     id="polygon4156" /><path
     d="M92.339,15.372H7.662C3.448,15.372,0,18.82,0,23.034v55.939c0,4.214,3.448,7.661,7.662,7.661h84.677  c4.214,0,7.661-3.447,7.661-7.661V23.034C100,18.82,96.553,15.372,92.339,15.372z M43.229,79.193  c-2.383-3.555-1.592-8.301,1.703-10.915l9.041,13.488C50.302,83.821,45.61,82.748,43.229,79.193z M55.068,81.032l-9.04-13.489  c3.671-2.054,8.361-0.981,10.744,2.573C59.154,73.671,58.364,78.418,55.068,81.032z M91.771,58.126c0,2.905-2.377,5.281-5.282,5.281  H13.512c-2.905,0-5.282-2.376-5.282-5.281V41.359c0-10.678,18.701-19.333,41.771-19.333c23.068,0,41.77,8.655,41.77,19.333V58.126z"
     id="path4158" /></svg>