<?xml version="1.0" encoding="UTF-8" standalone="no"?>
<svg
   xmlns:dc="http://purl.org/dc/elements/1.1/"
   xmlns:cc="http://creativecommons.org/ns#"
   xmlns:rdf="http://www.w3.org/1999/02/22-rdf-syntax-ns#"
   xmlns:svg="http://www.w3.org/2000/svg"
   xmlns="http://www.w3.org/2000/svg"
   xmlns:sodipodi="http://sodipodi.sourceforge.net/DTD/sodipodi-0.dtd"
   xmlns:inkscape="http://www.inkscape.org/namespaces/inkscape"
   version="1.1"
   x="0px"
   y="0px"
   viewBox="0 0 100 125"
   enable-background="new 0 0 100 100"
   xml:space="preserve"
   id="svg5326"
   inkscape:version="0.91 r13725"
   sodipodi:docname="choice.svg"><metadata
     id="metadata5344"><rdf:RDF><cc:Work
         rdf:about=""><dc:format>image/svg+xml</dc:format><dc:type
           rdf:resource="http://purl.org/dc/dcmitype/StillImage" /></cc:Work></rdf:RDF></metadata><defs
     id="defs5342" /><sodipodi:namedview
     pagecolor="#ffffff"
     bordercolor="#666666"
     borderopacity="1"
     objecttolerance="10"
     gridtolerance="10"
     guidetolerance="10"
     inkscape:pageopacity="0"
     inkscape:pageshadow="2"
     inkscape:window-width="1920"
     inkscape:window-height="1138"
     id="namedview5340"
     showgrid="false"
     inkscape:zoom="1.888"
     inkscape:cx="50"
     inkscape:cy="62.5"
     inkscape:window-x="1192"
     inkscape:window-y="144"
     inkscape:window-maximized="1"
     inkscape:current-layer="svg5326" /><rect
     x="44.5"
     y="53.5"
     width="11"
     height="46.5"
     id="rect5328" /><rect
     x="44.5"
     y="22"
     width="11"
     height="7.5"
     id="rect5330" /><path
     d="M78.406,0H25.429c-1.015,0-2.432,0.587-3.15,1.305l-7.391,7.391c-0.718,0.718-0.718,1.892,0,2.609l7.391,7.391  C22.997,19.413,24.414,20,25.429,20h52.978c1.014,0,1.844-0.83,1.844-1.845V1.845C80.25,0.83,79.42,0,78.406,0z"
     id="path5332" /><path
     d="M85.111,40.195l-7.391-7.391c-0.717-0.718-2.135-1.305-3.148-1.305H21.595c-1.015,0-1.845,0.83-1.845,1.845v16.31  c0,1.015,0.83,1.845,1.845,1.845h52.978c1.014,0,2.432-0.587,3.148-1.305l7.391-7.391C85.83,42.087,85.83,40.913,85.111,40.195z"
     id="path5334" /></svg>