<svg xmlns="http://www.w3.org/2000/svg" xmlns:xlink="http://www.w3.org/1999/xlink" version="1.1" x="0px" y="0px" viewBox="0 0 100 100" enable-background="new 0 0 100 100" xml:space="preserve"><path fill="#000000" d="M90.611,84.043h-2.875c-0.71-15.151-5.606-28.864-13.366-39.174c-7.226-9.616-17.131-16.331-28.343-17.984  l-5.108,7.268c-0.061,0.081-0.115,0.198-0.18,0.341c10.393,0.041,19.998,5.617,27.238,15.192  c6.628,8.78,11.046,20.859,11.741,34.358H47.597c-0.47-2.343-2.532-4.105-5.012-4.105h-1.74c-2.48,0-4.542,1.763-5.011,4.105h-2.26  c-4.423,0-8.008,3.585-8.008,8.008h73.05C98.615,87.628,95.03,84.043,90.611,84.043z"></path><path fill="#000000" d="M36.965,33.588l6.485-9.226c1.403-1.992,0.924-4.745-1.073-6.148l-8.915-6.273  c-1.998-1.401-4.75-0.922-6.153,1.073l-6.485,9.223C19.421,24.229-0.006,33.97,1.991,35.372l8.491,5.973  c-0.759,1.188-1.205,2.594-1.205,4.108c0,4.211,3.415,7.625,7.625,7.625c2.458,0,4.64-1.17,6.034-2.974l8.031,5.648  C32.966,57.155,35.562,35.583,36.965,33.588z"></path></svg>