<svg xmlns="http://www.w3.org/2000/svg" xmlns:xlink="http://www.w3.org/1999/xlink" version="1.1" x="0px" y="0px" viewBox="0 0 100 100" enable-background="new 0 0 100 100" xml:space="preserve"><g><path fill-rule="evenodd" clip-rule="evenodd" d="M47.323,50.606c-0.003,0-0.007-0.001-0.01-0.001l0,0   c-0.071-0.002-0.146-0.01-0.217-0.01c-1.382,0-2.39,0.391-2.994,1.161c-6.216,7.919-13.188,14.045-20.568,20.53   C20.892,74.608,18.169,77,15.461,79.5c1.166,1.135,2.618,2.355,4.267,3.615l13.722-14.327c0.541-0.563,1.439-0.586,2.004-0.043   c0.565,0.541,0.585,1.438,0.043,2.004L22.03,84.81c2.817,1.999,6.028,4.042,9.334,5.951c0.027-0.075,0.059-0.149,0.1-0.222   l4.089-7.083c0.392-0.679,1.26-0.909,1.937-0.519c0.678,0.392,0.91,1.258,0.519,1.937l-4.089,7.083   c-0.037,0.064-0.087,0.115-0.133,0.171c3.149,1.734,6.31,3.308,9.225,4.574l3.641-14.013c0.197-0.757,0.977-1.206,1.729-1.016   c0.758,0.197,1.212,0.971,1.016,1.729l-3.738,14.391c1.324,0.513,2.574,0.946,3.716,1.275c0.811-3.593,1.521-7.144,2.21-10.591   c1.927-9.634,3.745-18.733,7.494-28.076c0.516-1.286-0.142-2.688-0.783-3.638C56.116,53.543,51.049,50.716,47.323,50.606z"></path><path fill-rule="evenodd" clip-rule="evenodd" d="M60.447,44.955l-3.992-2.305c-1.877-1.084-4.298-0.435-5.382,1.442l-2.202,3.814   c1.38,0.215,2.819,0.671,4.221,1.296c0.14,0.063,0.279,0.125,0.419,0.19c0.375,0.178,0.746,0.367,1.112,0.568   c0.07,0.039,0.143,0.074,0.213,0.114c1.888,1.069,3.619,2.436,4.92,3.957l2.134-3.696C62.973,48.459,62.324,46.039,60.447,44.955z"></path><path fill-rule="evenodd" clip-rule="evenodd" d="M83.227,1.282c-1.252-0.723-2.868-0.29-3.592,0.962L57.049,41.366   c0.038,0.021,0.078,0.035,0.115,0.057l3.992,2.305c0.154,0.089,0.282,0.204,0.425,0.306L84.189,4.874   C84.912,3.621,84.479,2.006,83.227,1.282z"></path></g></svg>