<svg xmlns="http://www.w3.org/2000/svg" xmlns:xlink="http://www.w3.org/1999/xlink" version="1.1" x="0px" y="0px" viewBox="0 0 100 125" style="enable-background:new 0 0 100 100;" xml:space="preserve"><path d="M55,61h-3V21c0-1.1-0.9-2-2-2s-2,0.9-2,2v40h-3c-0.6,0-1,0.4-1,1v10c0,0.6,0.4,1,1,1h3v6c0,1.1,0.9,2,2,2s2-0.9,2-2v-6h3  c0.6,0,1-0.4,1-1V62C56,61.4,55.6,61,55,61z M54,71h-8v-8h8V71z M73,44h-3V21c0-1.1-0.9-2-2-2s-2,0.9-2,2v23h-3c-0.6,0-1,0.4-1,1v10  c0,0.6,0.4,1,1,1h3v23c0,1.1,0.9,2,2,2s2-0.9,2-2V56h3c0.6,0,1-0.4,1-1V45C74,44.4,73.6,44,73,44z M72,54h-8v-8h8V54z M37,27h-3v-6  c0-1.1-0.9-2-2-2s-2,0.9-2,2v6h-3c-0.6,0-1,0.4-1,1v10c0,0.6,0.4,1,1,1h3v40c0,1.1,0.9,2,2,2s2-0.9,2-2V39h3c0.6,0,1-0.4,1-1V28  C38,27.4,37.6,27,37,27z M36,37h-8v-8h8V37z"/><text x="0" y="115" fill="#000000" font-size="5px" font-weight="bold" font-family="'Helvetica Neue', Helvetica, Arial-Unicode, Arial, Sans-serif">Created by Setyo Ari Wibowo</text><text x="0" y="120" fill="#000000" font-size="5px" font-weight="bold" font-family="'Helvetica Neue', Helvetica, Arial-Unicode, Arial, Sans-serif">from the Noun Project</text></svg>