<svg xmlns="http://www.w3.org/2000/svg" xmlns:xlink="http://www.w3.org/1999/xlink" version="1.1" x="0px" y="0px" viewBox="0 0 100 125" enable-background="new 0 0 100 100" xml:space="preserve"><path d="M96.119,50L66.443,13.974v15.242H46.588v0.062c-6.591,0.196-11.976,1.801-16.396,4.879  c-4.734-3.287-10.586-4.908-17.803-4.939H3.881v41.564h31.316h0.029c6.367-0.265,11.578-1.856,15.894-4.86  c4.191,2.911,9.232,4.502,15.32,4.834v15.271L96.119,50z M35.14,67.955H6.704v-35.91h5.678c7.6,0.031,13.5,1.947,18.035,5.855  c4.032,3.475,6.508,8.062,9.127,12.918c2.521,4.676,5.125,9.504,9.249,13.256C45.071,66.453,40.581,67.726,35.14,67.955z   M51.207,62.435c-0.018-0.017-0.035-0.028-0.055-0.045c-4.031-3.474-6.504-8.06-9.122-12.915c-2.316-4.297-4.708-8.725-8.283-12.327  c-0.384-0.4-0.775-0.796-1.188-1.177c4.118-2.614,9.188-3.891,15.438-3.891h1.414v-0.037h19.856V21.851l23.188,28.148L69.267,78.146  v-10.19H67.09C60.541,67.679,55.344,65.869,51.207,62.435z"/><text x="0" y="115" fill="#000000" font-size="5px" font-weight="bold" font-family="'Helvetica Neue', Helvetica, Arial-Unicode, Arial, Sans-serif">Created by Jaime Serra</text><text x="0" y="120" fill="#000000" font-size="5px" font-weight="bold" font-family="'Helvetica Neue', Helvetica, Arial-Unicode, Arial, Sans-serif">from the Noun Project</text></svg>