<svg xmlns="http://www.w3.org/2000/svg" xmlns:xlink="http://www.w3.org/1999/xlink" version="1.1" x="0px" y="0px" viewBox="0 0 100 125" enable-background="new 0 0 100 100" xml:space="preserve"><path fill="#000000" d="M38.5,59.8c0-2.3,0.9-4.3,2-4.3s2,1.9,2,4.3s-0.9,4.3-2,4.3S38.5,62.1,38.5,59.8z M41.7,64  c0.8-0.8,1.3-2.4,1.3-4.3c0-1.9-0.5-3.4-1.3-4.3h1.1c1.1,0,2,1.9,2,4.3s-0.9,4.3-2,4.3H41.7z M37.9,59.8c0,2.7,1.1,4.8,2.6,4.8h2.3  c1.4,0,2.6-2.1,2.6-4.8S44.2,55,42.7,55h-2.3C39,55,37.9,57.1,37.9,59.8z"/><path fill="#000000" d="M39.5,59.8c0-1.6,0.5-2.7,1-2.7c0.5,0,1,1.1,1,2.7s-0.5,2.7-1,2.7C40,62.5,39.5,61.4,39.5,59.8z M39.2,59.8  c0,1.7,0.6,3,1.3,3c0.7,0,1.3-1.3,1.3-3c0-1.7-0.6-3-1.3-3C39.8,56.8,39.2,58.1,39.2,59.8z"/><polygon fill="#000000" points="41.3,55.3 2,31.1 24.8,31.1 97,55.3 "/><path fill="#000000" d="M2.4,35c0-1.2,0.5-2.2,1-2.2s1,1,1,2.2s-0.5,2.2-1,2.2S2.4,36.2,2.4,35z M4,37.2C4.4,36.8,4.7,36,4.7,35  S4.4,33.2,4,32.8h0.6c0.6,0,1,1,1,2.2s-0.5,2.2-1,2.2H4z M2.1,35c0,1.4,0.6,2.5,1.3,2.5h1.2c0.7,0,1.3-1.1,1.3-2.5s-0.6-2.5-1.3-2.5  H3.4C2.6,32.5,2.1,33.6,2.1,35z"/><path fill="#000000" d="M2.9,35c0-0.8,0.3-1.4,0.5-1.4c0.2,0,0.5,0.6,0.5,1.4s-0.3,1.4-0.5,1.4S2.9,35.9,2.9,35z M2.7,35  c0,0.9,0.3,1.6,0.7,1.6s0.7-0.7,0.7-1.6c0-0.9-0.3-1.6-0.7-1.6S2.7,34.1,2.7,35z"/><path fill="#000000" d="M30.7,54.4c0-2.1,0.8-3.8,1.8-3.8c1,0,1.8,1.8,1.8,3.8c0,2.1-0.8,3.8-1.8,3.8C31.5,58.2,30.7,56.5,30.7,54.4  z M33.6,58.2c0.7-0.7,1.2-2.1,1.2-3.8c0-1.7-0.5-3.1-1.2-3.8h0.9c1,0,1.8,1.8,1.8,3.8c0,2.1-0.8,3.8-1.8,3.8H33.6z M30.2,54.4  c0,2.4,1,4.3,2.3,4.3h2c1.3,0,2.3-1.9,2.3-4.3c0-2.4-1-4.3-2.3-4.3h-2C31.2,50.1,30.2,52,30.2,54.4z"/><path fill="#000000" d="M31.6,54.4c0-1.4,0.5-2.4,0.9-2.4c0.4,0,0.9,1,0.9,2.4c0,1.4-0.5,2.4-0.9,2.4C32.1,56.8,31.6,55.8,31.6,54.4  z M31.3,54.4c0,1.5,0.5,2.7,1.2,2.7s1.2-1.2,1.2-2.7c0-1.5-0.5-2.7-1.2-2.7S31.3,52.9,31.3,54.4z"/><path fill="#000000" d="M23.5,49.5c0-1.8,0.7-3.4,1.6-3.4s1.6,1.5,1.6,3.4c0,1.8-0.7,3.4-1.6,3.4S23.5,51.4,23.5,49.5z M26,52.9  c0.6-0.6,1.1-1.9,1.1-3.4s-0.4-2.7-1.1-3.4h0.8c0.9,0,1.6,1.5,1.6,3.4c0,1.8-0.7,3.4-1.6,3.4H26z M23,49.5c0,2.1,0.9,3.8,2,3.8h1.8  c1.1,0,2-1.7,2-3.8s-0.9-3.8-2-3.8h-1.8C23.9,45.7,23,47.4,23,49.5z"/><path fill="#000000" d="M24.3,49.5c0-1.3,0.4-2.1,0.8-2.1c0.4,0,0.8,0.9,0.8,2.1s-0.4,2.1-0.8,2.1S24.3,50.8,24.3,49.5z M24,49.5  c0,1.3,0.4,2.4,1,2.4s1-1,1-2.3c0-1.3-0.4-2.4-1-2.4S24,48.2,24,49.5z"/><path fill="#000000" d="M17.3,45.3c0-1.6,0.6-3,1.4-3c0.8,0,1.4,1.4,1.4,3s-0.6,3-1.4,3C18,48.3,17.3,46.9,17.3,45.3z M19.6,48.3  c0.6-0.6,0.9-1.7,0.9-3s-0.4-2.4-0.9-3h0.7c0.8,0,1.4,1.4,1.4,3s-0.6,3-1.4,3H19.6z M16.9,45.3c0,1.9,0.8,3.4,1.8,3.4h1.6  c1,0,1.8-1.5,1.8-3.4s-0.8-3.4-1.8-3.4h-1.6C17.7,41.9,16.9,43.4,16.9,45.3z"/><path fill="#000000" d="M18,45.3c0-1.1,0.4-1.9,0.7-1.9c0.3,0,0.7,0.8,0.7,1.9s-0.4,1.9-0.7,1.9C18.4,47.2,18,46.4,18,45.3z   M17.8,45.3c0,1.2,0.4,2.1,0.9,2.1c0.5,0,0.9-0.9,0.9-2.1c0-1.2-0.4-2.1-0.9-2.1C18.2,43.2,17.8,44.1,17.8,45.3z"/><path fill="#000000" d="M11.5,41.3c0-1.5,0.6-2.7,1.3-2.7s1.3,1.2,1.3,2.7c0,1.5-0.6,2.7-1.3,2.7S11.5,42.8,11.5,41.3z M13.5,44  c0.5-0.5,0.8-1.5,0.8-2.7c0-1.2-0.3-2.2-0.8-2.7h0.7c0.7,0,1.3,1.2,1.3,2.7c0,1.5-0.6,2.7-1.3,2.7H13.5z M11.1,41.3  c0,1.7,0.7,3.1,1.6,3.1h1.4c0.9,0,1.6-1.3,1.6-3.1c0-1.7-0.7-3.1-1.6-3.1h-1.4C11.9,38.2,11.1,39.6,11.1,41.3z"/><path fill="#000000" d="M12.1,41.3c0-1,0.3-1.7,0.6-1.7c0.3,0,0.6,0.7,0.6,1.7c0,1-0.3,1.7-0.6,1.7S12.1,42.3,12.1,41.3z M11.9,41.3  c0,1.1,0.4,1.9,0.8,1.9s0.8-0.8,0.8-1.9c0-1.1-0.4-1.9-0.8-1.9S11.9,40.2,11.9,41.3z"/><path fill="#000000" d="M6.5,38.1c0-1.3,0.5-2.4,1.1-2.4s1.1,1.1,1.1,2.4c0,1.3-0.5,2.4-1.1,2.4S6.5,39.4,6.5,38.1z M8.4,40.5  c0.5-0.5,0.8-1.4,0.8-2.4s-0.3-2-0.8-2.4H9c0.6,0,1.1,1.1,1.1,2.4c0,1.3-0.5,2.4-1.1,2.4H8.4z M6.2,38.1c0,1.6,0.6,2.8,1.5,2.8H9  c0.8,0,1.5-1.2,1.5-2.8S9.8,35.3,9,35.3H7.7C6.9,35.3,6.2,36.5,6.2,38.1z"/><path fill="#000000" d="M7.1,38.1c0-0.9,0.3-1.6,0.6-1.6c0.3,0,0.6,0.6,0.6,1.6c0,0.9-0.3,1.6-0.6,1.6S7.1,39,7.1,38.1z M6.9,38.1  c0,1,0.3,1.7,0.7,1.7c0.4,0,0.7-0.7,0.7-1.7c0-1-0.3-1.7-0.7-1.7C7.3,36.4,6.9,37.1,6.9,38.1z"/><path fill="#000000" d="M91.3,59.8c0-2.3,0.9-4.3,2-4.3s2,1.9,2,4.3s-0.9,4.3-2,4.3S91.3,62.1,91.3,59.8z M94.5,64  c0.8-0.8,1.3-2.4,1.3-4.3c0-1.9-0.5-3.4-1.3-4.3h1.1c1.1,0,2,1.9,2,4.3s-0.9,4.3-2,4.3H94.5z M90.7,59.8c0,2.7,1.1,4.8,2.6,4.8h2.3  c1.4,0,2.6-2.1,2.6-4.8S96.9,55,95.5,55h-2.3C91.8,55,90.7,57.1,90.7,59.8z"/><path fill="#000000" d="M92.2,59.8c0-1.6,0.5-2.7,1-2.7c0.5,0,1,1.1,1,2.7s-0.5,2.7-1,2.7S92.2,61.4,92.2,59.8z M92,59.8  c0,1.7,0.6,3,1.3,3s1.3-1.3,1.3-3c0-1.7-0.6-3-1.3-3S92,58.1,92,59.8z"/><path fill="#000000" d="M83.6,56.8c0-2.1,0.8-3.8,1.8-3.8s1.8,1.8,1.8,3.8s-0.8,3.8-1.8,3.8S83.6,58.9,83.6,56.8z M86.5,60.6  c0.7-0.7,1.2-2.1,1.2-3.8s-0.5-3.1-1.2-3.8h0.9c1,0,1.8,1.8,1.8,3.8s-0.8,3.8-1.8,3.8H86.5z M83.1,56.8c0,2.4,1,4.3,2.3,4.3h2  c1.3,0,2.3-1.9,2.3-4.3s-1-4.3-2.3-4.3h-2C84.1,52.5,83.1,54.4,83.1,56.8z"/><path fill="#000000" d="M84.5,56.8c0-1.4,0.5-2.4,0.9-2.4c0.4,0,0.9,1,0.9,2.4s-0.5,2.4-0.9,2.4S84.5,58.2,84.5,56.8z M84.2,56.8  c0,1.5,0.5,2.7,1.2,2.7c0.6,0,1.2-1.2,1.2-2.7c0-1.5-0.5-2.7-1.2-2.7C84.7,54.1,84.2,55.3,84.2,56.8z"/><path fill="#000000" d="M76.3,53.9c0-1.8,0.7-3.4,1.6-3.4c0.9,0,1.6,1.5,1.6,3.4c0,1.8-0.7,3.4-1.6,3.4C77,57.2,76.3,55.7,76.3,53.9  z M78.8,57.2c0.6-0.6,1.1-1.9,1.1-3.4s-0.4-2.7-1.1-3.4h0.8c0.9,0,1.6,1.5,1.6,3.4c0,1.8-0.7,3.4-1.6,3.4H78.8z M75.8,53.9  c0,2.1,0.9,3.8,2,3.8h1.8c1.1,0,2-1.7,2-3.8s-0.9-3.8-2-3.8h-1.8C76.7,50.1,75.8,51.7,75.8,53.9z"/><path fill="#000000" d="M77,53.9c0-1.3,0.4-2.1,0.8-2.1c0.4,0,0.8,0.9,0.8,2.1S78.2,56,77.8,56S77,55.1,77,53.9z M76.8,53.9  c0,1.3,0.4,2.4,1,2.4s1-1,1-2.3c0-1.3-0.4-2.4-1-2.4S76.8,52.6,76.8,53.9z"/><text x="0" y="115" fill="#000000" font-size="5px" font-weight="bold" font-family="'Helvetica Neue', Helvetica, Arial-Unicode, Arial, Sans-serif">Created by Bas Screever</text><text x="0" y="120" fill="#000000" font-size="5px" font-weight="bold" font-family="'Helvetica Neue', Helvetica, Arial-Unicode, Arial, Sans-serif">from the Noun Project</text></svg>