<svg xmlns:dc="http://purl.org/dc/elements/1.1/" xmlns:cc="http://creativecommons.org/ns#" xmlns:rdf="http://www.w3.org/1999/02/22-rdf-syntax-ns#" xmlns:svg="http://www.w3.org/2000/svg" xmlns="http://www.w3.org/2000/svg" xmlns:sodipodi="http://sodipodi.sourceforge.net/DTD/sodipodi-0.dtd" xmlns:inkscape="http://www.inkscape.org/namespaces/inkscape" version="1.1" x="0px" y="0px" viewBox="0 0 100 125"><g transform="translate(0,-952.36217)"><g style="" transform="matrix(4.1691264,0,0,4.1691264,4400.0291,1049.6013)" fill="#000000" fill-opacity="1" stroke="none"><g transform="matrix(1.0601271,0,0,1.0601271,-990.04224,-1023.1249)"><g transform="matrix(0.72406155,0,0,0.72406155,188.84286,235.29874)"><g><path style="text-indent:0;text-transform:none;direction:ltr;block-progression:tb;baseline-shift:baseline;color:#000000;enable-background:accumulate;" d="M 11.40625 8.46875 L 11.40625 9.96875 L 11.40625 38.6875 L 11.40625 72.6875 L 11.40625 74.1875 L 12.90625 74.1875 L 37.03125 74.28125 L 37 89.875 L 37 91.375 L 38.5 91.375 L 58.59375 91.5 L 87.09375 91.5 L 88.59375 91.5 L 88.59375 90 L 88.59375 38.59375 L 88.59375 37.96875 L 88.1875 37.59375 L 76.8125 26.1875 L 76.40625 25.6875 L 75.8125 25.6875 L 63 25.6875 L 63 21.6875 L 63 21.09375 L 62.5 20.6875 L 51.1875 8.96875 L 50.8125 8.46875 L 50.09375 8.46875 L 12.90625 8.46875 L 11.40625 8.46875 z M 14.40625 11.46875 L 49.40625 11.46875 L 60 22.375 L 60 25.6875 L 38.59375 25.6875 L 37.09375 25.6875 L 37.09375 27.1875 L 37.09375 34.1875 L 18.59375 34.09375 L 18.5 37.09375 L 37.09375 37.1875 L 37.09375 45.6875 L 18.5 45.59375 L 18.5 48.59375 L 37.09375 48.6875 L 37.09375 55.875 L 37.09375 57.1875 L 18.59375 57.09375 L 18.5 60.09375 L 37.09375 60.1875 L 37.0625 71.28125 L 14.40625 71.1875 L 14.40625 38.6875 L 14.40625 11.46875 z M 18.59375 22.59375 L 18.5 25.59375 L 33.09375 25.6875 L 33.09375 22.6875 L 18.59375 22.59375 z M 40.09375 28.6875 L 74.1875 28.6875 L 74.1875 38.6875 L 74.1875 40.1875 L 75.6875 40.1875 L 85.59375 40.1875 L 85.59375 88.5 L 58.59375 88.5 L 40 88.375 L 40.09375 55.875 L 40.09375 28.6875 z M 77.1875 30.78125 L 83.59375 37.1875 L 77.1875 37.1875 L 77.1875 30.78125 z M 44.1875 39.78125 L 44.1875 42.78125 L 67.1875 42.875 L 67.1875 39.875 L 44.1875 39.78125 z M 44.1875 51.28125 L 44.1875 54.28125 L 78.5 54.375 L 78.5 51.375 L 44.1875 51.28125 z M 44.1875 62.78125 L 44.1875 65.78125 L 78.5 65.78125 L 78.5 62.78125 L 44.1875 62.78125 z M 44.1875 74.28125 L 44.1875 77.28125 L 78.5 77.28125 L 78.5 74.28125 L 44.1875 74.28125 z " transform="matrix(0.31247949,0,0,0.31247949,-345.9355,977.53696)" fill="#000000" fill-opacity="1" stroke="none" marker="none" visibility="visible" display="inline" overflow="visible"/></g></g></g></g></g><text x="0" y="115" fill="#000000" font-size="5px" font-weight="bold" font-family="'Helvetica Neue', Helvetica, Arial-Unicode, Arial, Sans-serif">Created by Chameleon Design</text><text x="0" y="120" fill="#000000" font-size="5px" font-weight="bold" font-family="'Helvetica Neue', Helvetica, Arial-Unicode, Arial, Sans-serif">from the Noun Project</text></svg>