<?xml version="1.0" encoding="UTF-8" standalone="no"?>
<svg
   xmlns:dc="http://purl.org/dc/elements/1.1/"
   xmlns:cc="http://creativecommons.org/ns#"
   xmlns:rdf="http://www.w3.org/1999/02/22-rdf-syntax-ns#"
   xmlns:svg="http://www.w3.org/2000/svg"
   xmlns="http://www.w3.org/2000/svg"
   xmlns:sodipodi="http://sodipodi.sourceforge.net/DTD/sodipodi-0.dtd"
   xmlns:inkscape="http://www.inkscape.org/namespaces/inkscape"
   version="1.1"
   x="0px"
   y="0px"
   viewBox="0 0 80 100"
   enable-background="new 0 0 80 80"
   xml:space="preserve"
   id="svg4136"
   inkscape:version="0.91 r13725"
   sodipodi:docname="DataCollection.svg"><metadata
     id="metadata4214"><rdf:RDF><cc:Work
         rdf:about=""><dc:format>image/svg+xml</dc:format><dc:type
           rdf:resource="http://purl.org/dc/dcmitype/StillImage" /></cc:Work></rdf:RDF></metadata><defs
     id="defs4212" /><sodipodi:namedview
     pagecolor="#ffffff"
     bordercolor="#666666"
     borderopacity="1"
     objecttolerance="10"
     gridtolerance="10"
     guidetolerance="10"
     inkscape:pageopacity="0"
     inkscape:pageshadow="2"
     inkscape:window-width="1920"
     inkscape:window-height="1138"
     id="namedview4210"
     showgrid="false"
     inkscape:zoom="9.63"
     inkscape:cx="40"
     inkscape:cy="45.370207"
     inkscape:window-x="1192"
     inkscape:window-y="144"
     inkscape:window-maximized="1"
     inkscape:current-layer="svg4136" /><g
     id="g4138"><g
       id="g4140"><path
         fill="#000000"
         d="M62,30H16c-1.654,0-3-1.346-3-3v-8c0-1.654,1.346-3,3-3h46c1.654,0,3,1.346,3,3v8    C65,28.654,63.654,30,62,30z M16,18c-0.551,0-1,0.449-1,1v8c0,0.551,0.449,1,1,1h46c0.551,0,1-0.449,1-1v-8c0-0.551-0.449-1-1-1    H16z"
         id="path4142" /></g><g
       id="g4144"><rect
         x="18"
         y="22"
         fill="#000000"
         width="2"
         height="2"
         id="rect4146" /></g><g
       id="g4148"><rect
         x="22"
         y="22"
         fill="#000000"
         width="2"
         height="2"
         id="rect4150" /></g><g
       id="g4152"><rect
         x="26"
         y="22"
         fill="#000000"
         width="2"
         height="2"
         id="rect4154" /></g></g><g
     id="g4156"><g
       id="g4158"><path
         fill="#000000"
         d="M62,46H16c-1.654,0-3-1.346-3-3v-8c0-1.654,1.346-3,3-3h46c1.654,0,3,1.346,3,3v8    C65,44.654,63.654,46,62,46z M16,34c-0.551,0-1,0.449-1,1v8c0,0.551,0.449,1,1,1h46c0.551,0,1-0.449,1-1v-8c0-0.551-0.449-1-1-1    H16z"
         id="path4160" /></g><g
       id="g4162"><rect
         x="18"
         y="38"
         fill="#000000"
         width="2"
         height="2"
         id="rect4164" /></g><g
       id="g4166"><rect
         x="22"
         y="38"
         fill="#000000"
         width="2"
         height="2"
         id="rect4168" /></g><g
       id="g4170"><rect
         x="26"
         y="38"
         fill="#000000"
         width="2"
         height="2"
         id="rect4172" /></g></g><g
     id="g4174"><g
       id="g4176"><path
         fill="#000000"
         d="M49,62H16c-1.654,0-3-1.346-3-3v-8c0-1.654,1.346-3,3-3h39v2H16c-0.551,0-1,0.449-1,1v8    c0,0.551,0.449,1,1,1h33V62z"
         id="path4178" /></g><g
       id="g4180"><rect
         x="18"
         y="54"
         fill="#000000"
         width="2"
         height="2"
         id="rect4182" /></g><g
       id="g4184"><rect
         x="22"
         y="54"
         fill="#000000"
         width="2"
         height="2"
         id="rect4186" /></g><g
       id="g4188"><rect
         x="26"
         y="54"
         fill="#000000"
         width="2"
         height="2"
         id="rect4190" /></g></g><g
     id="g4192"><g
       id="g4194"><path
         fill="#000000"
         d="M61,68c-4.962,0-9-4.038-9-9s4.038-9,9-9s9,4.038,9,9S65.962,68,61,68z M61,52c-3.86,0-7,3.14-7,7    s3.14,7,7,7s7-3.14,7-7S64.86,52,61,52z"
         id="path4196" /></g><g
       id="g4198"><rect
         x="60"
         y="55"
         fill="#000000"
         width="2"
         height="8"
         id="rect4200" /></g><g
       id="g4202"><polygon
         fill="#000000"
         points="63.293,58.707 61,56.414 58.707,58.707 57.293,57.293 61,53.586 64.707,57.293   "
         id="polygon4204" /></g></g></svg>