<svg xmlns="http://www.w3.org/2000/svg" xmlns:xlink="http://www.w3.org/1999/xlink" version="1.1" style="" xml:space="preserve" width="100" height="125"><rect id="backgroundrect" width="100%" height="100%" x="0" y="0" fill="none" stroke="none"/><g class="currentLayer" style=""><title>Layer 1</title><path d="M40,90c13.539,0,24.974-8.973,28.707-21.293C81.027,64.974,90,53.539,90,40c0-16.569-13.431-30-30-30  c-13.539,0-24.974,8.973-28.707,21.293C18.973,35.026,10,46.461,10,60C10,76.569,23.431,90,40,90z M60,20c11.028,0,20,8.972,20,20  c0,7.425-4.114,13.842-10.137,17.292c-1.291-14.405-12.751-25.865-27.156-27.156C46.158,24.114,52.575,20,60,20z M60,60  c-11.028,0-20-8.972-20-20C51.028,40,60,48.972,60,60z M30.137,42.708c1.291,14.405,12.751,25.865,27.156,27.156  C53.842,75.886,47.425,80,40,80c-11.028,0-20-8.972-20-20C20,52.575,24.114,46.158,30.137,42.708z" id="svg_1"/><path fill="#000000" fill-opacity="1" stroke="none" stroke-opacity="1" stroke-width="1" stroke-dasharray="none" stroke-linejoin="miter" stroke-linecap="butt" stroke-dashoffset="" fill-rule="nonzero" opacity="1" marker-start="" marker-mid="" marker-end="" d="M18.260663986206055,59.630367551020754 C18.260663986206055,47.32905957260027 27.600128173828125,37.365002460821415 39.130332946777344,37.365002460821415 C50.6605339050293,37.365002460821415 60,47.32905957260027 60,59.630367551020754 C60,71.93167154513321 50.6605339050293,81.89573264122009 39.130332946777344,81.89573264122009 C27.600128173828125,81.89573264122009 18.260663986206055,71.93167154513321 18.260663986206055,59.630367551020754 z" id="svg_4" class=""/><path fill="#000000" fill-opacity="1" stroke="none" stroke-opacity="1" stroke-width="1" stroke-dasharray="none" stroke-linejoin="miter" stroke-linecap="butt" stroke-dashoffset="" fill-rule="nonzero" opacity="1" marker-start="" marker-mid="" marker-end="" d="M29,59 C29,59 29.223756906077348,59 29.5,59 C29.776243093922652,59 30,59 30,59 C30,59 29.776243093922652,59 29.5,59 C29.223756906077348,59 29,59 29,59 Z" id="svg_6"/><rect fill="#ffffff" style="color: rgb(0, 0, 0);" stroke-dashoffset="" fill-rule="nonzero" id="svg_8" x="1" y="6" width="7" height="7"/><rect fill="#ffffff" stroke="#000000" style="color: rgb(0, 0, 0);" stroke-dashoffset="" fill-rule="nonzero" id="svg_10" x="-35.88341236114502" y="-33.12606430053711" width="28" height="27" class=""/><path fill="#eb1a1a" fill-opacity="1" stroke="#eb1a1a" stroke-opacity="1" stroke-width="6" stroke-dasharray="none" stroke-linejoin="miter" stroke-linecap="butt" stroke-dashoffset="" fill-rule="nonzero" opacity="1" marker-start="" marker-mid="" marker-end="" d="M1.2265398502349854,30.561136484146118L28.403790712356567,4.597155749797821" id="svg_12" class=""/><path fill="#eb1a1a" fill-opacity="1" stroke="#eb1a1a" stroke-opacity="1" stroke-width="6" stroke-dasharray="none" stroke-linejoin="miter" stroke-linecap="butt" stroke-dashoffset="" fill-rule="nonzero" opacity="1" marker-start="" marker-mid="" marker-end="" d="M1.2265398502349854,4.354501724243164L28.403790712356567,30.561136484146118" id="svg_14" class=""/></g></svg>