<svg xmlns:dc="http://purl.org/dc/elements/1.1/" xmlns:cc="http://creativecommons.org/ns#" xmlns:rdf="http://www.w3.org/1999/02/22-rdf-syntax-ns#" xmlns:svg="http://www.w3.org/2000/svg" xmlns="http://www.w3.org/2000/svg" xmlns:sodipodi="http://sodipodi.sourceforge.net/DTD/sodipodi-0.dtd" xmlns:inkscape="http://www.inkscape.org/namespaces/inkscape" viewBox="0 0 8.4666665 8.4666669" version="1.1" x="0px" y="0px"><g transform="translate(0,-288.53332)"><path d="m 4.2333322,294.22187 a 0.39687501,0.39687504 0 0 1 -0.396875,0.39687 0.39687501,0.39687504 0 0 1 -0.396875,-0.39687 0.39687501,0.39687504 0 0 1 0.396875,-0.39688 0.39687501,0.39687504 0 0 1 0.396875,0.39688 z" style="opacity:1;fill:#000000;fill-opacity:1;stroke:none;stroke-width:0.99999994;stroke-linecap:butt;stroke-linejoin:round;stroke-miterlimit:4;stroke-dasharray:none;stroke-opacity:1"></path><path d="m 2.8442697,294.22187 a 0.33072918,0.3307292 0 0 1 -0.3307292,0.33073 0.33072918,0.3307292 0 0 1 -0.3307292,-0.33073 0.33072918,0.3307292 0 0 1 0.3307292,-0.33073 0.33072918,0.3307292 0 0 1 0.3307292,0.33073 z" style="opacity:1;fill:#000000;fill-opacity:1;stroke:none;stroke-width:1;stroke-linecap:butt;stroke-linejoin:round;stroke-miterlimit:4;stroke-dasharray:none;stroke-opacity:1"></path><path d="m 1.5874988,294.22187 a 0.26458334,0.26458336 0 0 1 -0.2645833,0.26458 0.26458334,0.26458336 0 0 1 -0.2645834,-0.26458 0.26458334,0.26458336 0 0 1 0.2645834,-0.26459 0.26458334,0.26458336 0 0 1 0.2645833,0.26459 z" style="opacity:1;fill:#000000;fill-opacity:1;stroke:none;stroke-width:1;stroke-linecap:butt;stroke-linejoin:round;stroke-miterlimit:4;stroke-dasharray:none;stroke-opacity:1"></path><path d="m 5.6924348,294.75103 c 1.2399169,0 2.2450664,-0.88845 2.2450664,-1.98438 0,-1.09593 -1.0051495,-1.98437 -2.2450664,-1.98437 -1.2399142,0 -1.2399142,3.96875 0,3.96875 z" style="opacity:1;fill:#000000;fill-opacity:1;stroke:none;stroke-width:1;stroke-linecap:round;stroke-linejoin:miter;stroke-miterlimit:4;stroke-dasharray:none;stroke-opacity:1"></path><path d="m 4.2333322,291.31145 a 0.39687501,0.39687504 0 0 1 -0.396875,0.39687 0.39687501,0.39687504 0 0 1 -0.396875,-0.39687 0.39687501,0.39687504 0 0 1 0.396875,-0.39688 0.39687501,0.39687504 0 0 1 0.396875,0.39688 z" style="opacity:1;fill:#000000;fill-opacity:1;stroke:none;stroke-width:0.99999994;stroke-linecap:butt;stroke-linejoin:round;stroke-miterlimit:4;stroke-dasharray:none;stroke-opacity:1"></path><path d="m 2.8442697,291.31145 a 0.33072918,0.3307292 0 0 1 -0.3307292,0.33072 0.33072918,0.3307292 0 0 1 -0.3307292,-0.33072 0.33072918,0.3307292 0 0 1 0.3307292,-0.33073 0.33072918,0.3307292 0 0 1 0.3307292,0.33073 z" style="opacity:1;fill:#000000;fill-opacity:1;stroke:none;stroke-width:1;stroke-linecap:butt;stroke-linejoin:round;stroke-miterlimit:4;stroke-dasharray:none;stroke-opacity:1"></path><path d="m 1.5874988,291.31145 a 0.26458334,0.26458336 0 0 1 -0.2645833,0.26458 0.26458334,0.26458336 0 0 1 -0.2645834,-0.26458 0.26458334,0.26458336 0 0 1 0.2645834,-0.26459 0.26458334,0.26458336 0 0 1 0.2645833,0.26459 z" style="opacity:1;fill:#000000;fill-opacity:1;stroke:none;stroke-width:1;stroke-linecap:butt;stroke-linejoin:round;stroke-miterlimit:4;stroke-dasharray:none;stroke-opacity:1"></path><path d="m 2.3151028,292.76665 a 0.33072918,0.3307292 0 0 1 -0.3307292,0.33073 0.33072918,0.3307292 0 0 1 -0.3307292,-0.33073 0.33072918,0.3307292 0 0 1 0.3307292,-0.33073 0.33072918,0.3307292 0 0 1 0.3307292,0.33073 z" style="opacity:1;fill:#000000;fill-opacity:1;stroke:none;stroke-width:1;stroke-linecap:butt;stroke-linejoin:round;stroke-miterlimit:4;stroke-dasharray:none;stroke-opacity:1"></path><path d="m 1.0583319,292.76665 a 0.26458334,0.26458336 0 0 1 -0.26458333,0.26459 0.26458334,0.26458336 0 0 1 -0.26458335,-0.26459 0.26458334,0.26458336 0 0 1 0.26458335,-0.26458 0.26458334,0.26458336 0 0 1 0.26458333,0.26458 z" style="opacity:1;fill:#000000;fill-opacity:1;stroke:none;stroke-width:1;stroke-linecap:butt;stroke-linejoin:round;stroke-miterlimit:4;stroke-dasharray:none;stroke-opacity:1"></path><path d="m 3.7041653,292.76665 a 0.39687501,0.39687504 0 0 1 -0.396875,0.39688 0.39687501,0.39687504 0 0 1 -0.396875,-0.39688 0.39687501,0.39687504 0 0 1 0.396875,-0.39687 0.39687501,0.39687504 0 0 1 0.396875,0.39687 z" style="opacity:1;fill:#000000;fill-opacity:1;stroke:none;stroke-width:0.99999994;stroke-linecap:butt;stroke-linejoin:round;stroke-miterlimit:4;stroke-dasharray:none;stroke-opacity:1"></path></g></svg>