<svg xmlns="http://www.w3.org/2000/svg" xmlns:xlink="http://www.w3.org/1999/xlink" version="1.1" x="0px" y="0px" viewBox="0 0 100 100" enable-background="new 0 0 100 100" xml:space="preserve" width="100%" height="100%" ><rect id="svgEditorBackground" x="0" y="0" width="100" height="100" style="fill: none; stroke: none;"/><path fill-rule="evenodd" clip-rule="evenodd" d="M50.5,80.5c-16.56800079345703,0,-30,-13.431999206542969,-30,-30c0,-16.569000244140625,13.431999206542969,-30,30,-30s30,13.430999755859375,30,30c0,16.56800079345703,-13.431999206542969,30,-30,30ZM50.5,24.5c-14.359001159667969,0,-26,11.640998840332031,-26,26s11.640998840332031,26,26,26s26,-11.640998840332031,26,-26s-11.640998840332031,-26,-26,-26ZM50.5,72.5c-12.150001525878906,0,-22,-9.849998474121094,-22,-22h22c0,-9.560001373291016,0,-18.913999557495117,0,-22c12.150001525878906,0,22,9.849998474121094,22,22s-9.849998474121094,22,-22,22Z" transform="matrix(1.58406, 0, 0, 1.58406, -29.7218, -29.7218)"/></svg>