<svg xmlns="http://www.w3.org/2000/svg" xmlns:xlink="http://www.w3.org/1999/xlink" version="1.0" x="0px" y="0px" viewBox="0 -0.01546015722826699 75.54499816894531 125.03092031445654" overflow="visible" enable-background="new 0 0 75.545 100" xml:space="preserve"  width="100%" height="100%"><defs id="svgEditorDefs"><path id="svgEditorClosePathDefs" stroke="black" style="stroke-width: 1px; vector-effect: non-scaling-stroke;" fill="khaki"/></defs><rect id="svgEditorBackground" x="0" y="0" width="75.545" height="125" style="fill: none; stroke: none;"/><path d="M19.93914222717285,44.337608337402344c-1.9143733978271484,2.6532211303710938,-5.1815996170043945,8.370868682861328,-5.988325119018555,11.450206756591797s-0.7409639358520508,9.793575286865234,-0.06580638885498047,12.89792251586914s4.312369346618652,8.573326110839844,6.3831586837768555,10.857948303222656s7.99683952331543,5.544853210449219,10.989559173583984,6.448966979980469s9.754135131835938,0.7780990600585938,12.832122802734375,0.06580352783203125s8.562156677246094,-4.25787353515625,10.98956298828125,-6.25152587890625s5.156742095947266,-7.0748443603515625,6.514766693115234,-11.055389404296875s1.77069091796875,-10.37322998046875,0.1316070556640625,-13.226951599121094s-17.919815063476562,7.122905731201172,-23.821678161621094,5.527683258056641s-13.28232192993164,-17.666419982910156,-17.964967727661133,-16.714664459228516Z" style="stroke-width: 1px; vector-effect: non-scaling-stroke; stroke: none;" id="e12_areaS3" fill="yellow"/><path d="M32.323,41.905c0.99-0.266,1.575-1.278,1.309-2.263c-0.266-0.99-1.278-1.57-2.259-1.309 c-0.99,0.266-1.574,1.278-1.309,2.263C30.326,41.583,31.338,42.171,32.323,41.905z"/><path d="M43.21799850463867,41.904998779296875c0.9850006103515625,0.26599884033203125,1.9980010986328125,-0.3230018615722656,2.26300048828125,-1.3089981079101562c0.2680015563964844,-0.9850006103515625,-0.3209991455078125,-1.9980010986328125,-1.3069992065429688,-2.26300048828125c-0.9819984436035156,-0.26200103759765625,-1.9980010986328125,0.31800079345703125,-2.2649993896484375,1.3040008544921875c-0.2610015869140625,0.9899978637695312,0.3240013122558594,2.0019989013671875,1.3089981079101562,2.2679977416992188Z"/><path d="M52.648,44.736c-0.721,0.725-0.721,1.889,0,2.612c0.725,0.725,1.893,0.725,2.616,0c0.716-0.724,0.716-1.888,0-2.612 C54.541,44.012,53.373,44.012,52.648,44.736z"/><path d="M60.355,58.09c0.99-0.263,1.574-1.282,1.309-2.263c-0.263-0.985-1.273-1.572-2.26-1.31 c-0.99,0.267-1.57,1.278-1.312,2.267C58.362,57.773,59.373,58.35,60.355,58.09z"/><path d="M60.359,66.365c-0.986-0.262-1.997,0.322-2.268,1.309c-0.258,0.987,0.322,1.998,1.312,2.264 c0.986,0.266,1.997-0.318,2.26-1.31C61.929,67.648,61.345,66.63,60.359,66.365z"/><path d="M52.648,77.109c-0.721,0.718-0.721,1.891,0,2.611c0.725,0.724,1.893,0.724,2.616,0c0.716-0.721,0.716-1.894,0-2.611 C54.541,76.383,53.373,76.383,52.648,77.109z"/><path d="M43.218,82.554c-0.985,0.261-1.57,1.274-1.309,2.259c0.267,0.991,1.273,1.57,2.265,1.31 c0.985-0.263,1.574-1.276,1.307-2.264C45.216,82.875,44.204,82.289,43.218,82.554z"/><path d="M32.323,82.554c-0.985-0.266-1.997,0.32-2.259,1.305c-0.266,0.987,0.319,2.001,1.309,2.264 c0.981,0.261,1.994-0.325,2.259-1.31C33.898,83.829,33.313,82.815,32.323,82.554z"/><path d="M20.2810001373291,77.10900115966797c-0.7240009307861328,0.7180023193359375,-0.7240009307861328,1.8909988403320312,0,2.6110000610351562c0.7189998626708984,0.7239990234375,1.8889999389648438,0.7239990234375,2.61199951171875,0c0.7199993133544922,-0.7210006713867188,0.7199993133544922,-1.8939971923828125,0,-2.6110000610351562c-0.7229995727539062,-0.7259979248046875,-1.8929996490478516,-0.7259979248046875,-2.61199951171875,0Z"/><path d="M15.187,66.369c-0.986,0.262-1.575,1.273-1.309,2.259c0.266,0.991,1.278,1.57,2.264,1.31 c0.986-0.266,1.57-1.276,1.309-2.264C17.184,66.687,16.173,66.103,15.187,66.369z"/><path d="M15.187,58.09c0.986,0.26,1.997-0.317,2.264-1.306c0.261-0.988-0.323-2-1.309-2.267 c-0.986-0.263-1.998,0.324-2.264,1.31C13.612,56.808,14.201,57.828,15.187,58.09z"/><path d="M41.30400085449219,58.696998596191406c-0.2239990234375,-0.21799850463867188,-0.4589996337890625,-0.404998779296875,-0.7060012817382812,-0.5730018615722656l0.020999908447265625,-0.02899932861328125l-17.725000381469727,-13.358997344970703c-0.7240009307861328,-0.7239990234375,-1.8929996490478516,-0.7239990234375,-2.61199951171875,0c-0.7240009307861328,0.7249984741210938,-0.7240009307861328,1.8889999389648438,0,2.61199951171875l13.357999801635742,17.725997924804688l0.0260009765625,-0.0240020751953125c0.1699981689453125,0.25099945068359375,0.358001708984375,0.48600006103515625,0.5760002136230469,0.7060012817382812c1.9490013122558594,1.947998046875,5.1100006103515625,1.947998046875,7.062000274658203,0c1.9399986267089844,-1.9469985961914062,1.9399986267089844,-5.109996795654297,0,-7.058998107910156Z" stroke="black"/><path d="M66.70899963378906,37.94900131225586l1.8610000610351562,-1.86199951171875l0.6460037231445312,0.6459999084472656c0.5419998168945312,0.5410003662109375,1.4189987182617188,0.5410003662109375,1.9550018310546875,0l2.4420013427734375,-2.437999725341797c0.5360031127929688,-0.5410003662109375,0.5360031127929688,-1.4169998168945312,0,-1.9539985656738281l-0.01300811767578125,-0.014003753662109375l-5.8130035400390625,-5.812999725341797h-0.003997802734375c-0.5370025634765625,-0.5410003662109375,-1.4130020141601562,-0.5410003662109375,-1.9540023803710938,0l-2.437999725341797,2.437999725341797c-0.5410003662109375,0.5410003662109375,-0.5410003662109375,1.4139995574951172,0,1.954000473022461l0.6329994201660156,0.6319999694824219l-1.8540000915527344,1.8539981842041016c-4.369998931884766,-3.6989994049072266,-9.586002349853516,-6.424999237060547,-15.320999145507812,-7.83799934387207c3.2449989318847656,-2.635000228881836,5.315998077392578,-6.650999069213867,5.315998077392578,-11.161999702453613c-0.0009918212890625,-7.9499993324279785,-6.4429931640625,-14.391999244689941,-14.393993377685547,-14.391999244689941c-7.947000503540039,0,-14.392999649047852,6.441999912261963,-14.392999649047852,14.392999649047852c0,4.510000228881836,2.076000213623047,8.527000427246094,5.315999984741211,11.16200065612793c-5.729999542236328,1.4130001068115234,-10.946998596191406,4.138999938964844,-15.317000389099121,7.838001251220703l-1.8540000915527344,-1.8540000915527344l0.6280002593994141,-0.6319999694824219c0.5369997024536133,-0.5410003662109375,0.5369997024536133,-1.4130001068115234,0,-1.954000473022461l-2.442000389099121,-2.437999725341797c-0.5369997024536133,-0.5410003662109375,-1.4090003967285156,-0.5410003662109375,-1.9499998092651367,0l0,0l-5.814000129699707,5.81300163269043l-0.007999658584594727,0.011997222900390625c-0.5450000762939453,0.5369987487792969,-0.5450000762939453,1.4129981994628906,0,1.9539985656738281l2.434000253677368,2.437999725341797c0.5409998893737793,0.5410003662109375,1.4180002212524414,0.5410003662109375,1.9539999961853027,0l0.6500000953674316,-0.6459999084472656l1.8629999160766602,1.86199951171875c-5.514000415802002,6.570003509521484,-8.838000297546387,15.037002563476562,-8.838000297546387,24.278003692626953c0,20.865001678466797,16.90999984741211,37.77399826049805,37.770999908447266,37.77399826049805c20.860000610351562,0,37.77399826049805,-16.90899658203125,37.77399826049805,-37.77399826049805c0,-9.24100112915039,-3.3180007934570312,-17.70800018310547,-8.83599853515625,-24.277000427246094ZM28.097000122070312,14.392999649047852c0,-5.3420000076293945,4.331001281738281,-9.673999786376953,9.673999786376953,-9.673999786376953c5.342998504638672,0,9.678001403808594,4.331999778747559,9.678001403808594,9.673999786376953c0,4.187999725341797,-2.6650009155273438,7.75,-6.380001068115234,9.099000930786133v-6.180999755859375h0.9109992980957031c0.76300048828125,0,1.3819999694824219,-0.6189994812011719,1.3819999694824219,-1.3819999694824219v-3.4499998092651367c0,-0.7639999389648438,-0.6189994812011719,-1.3819999694824219,-1.3819999694824219,-1.3819999694824219h-0.018001556396484375h-8.216999053955078h-0.004001617431640625c-0.76300048828125,0,-1.3819999694824219,0.6190004348754883,-1.3819999694824219,1.3819999694824219v3.4499998092651367c0,0.76300048828125,0.6189994812011719,1.3819999694824219,1.3819999694824219,1.3819999694824219h0.8899993896484375v6.232999801635742c-3.7989959716796875,-1.3050003051757812,-6.53399658203125,-4.907001495361328,-6.53399658203125,-9.1510009765625ZM37.770999908447266,90.7770004272461c-15.718999862670898,0,-28.458999633789062,-12.743003845214844,-28.458999633789062,-28.464000701904297c0,-15.714000701904297,12.739999771118164,-28.458999633789062,28.458999633789062,-28.458999633789062c15.71500015258789,0,28.458003997802734,12.744998931884766,28.458003997802734,28.458999633789062c-0.00000762939453125,15.720996856689453,-12.743003845214844,28.464000701904297,-28.458003997802734,28.464000701904297Z"/><path d="M41.1735,58.4684 c-0.223999,-0.217999 -0.459,-0.404999 -0.706001,-0.573002 l0.0209999,-0.0289993 l-17.725,-13.359 c-0.724001,-0.723999 -1.893,-0.723999 -2.612,0 c-0.724001,0.724998 -0.724001,1.889 0,2.612 l13.358,17.726 l0.026001,-0.0240021 c0.169998,0.250999 0.358002,0.486 0.576,0.706001 c1.949,1.948 5.11,1.948 7.062,0 c1.94,-1.947 1.94,-5.11 0,-7.059 z" id="e10_path" transform="matrix(-0.495618, 0.868541, -0.868541, -0.495618, 110.516, 60.2533)"/></svg>