<?xml version="1.0" encoding="UTF-8" standalone="no"?>
<svg
   xmlns:dc="http://purl.org/dc/elements/1.1/"
   xmlns:cc="http://creativecommons.org/ns#"
   xmlns:rdf="http://www.w3.org/1999/02/22-rdf-syntax-ns#"
   xmlns:svg="http://www.w3.org/2000/svg"
   xmlns="http://www.w3.org/2000/svg"
   xmlns:sodipodi="http://sodipodi.sourceforge.net/DTD/sodipodi-0.dtd"
   xmlns:inkscape="http://www.inkscape.org/namespaces/inkscape"
   version="1.1"
   x="0px"
   y="0px"
   viewBox="0 0 94.264028 89.24275"
   enable-background="new 0 0 100 100"
   xml:space="preserve"
   id="svg3000"
   inkscape:version="0.48.4 r9939"
   width="100%"
   height="100%"
   sodipodi:docname="DUTIcon.svg"><metadata
     id="metadata3014"><rdf:RDF><cc:Work
         rdf:about=""><dc:format>image/svg+xml</dc:format><dc:type
           rdf:resource="http://purl.org/dc/dcmitype/StillImage" /></cc:Work></rdf:RDF></metadata><defs
     id="defs3012" /><sodipodi:namedview
     pagecolor="#ffffff"
     bordercolor="#666666"
     borderopacity="1"
     objecttolerance="10"
     gridtolerance="10"
     guidetolerance="10"
     inkscape:pageopacity="0"
     inkscape:pageshadow="2"
     inkscape:window-width="640"
     inkscape:window-height="480"
     id="namedview3010"
     showgrid="false"
     fit-margin-top="3"
     fit-margin-left="3"
     fit-margin-bottom="3"
     fit-margin-right="3"
     inkscape:zoom="1.888"
     inkscape:cx="24.295417"
     inkscape:cy="36.289463"
     inkscape:window-x="542"
     inkscape:window-y="229"
     inkscape:window-maximized="0"
     inkscape:current-layer="svg3000" /><line
     stroke-miterlimit="2.4142"
     x1="47.132099"
     y1="44.62175"
     x2="47.132099"
     y2="44.62175"
     id="line3002"
     style="fill:none;stroke:#000000;stroke-width:2.4776001;stroke-linejoin:bevel;stroke-miterlimit:2.41420007" /><path
     d="m 90.6951,46.21775 c -0.045,-0.026 -0.095,-0.034 -0.143,-0.054 -1.494,-1.111 -10.35,-7.496 -21.79,-11.877 1.866,-11.13 1.705,-20.745 1.619,-23.274 0.132,-0.187 0.213,-0.412 0.213,-0.654 0,-0.509 -0.338,-0.956 -0.828,-1.096 l -21.88,-6.22 c -0.204,-0.057 -0.419,-0.057 -0.623,0 l -21.88,6.22 c -0.411,0.117 -0.701,0.454 -0.789,0.859 l -0.145,0.097 c -0.062,0.5 -1.463,12.109 0.664,25.122 -11.153,4.187 -19.6980003,9.471 -21.1930003,10.42 -0.121,0.024 -0.24,0.067 -0.352,0.131 -0.44,0.255 -0.657,0.77 -0.534,1.263 l 5.517,22.036 c 0.052,0.207 0.161,0.396 0.315,0.544 L 25.2581,85.50675 c 0.218,0.21 0.502,0.319 0.79,0.319 0.195,0 0.392,-0.05 0.571,-0.154 0.036,-0.021 0.061,-0.053 0.094,-0.078 1.82,-0.791 11.704,-5.26 21.143,-12.931 8.711,7.179 17.15,11.836 19.445,13.05 0.096,0.149 0.215,0.284 0.375,0.377 0.178,0.102 0.374,0.153 0.569,0.153 0.289,0 0.576,-0.11 0.794,-0.321 l 16.326,-15.84 c 0.152,-0.148 0.26,-0.335 0.311,-0.54 l 5.553,-22.059 c 0.125,-0.494 -0.093,-1.01 -0.534,-1.265 z m -43.12,-40.893 17.714,5.035 -17.663,5.022 -9.995,-2.813 -7.769,-2.209 17.713,-5.035 z m -20.997,6.501 10.393,2.925 9.329,2.652 c -0.091,1.02 -0.211,2.893 -0.169,5.296 -0.062,1.142 -0.135,2.241 -0.219,3.074 -0.146,1.433 -0.34,2.753 -0.5,3.729 -0.05,0.275 -0.094,0.544 -0.149,0.824 -6.2,0.638 -12.361,2.261 -17.969,4.228 -1.581,-10.042 -1.012,-19.365 -0.716,-22.728 z m -15.897,56.493 -4.4740003,-17.871 13.1810003,12.684 4.507,17.902 -13.214,-12.715 z m 21.375,-14.482 c -3.563,3.028 -7.151,5.164 -9.468,6.398 -0.847,0.445 -1.507,0.761 -1.93,0.956 L 6.0440997,47.12975 c 2.975,-1.797 11.7110003,-6.813 22.3170003,-10.513 0.055,-0.019 0.109,-0.038 0.165,-0.058 0.438,-0.152 0.881,-0.3 1.325,-0.447 4.103,-1.351 9.323,-2.745 14.84,-3.406 -0.952,3.968 -2.155,7.334 -3.663,10.249 -2.294,4.436 -5.621,8.057 -8.948,10.885 l -0.024,-0.003 z m 2.956,2.018 c -0.159,-0.226 -0.314,-0.432 -0.468,-0.637 -0.066,-0.098 -0.134,-0.198 -0.196,-0.292 0.852,-0.758 1.7,-1.566 2.528,-2.428 2.571,-2.65 4.577,-5.378 6.072,-8.266 2.044,-3.946 3.365,-8.085 4.217,-11.884 0.868,4.256 2.412,8.859 5.095,13.051 6.634,10.364 17.128,16.615 20.199,18.294 l -4.922,19.551 c -3.099,-1.71 -10.991,-6.318 -18.928,-12.96 l 0.02,-0.024 c -5.64,-4.719 -10.222,-9.567 -13.617,-14.405 z m 38.586,5.75 c -1.576,-0.961 -5.221,-3.21 -7.068,-4.552 -1.534,-1.115 -2.803,-2.242 -3.502,-2.891 2.542,-5.662 4.219,-11.777 5.325,-17.593 9.452,3.684 17.203,8.845 19.954,10.787 l -14.709,14.249 z"
     id="path3004"
     inkscape:connector-curvature="0" /></svg>