<svg xmlns="http://www.w3.org/2000/svg" xmlns:xlink="http://www.w3.org/1999/xlink" version="1.1" x="0px" y="0px" viewBox="0 0 100 100" style="enable-background:new 0 0 100 100;" xml:space="preserve"><path d="M44.4,3.7C22.8,3.7,5.2,21.3,5.2,42.9c0,21.6,17.6,39.2,39.2,39.2c7,0,14-1.9,20.1-5.6l1.5-0.9l18,18  c1.2,1.2,2.8,1.8,4.4,1.8c1.7,0,3.3-0.7,4.4-1.8c1.2-1.2,1.8-2.8,1.8-4.4c0-1.7-0.7-3.3-1.8-4.4L75.4,67.2l1.6-2.3  c4.4-6.5,6.7-14.1,6.7-21.9C83.7,21.3,66.1,3.7,44.4,3.7z M44.4,71.5c-15.8,0-28.6-12.8-28.6-28.6c0-15.8,12.8-28.6,28.6-28.6  C60.2,14.4,73,27.2,73,42.9C73,58.7,60.2,71.5,44.4,71.5z"></path><path d="M63.8,50.6L48.3,26.4c-0.8-1.3-2.2-2.1-3.8-2.1c-1.5,0-2.9,0.8-3.8,2.1L25.2,50.6c-0.9,1.4-0.9,3.1-0.2,4.6  c0.8,1.4,2.3,2.3,3.9,2.3h31c1.6,0,3.1-0.9,3.9-2.3c0.4-0.7,0.5-1.4,0.5-2.1C64.5,52.2,64.2,51.3,63.8,50.6z M46.1,50.7h-3.2v-2.8  h3.2V50.7z M46.1,45.5h-3.2V35.1h3.2V45.5z"></path></svg>