<svg xmlns="http://www.w3.org/2000/svg" xmlns:xlink="http://www.w3.org/1999/xlink" version="1.1" x="0px" y="0px" viewBox="146.584 113.584 90 90" enable-background="new 146.584 113.584 90 90" xml:space="preserve"><path d="M226.315,136.191c-0.608-1.031-1.277-1.994-2.002-2.896l2.074-3.783l-0.245-0.263c-1.82-1.968-3.885-3.635-6.115-4.991  l-0.323-0.197l-3.079,2.914c-1.686-0.884-3.469-1.563-5.307-2.031l-0.551-4.252l-0.341-0.064c-2.553-0.464-5.166-0.589-7.771-0.352  l-0.365,0.038l-0.784,4.169c-1.932,0.307-3.844,0.848-5.704,1.639l-2.93-3.097l-0.323,0.162c-0.563,0.281-1.128,0.58-1.682,0.907  c-1.712,1.009-3.275,2.173-4.693,3.457l-0.274,0.244l1.83,3.857c-1.382,1.438-2.567,3.029-3.549,4.722l-4.166-0.787l-0.164,0.336  c-1.157,2.341-1.994,4.829-2.479,7.382l-0.064,0.352l3.771,2.059c-0.224,1.843-0.232,3.733-0.021,5.603l-3.824,1.814l0.069,0.361  c0.444,2.567,1.261,5.11,2.456,7.548l0.151,0.311l4.281-0.554c0.028,0.057,0.062,0.112,0.097,0.172  c0.855,1.452,1.852,2.787,2.939,3.99l-2.032,3.712l0.263,0.264c1.966,1.917,4.163,3.511,6.535,4.766l0.307,0.162l3.151-2.967  c1.438,0.627,2.936,1.128,4.472,1.473l0.546,4.225l0.359,0.062c2.694,0.426,5.46,0.476,8.207,0.111l0.347-0.046l0.801-4.242  c1.438-0.288,2.879-0.724,4.274-1.293l2.938,3.112l0.327-0.165c0.668-0.322,1.349-0.672,2.02-1.068  c1.754-1.033,3.351-2.232,4.796-3.557l0.267-0.248l-1.832-3.866c1.043-1.097,1.971-2.279,2.787-3.532l4.231,0.796l0.171-0.308  c1.336-2.416,2.303-4.993,2.892-7.66l0.087-0.358l-3.729-2.037c0.248-1.573,0.328-3.182,0.259-4.787l3.911-1.851l-0.044-0.354  c-0.302-2.624-0.985-5.254-2.055-7.79l-0.152-0.344l-4.199,0.546C226.882,137.207,226.612,136.696,226.315,136.191z   M217.051,141.653c3.828,6.492,1.668,14.846-4.814,18.681c-6.5,3.819-14.846,1.66-18.683-4.826  c-3.818-6.494-1.665-14.832,4.823-18.682C204.876,133.019,213.225,135.164,217.051,141.653z"></path><path d="M187.344,173.269l-0.089-0.316l-2.95-0.02c-0.415-1.219-0.975-2.394-1.646-3.483l1.771-2.415l-0.183-0.252  c-1.06-1.468-2.325-2.792-3.752-3.929l-0.257-0.207l-2.409,1.726c-1.085-0.76-2.289-1.387-3.564-1.884l0.018-2.968l-0.303-0.095  c-0.428-0.126-0.85-0.249-1.297-0.356c-1.348-0.32-2.701-0.482-4.039-0.526l-0.328-0.005l-0.938,2.824  c-1.346,0.063-2.681,0.284-3.954,0.648l-1.716-2.406l-0.313,0.115c-1.72,0.618-3.346,1.471-4.832,2.533l-0.253,0.184l0.906,2.856  c-0.97,0.807-1.858,1.714-2.636,2.733l-2.805-0.933l-0.176,0.279c-1.016,1.512-1.837,3.187-2.413,4.993l-0.089,0.295l2.423,1.783  c-0.013,0.026-0.018,0.054-0.022,0.074c-0.271,1.137-0.409,2.261-0.449,3.379l-2.819,0.891l0.013,0.324  c0.07,1.924,0.408,3.798,0.998,5.578l0.099,0.296l3.021,0.02c0.41,0.979,0.903,1.917,1.486,2.812l-1.763,2.39l0.195,0.257  c1.162,1.52,2.525,2.888,4.094,4.022l0.254,0.185l2.441-1.745c0.84,0.526,1.74,0.98,2.684,1.356l-0.021,2.99l0.302,0.097  c0.503,0.156,1.016,0.306,1.541,0.432c1.391,0.326,2.777,0.498,4.15,0.526l0.316,0.006l0.941-2.83  c1.021-0.046,2.023-0.192,3.002-0.418l1.751,2.442l0.303-0.097c1.832-0.567,3.575-1.406,5.164-2.472l0.267-0.181l-0.89-2.824  c0.85-0.659,1.644-1.396,2.364-2.209l2.857,0.948l0.189-0.25c1.122-1.465,2.051-3.126,2.732-4.925l0.119-0.312l-2.377-1.747  c0.114-0.364,0.208-0.731,0.299-1.103c0.188-0.801,0.316-1.595,0.387-2.379l2.869-0.913v-0.311c0-0.114,0.007-0.227,0.007-0.346  C188.022,176.66,187.79,174.928,187.344,173.269z M173.251,178.43c0,0.393-0.042,0.784-0.136,1.181  c-0.559,2.354-2.659,3.948-4.979,3.948c-0.392,0-0.779-0.049-1.176-0.145c-2.36-0.546-3.942-2.651-3.942-4.973  c0-0.386,0.04-0.778,0.13-1.176c0.553-2.357,2.655-3.947,4.984-3.947c0.38,0,0.776,0.043,1.176,0.138  C171.656,174.005,173.251,176.114,173.251,178.43z"></path><path d="M203.392,157.761c-0.516,0-1.03-0.196-1.424-0.59c-0.787-0.786-0.787-2.062,0-2.848l5.737-5.738l-5.737-5.737  c-0.787-0.786-0.787-2.062,0-2.848c0.785-0.787,2.063-0.787,2.848,0l8.585,8.585l-8.585,8.586  C204.423,157.564,203.907,157.761,203.392,157.761z"></path></svg>