<svg xmlns="http://www.w3.org/2000/svg" xmlns:xlink="http://www.w3.org/1999/xlink" version="1.1" x="0px" y="0px" viewBox="0 0 100 100" enable-background="new 0 0 100 100" xml:space="preserve"><path d="M50,38c-1.9,0-3.6,0.4-5.2,1.2c0.7,0.7,1.2,1.7,1.2,2.8c0,2.2-1.8,4-4,4c-1.1,0-2.1-0.4-2.8-1.2C38.4,46.4,38,48.1,38,50  c0,6.6,5.4,12,12,12s12-5.4,12-12C62,43.4,56.6,38,50,38z"></path><path d="M50,26.5c-16.1,0-31.2,8.7-39.3,22.8L10.3,50l0.4,0.8c8.1,14,23.2,22.8,39.3,22.8s31.2-8.7,39.3-22.8l0.4-0.8l-0.4-0.8  C81.2,35.2,66.1,26.5,50,26.5z M13.7,50c6.1-10,16-17,27.3-19.5C33.6,33.9,28.5,41.4,28.5,50S33.6,66.1,41,69.5  C29.8,67,19.8,60,13.7,50z M31.5,50c0-10.2,8.3-18.5,18.5-18.5S68.5,39.8,68.5,50S60.2,68.5,50,68.5S31.5,60.2,31.5,50z M59,69.5  c7.4-3.4,12.5-10.9,12.5-19.5S66.4,33.9,59,30.5C70.2,33,80.2,40,86.3,50C80.2,60,70.2,67,59,69.5z"></path></svg>