<?xml version="1.0" encoding="UTF-8" standalone="no"?>
<svg
   xmlns:dc="http://purl.org/dc/elements/1.1/"
   xmlns:cc="http://creativecommons.org/ns#"
   xmlns:rdf="http://www.w3.org/1999/02/22-rdf-syntax-ns#"
   xmlns:svg="http://www.w3.org/2000/svg"
   xmlns="http://www.w3.org/2000/svg"
   xmlns:sodipodi="http://sodipodi.sourceforge.net/DTD/sodipodi-0.dtd"
   xmlns:inkscape="http://www.inkscape.org/namespaces/inkscape"
   version="1.1"
   x="0px"
   y="0px"
   viewBox="0 0 100 125"
   id="svg4216"
   inkscape:version="0.91 r13725"
   sodipodi:docname="file.svg">
  <metadata
     id="metadata4230">
    <rdf:RDF>
      <cc:Work
         rdf:about="">
        <dc:format>image/svg+xml</dc:format>
        <dc:type
           rdf:resource="http://purl.org/dc/dcmitype/StillImage" />
      </cc:Work>
    </rdf:RDF>
  </metadata>
  <defs
     id="defs4228" />
  <sodipodi:namedview
     pagecolor="#ffffff"
     bordercolor="#666666"
     borderopacity="1"
     objecttolerance="10"
     gridtolerance="10"
     guidetolerance="10"
     inkscape:pageopacity="0"
     inkscape:pageshadow="2"
     inkscape:window-width="701"
     inkscape:window-height="480"
     id="namedview4226"
     showgrid="false"
     inkscape:zoom="1.888"
     inkscape:cx="50"
     inkscape:cy="62.5"
     inkscape:window-x="1597"
     inkscape:window-y="250"
     inkscape:window-maximized="0"
     inkscape:current-layer="svg4216" />
  <g
     transform="translate(0,-952.36218)"
     id="g4218">
    <path
       d="m 55.34608,969.15704 a 1.0001,1.0001 0 0 0 -0.094,0.031 l -23,0 c -2.2132,0 -4.0312,1.8178 -4.0312,4.0312 l 0,48.40626 c 0,2.2149 1.8187,4.0313 4.0312,4.0313 l 19.1563,0 c 2.0191,4.0716 6.2164,6.875 11.0625,6.875 6.8086,0 12.3438,-5.5353 12.3438,-12.3437 0,-3.4685 -1.4407,-6.6231 -3.75,-8.8751 l 0,-27.06256 a 1.0001,1.0001 0 0 0 0,-0.062 1.0001,1.0001 0 0 0 0,-0.031 1.0001,1.0001 0 0 0 0,-0.062 1.0001,1.0001 0 0 0 -0.031,-0.1562 1.0001,1.0001 0 0 0 0,-0.031 1.0001,1.0001 0 0 0 -0.031,-0.062 1.0001,1.0001 0 0 0 0,-0.062 1.0001,1.0001 0 0 0 -0.031,-0.031 1.0001,1.0001 0 0 0 -0.031,-0.031 1.0001,1.0001 0 0 0 -0.031,-0.031 1.0001,1.0001 0 0 0 -0.125,-0.1876 1.0001,1.0001 0 0 0 0,-0.031 1.0001,1.0001 0 0 0 -0.031,0 1.0001,1.0001 0 0 0 0,-0.031 l -7.4374,-7.125 -7.125,-6.875 a 1.0001,1.0001 0 0 0 -0.031,0 1.0001,1.0001 0 0 0 -0.125,-0.125 1.0001,1.0001 0 0 0 -0.031,0 1.0001,1.0001 0 0 0 -0.5624,-0.1563 1.0001,1.0001 0 0 0 -0.094,0 z m -23.0938,2.0313 22.2188,0 0,9.9687 c 0,2.2116 1.8208,4.0313 4.0312,4.0313 l 10.5626,0 0,24.56236 c -1.9092,-1.2165 -4.1692,-1.9374 -6.5938,-1.9374 -2.9787,0 -5.7093,1.0749 -7.8438,2.8437 -0.3107,0.2575 -0.5908,0.5263 -0.875,0.8125 -0.2735,0.2755 -0.5656,0.5437 -0.8124,0.8438 0,0.01 0,0.025 0,0.031 -1.7524,2.1382 -2.8126,4.8742 -2.8126,7.8439 0,0.3621 0.022,0.7153 0.063,1.0624 0.01,0.062 -0.01,0.1255 0,0.1876 0.024,0.1783 0.061,0.3559 0.094,0.5312 0.084,0.5764 0.1828,1.1396 0.3437,1.6875 l -18.375,0 c -1.1273,0 -2.0312,-0.9018 -2.0312,-2.0313 l 0,-48.40626 c 0,-1.1266 0.9046,-2.0312 2.0312,-2.0312 z m 24.2188,1.3437 11.0625,10.5937 0.062,0.063 -9.0938,0 c -1.1293,0 -2.0312,-0.9009 -2.0312,-2.0313 l 0,-8.625 z m -22.75,14.9375 a 1.0059664,1.0059664 0 0 0 0.2188,2 l 31.5312,0 a 1.0001,1.0001 0 1 0 0,-2 l -31.5312,0 a 1.0001,1.0001 0 0 0 -0.2188,0 z m 0,5.9062 a 1.0059664,1.0059664 0 0 0 0.2188,2 l 31.5312,0 a 1.0001,1.0001 0 1 0 0,-2 l -31.5312,0 a 1.0001,1.0001 0 0 0 -0.2188,0 z m 0,5.9063 a 1.0059664,1.0059664 0 0 0 0.2188,1.99996 l 31.5312,0 a 1.0001,1.0001 0 1 0 0,-1.99996 l -31.5312,0 a 1.0001,1.0001 0 0 0 -0.2188,0 z m 0.031,5.87496 a 1.0043896,1.0043896 0 0 0 0.1876,2 l 16.9687,0 a 1.0001,1.0001 0 1 0 0,-2 l -16.9687,0 a 1.0001,1.0001 0 0 0 -0.094,0 1.0011039,1.0011039 0 0 0 -0.094,0 z m 28.7188,4.6875 c 0.3339,0 0.6744,8e-4 1,0.031 0.021,0 0.042,0 0.062,0 1.5942,0.1588 3.0466,0.7017 4.3437,1.5 0.01,0 0.023,0 0.031,0 0.012,0.01 0.019,0.024 0.031,0.031 0.2511,0.157 0.5137,0.3223 0.75,0.5 0.023,0.017 0.04,0.045 0.062,0.062 0.2228,0.1705 0.4481,0.3431 0.6563,0.5312 a 1.0001,1.0001 0 0 0 0.1563,0.125 c 2.0025,1.8925 3.25,4.5851 3.25,7.5627 0,5.7275 -4.616,10.3437 -10.3438,10.3437 -4.2211,0 -7.8266,-2.5134 -9.4375,-6.125 a 1.0001,1.0001 0 0 0 -0.062,-0.1563 c -0.01,-0.012 -0.026,-0.019 -0.031,-0.031 -0.3917,-0.9287 -0.6444,-1.9234 -0.75,-2.9688 -0.037,-0.35 -0.063,-0.7007 -0.063,-1.0624 0,-0.3581 0.027,-0.7141 0.063,-1.0626 0.175,-1.7339 0.768,-3.3438 1.6874,-4.7188 0,-0.01 0,-0.024 0,-0.031 0.367,-0.5457 0.8201,-1.0348 1.2813,-1.5 0.2337,-0.2337 0.4635,-0.4769 0.7187,-0.6874 0.2553,-0.2115 0.5375,-0.4073 0.8126,-0.5938 1.6504,-1.1134 3.633,-1.75 5.7812,-1.75 z m 5.2188,6.3438 a 1.0001,1.0001 0 0 0 -0.5938,0.3124 l -5.875,5.8751 -1.875,-1.875 a 1.0054956,1.0054956 0 0 0 -1.4375,1.4063 l 2.5937,2.5937 a 1.0001,1.0001 0 0 0 1.4063,0 l 6.5937,-6.5937 a 1.0001,1.0001 0 0 0 -0.8124,-1.7188 z"
       style="text-indent:0;text-transform:none;direction:ltr;block-progression:tb;baseline-shift:baseline;color:#000000;enable-background:accumulate;"
       fill="#000000"
       fill-opacity="1"
       stroke="none"
       marker="none"
       visibility="visible"
       display="inline"
       overflow="visible"
       id="path4220" />
  </g>
</svg>
