<?xml version="1.0" encoding="UTF-8" standalone="no"?>
<svg
   xmlns:dc="http://purl.org/dc/elements/1.1/"
   xmlns:cc="http://creativecommons.org/ns#"
   xmlns:rdf="http://www.w3.org/1999/02/22-rdf-syntax-ns#"
   xmlns:svg="http://www.w3.org/2000/svg"
   xmlns="http://www.w3.org/2000/svg"
   xmlns:sodipodi="http://sodipodi.sourceforge.net/DTD/sodipodi-0.dtd"
   xmlns:inkscape="http://www.inkscape.org/namespaces/inkscape"
   version="1.1"
   x="0px"
   y="0px"
   viewBox="0 0 100 100"
   style="enable-background:new 0 0 100 100;"
   xml:space="preserve"
   id="svg4136"
   inkscape:version="0.91 r13725"
   sodipodi:docname="FindUsages.svg"><metadata
     id="metadata4146"><rdf:RDF><cc:Work
         rdf:about=""><dc:format>image/svg+xml</dc:format><dc:type
           rdf:resource="http://purl.org/dc/dcmitype/StillImage" /><dc:title></dc:title></cc:Work></rdf:RDF></metadata><defs
     id="defs4144" /><sodipodi:namedview
     pagecolor="#ffffff"
     bordercolor="#666666"
     borderopacity="1"
     objecttolerance="10"
     gridtolerance="10"
     guidetolerance="10"
     inkscape:pageopacity="0"
     inkscape:pageshadow="2"
     inkscape:window-width="1920"
     inkscape:window-height="1148"
     id="namedview4142"
     showgrid="false"
     inkscape:zoom="9.73"
     inkscape:cx="50"
     inkscape:cy="50"
     inkscape:window-x="1912"
     inkscape:window-y="-8"
     inkscape:window-maximized="1"
     inkscape:current-layer="svg4136" /><g
     id="g4138"><path
       d="M94.9,90.9L73,68.9c6-6.8,9.6-15.8,9.6-25.5C82.6,21.8,65,4.2,43.4,4.2S4.2,21.8,4.2,43.4s17.6,39.2,39.2,39.2   c9.7,0,18.7-3.6,25.5-9.6l21.9,21.9c0.6,0.6,1.3,0.9,2,0.9s1.5-0.3,2-0.9C96.1,93.9,96.1,92,94.9,90.9z M10,43.4   C10,25,25,10,43.4,10s33.4,15,33.4,33.4s-15,33.4-33.4,33.4S10,61.8,10,43.4z"
       id="path4140" /></g><g
     id="g4160"
     transform="matrix(0.45115653,0,0,0.45115653,20.554419,20.56865)"><path
       id="path4150"
       d="M 91.8,8.1 C 87.8,4.1 82.4,1.9 76.5,1.9 70,1.9 63.6,4.6 58.8,9.4 L 41.4,27 c -7.9,7.9 -9.8,20.2 -4.3,29 0.9,1.4 1.9,2.7 3,3.9 1.1,1.1 2.4,2.2 3.8,3 l 0.8,0.5 2.3,-2.3 C 48.3,59.8 49.2,58 49.5,56.3 49.8,54.4 49.4,52.7 48.3,51.6 44.1,47.4 44.7,40 49.6,35 L 67.2,17.4 c 2.6,-2.6 6.1,-4.1 9.5,-4.1 2.8,0 5.3,1 7.1,2.8 2,2 3.2,4.7 3.2,7.6 0,2.9 -1.1,5.6 -3.2,7.6 l -14.4,14.5 0.2,0.7 c 1.2,3.6 1.6,7.3 1.3,11.2 L 70.6,60.9 91.7,39.8 C 95.9,35.6 98.2,30 98.2,24 98.4,18 96.1,12.4 91.8,8.1 Z"
       inkscape:connector-curvature="0" /><path
       id="path4152"
       d="m 23.4,98 0,0 c 6.5,0 12.9,-2.7 17.7,-7.5 L 58.6,73 C 66.5,65.1 68.4,52.8 62.9,44 62,42.6 61,41.3 59.9,40.1 58.8,39 57.5,37.9 56.1,37.1 L 55.3,36.6 53,38.9 c -1.3,1.3 -2.2,3.1 -2.5,4.8 -0.3,1.9 0.1,3.6 1.2,4.7 4.2,4.2 3.6,11.6 -1.3,16.6 L 32.9,82.4 c -2.6,2.6 -6.1,4.1 -9.5,4.1 -2.8,0 -5.3,-1 -7.1,-2.8 -2,-2 -3.2,-4.7 -3.2,-7.6 0,-2.9 1.1,-5.6 3.2,-7.6 L 30.5,54.3 30.3,53.6 C 29.1,50.1 28.7,46.3 29,42.4 l 0.3,-3.2 -21.1,21 c -8.7,8.7 -8.7,22.9 0,31.6 3.9,4 9.4,6.2 15.2,6.2 z"
       inkscape:connector-curvature="0" /></g></svg>