<svg xmlns="http://www.w3.org/2000/svg" xmlns:xlink="http://www.w3.org/1999/xlink" version="1.1" x="0px" y="0px" viewBox="0 0 100 125" enable-background="new 0 0 100 100" xml:space="preserve"><g><g><path d="M5,16.5v67h90v-67H5z M92,79.2L67,47.9l-12,16l-19.7-26L8,78.5v-59h84V79.2z"/><g><path d="M3.5,16.5c0,22.3,0,44.7,0,67C3.5,84.3,4.2,85,5,85c30,0,60,0,90,0c0.8,0,1.5-0.7,1.5-1.5c0-22.3,0-44.7,0-67     c0-0.8-0.7-1.5-1.5-1.5c-30,0-60,0-90,0c-1.9,0-1.9,3,0,3c30,0,60,0,90,0c-0.5-0.5-1-1-1.5-1.5c0,22.3,0,44.7,0,67     c0.5-0.5,1-1,1.5-1.5c-30,0-60,0-90,0c0.5,0.5,1,1,1.5,1.5c0-22.3,0-44.7,0-67C6.5,14.6,3.5,14.6,3.5,16.5z"/><path d="M93.1,78.2c-8.3-10.4-16.7-20.9-25-31.3c-0.7-0.8-1.8-0.4-2.4,0.3c-4,5.3-8,10.7-12,16c0.9,0,1.7,0,2.6,0     c-6.6-8.7-13.1-17.3-19.7-26c-0.7-0.9-1.9-1-2.6,0c-9.1,13.5-18.2,27-27.3,40.5c0.9,0.3,1.9,0.5,2.8,0.8c0-19.7,0-39.3,0-59     C9,20,8.5,20.5,8,21c28,0,56,0,84,0c-0.5-0.5-1-1-1.5-1.5c0,19.9,0,39.8,0,59.7c0,1.9,3,1.9,3,0c0-19.9,0-39.8,0-59.7     c0-0.8-0.7-1.5-1.5-1.5c-28,0-56,0-84,0c-0.8,0-1.5,0.7-1.5,1.5c0,19.7,0,39.3,0,59c0,1.6,2,2,2.8,0.8     c9.1-13.5,18.2-27,27.3-40.5c-0.9,0-1.7,0-2.6,0c6.6,8.7,13.1,17.3,19.7,26c0.7,1,1.9,1,2.6,0c4-5.3,8-10.7,12-16     c-0.8,0.1-1.6,0.2-2.4,0.3c8.3,10.4,16.7,20.9,25,31.3C92.1,81.8,94.3,79.7,93.1,78.2z"/></g></g></g><text x="0" y="115" fill="#000000" font-size="5px" font-weight="bold" font-family="'Helvetica Neue', Helvetica, Arial-Unicode, Arial, Sans-serif">Created by Guilhem</text><text x="0" y="120" fill="#000000" font-size="5px" font-weight="bold" font-family="'Helvetica Neue', Helvetica, Arial-Unicode, Arial, Sans-serif">from the Noun Project</text></svg>