<svg xmlns="http://www.w3.org/2000/svg" xmlns:xlink="http://www.w3.org/1999/xlink" version="1.1" x="0px" y="0px" viewBox="0 0 100 100" style="enable-background:new 0 0 100 100;" xml:space="preserve"><g><path d="M52.896,96.325l7.345-24.417c2.107-6.533,1.61-12.853-2.171-17.125L82.044,7.479c1.286-2.537,0.271-5.636-2.265-6.922   c-2.537-1.284-5.635-0.271-6.92,2.266L48.924,50.049c-5.486-0.646-10.535,2.407-15.095,8.318L18.442,78.864   c-0.921,1.216-1.254,2.778-0.911,4.265c0.343,1.487,1.329,2.744,2.689,3.435l25.414,12.88c1.36,0.689,2.958,0.741,4.36,0.139   S52.458,97.787,52.896,96.325z M44.435,93.063l5.259-10.377c0.3-0.592,0.063-1.314-0.529-1.614c-0.592-0.3-1.315-0.063-1.615,0.528   l-5.259,10.376l-1.785-0.904l5.258-10.377c0.3-0.591,0.063-1.314-0.529-1.614c-0.591-0.3-1.315-0.063-1.614,0.528l-5.259,10.377   l-1.786-0.905l5.259-10.376c0.3-0.592,0.063-1.315-0.529-1.615c-0.591-0.3-1.314-0.063-1.614,0.528l-5.259,10.377l-1.785-0.905   l5.259-10.376c0.3-0.592,0.063-1.314-0.529-1.615c-0.591-0.299-1.314-0.063-1.615,0.528l-5.259,10.377l-1.785-0.905l5.259-10.376   c0.299-0.592,0.063-1.314-0.528-1.614c-0.592-0.301-1.315-0.063-1.615,0.528l-5.259,10.377l-4.03-2.043l12.065-15.943l19.073,9.667   l-5.724,19.156L44.435,93.063z"></path></g></svg>