<svg xmlns="http://www.w3.org/2000/svg" xmlns:xlink="http://www.w3.org/1999/xlink" version="1.0" x="0px" y="0px" viewBox="0 0 32 32" enable-background="new 0 0 32 32" xml:space="preserve"><path d="M14,28h-2V4h2c1.105,0,2-0.895,2-2s-0.895-2-2-2c0,0,0,0-2,0s-2,2-2,2s0-2-2-2S6,0,6,0C4.895,0,4,0.895,4,2s0.895,2,2,2h2v4  H2c-1.105,0-2,0.895-2,2v12c0,1.105,0.895,2,2,2h6v4H6c-1.105,0-2,0.895-2,2s0.895,2,2,2c0,0,0,0,2,0s2-2,2-2s0,2,2,2s2,0,2,0  c1.105,0,2-0.895,2-2S15.105,28,14,28z M8,22H2V10h6V22z M32,10v12c0,1.105-0.895,2-2,2H14v-2h16V10H14V8h16  C31.105,8,32,8.895,32,10z"></path></svg>