<svg xmlns="http://www.w3.org/2000/svg" xmlns:xlink="http://www.w3.org/1999/xlink" version="1.1" x="0px" y="0px" viewBox="0 0 100 125" enable-background="new 0 0 100 100" xml:space="preserve"><g><polygon points="49.014,71.063 51.014,71.063 51.014,69 81.014,69 81.014,67 56.703,67 60.986,63.642 59.752,62.067 55.449,65.441    56.67,67 51.014,67 51.014,48.001 55.674,48.001 65.014,26.206 65.014,15.001 63.014,15.001 63.014,25.796 54.355,46.001    45.673,46.001 42.245,38.001 48.014,38.001 48.014,36.001 41.387,36.001 40.53,34 50.014,34 50.014,32 39.673,32 38.817,30.001    52.014,30.001 52.014,28.001 38.014,28.001 38.014,28.129 37.102,26.001 52.758,26.001 52.758,24.001 37.014,24.001 37.014,15.001    35.014,15.001 35.014,26.206 44.355,48.001 49.014,48.001 49.014,67 14.014,67 14.014,69 49.014,69  "/><rect x="38.71" y="63.792" transform="matrix(-0.8883 -0.4592 0.4592 -0.8883 48.266 141.3202)" width="5.214" height="1.999"/><rect x="34.036" y="60.896" transform="matrix(0.8883 0.4592 -0.4592 0.8883 32.4144 -9.4907)" width="3.366" height="2"/><rect x="42.262" y="61.201" transform="matrix(0.4331 0.9014 -0.9014 0.4331 82.0534 -6.0576)" width="7.162" height="2"/><rect x="38.479" y="71.265" transform="matrix(-0.9415 0.3371 -0.3371 -0.9415 106.5689 126.0272)" width="7.73" height="2"/><rect x="55.021" y="53.453" transform="matrix(0.9342 0.3568 -0.3568 0.9342 23.6944 -16.2971)" width="2.001" height="5.248"/><rect x="52.44" y="60.279" transform="matrix(-0.9343 -0.3564 0.3564 -0.9343 80.9819 140.5812)" width="2" height="5.103"/><rect x="55.064" y="69.802" transform="matrix(-0.3416 0.9399 -0.9399 -0.3416 142.6895 43.6236)" width="2.001" height="3.982"/><rect x="60.526" y="71.974" transform="matrix(-0.3535 0.9354 -0.9354 -0.3535 152.3123 42.3352)" width="2" height="3.656"/><polygon points="53.77,82.993 51.018,71.714 49.846,72.001 49.053,71.802 46.242,82.999 14.021,82.999 14.021,84.999    47.802,84.999 50.032,76.115 52.199,84.993 85.986,84.993 85.986,82.993  "/></g><text x="0" y="115" fill="#000000" font-size="5px" font-weight="bold" font-family="'Helvetica Neue', Helvetica, Arial-Unicode, Arial, Sans-serif">Created by Nikita Kozin</text><text x="0" y="120" fill="#000000" font-size="5px" font-weight="bold" font-family="'Helvetica Neue', Helvetica, Arial-Unicode, Arial, Sans-serif">from the Noun Project</text></svg>