<svg xmlns="http://www.w3.org/2000/svg" xmlns:xlink="http://www.w3.org/1999/xlink" version="1.1" x="0px" y="0px" viewBox="0 0 100 125" enable-background="new 0 0 100 100" xml:space="preserve"><path d="M94.202,80.799L55.171,13.226c-1.067-1.843-3.022-2.968-5.147-2.968c-0.008,0-0.016,0-0.023,0s-0.016,0-0.023,0  c-2.124,0-4.079,1.125-5.147,2.968L5.797,80.799c-1.063,1.85-1.063,4.124,0,5.969c1.057,1.847,3.024,2.977,5.171,2.977h78.063  c2.146,0,4.114-1.13,5.171-2.977C95.266,84.923,95.266,82.646,94.202,80.799z M14.412,81.79L50,20.182L85.588,81.79H14.412z"/><polyline fill-rule="evenodd" clip-rule="evenodd" points="73.936,64.022 72.617,61.531 54.887,61.531 61.09,58.942 60.211,56.647   54.203,59.089 61.627,51.812 59.869,50.005 52.445,57.282 54.984,51.226 52.641,50.249 50.1,56.305 50.1,45.804 47.609,45.804   47.609,56.989 44.874,50.199 42.579,51.323 44.972,57.136 37.596,49.858 35.935,51.86 43.311,59.04 37.303,56.55 36.522,58.942   43.018,61.531 32.028,61.531 32.028,64.022 41.992,64.022 36.424,66.367 37.401,68.614 43.458,66.172 36.13,73.352 37.84,75.11   45.412,67.734 42.823,73.986 45.119,75.013 47.609,68.956 47.609,79.359 50.1,79.359 50.1,69.444 52.396,75.062 54.74,74.036   52.055,67.637 60.016,75.452 61.725,73.548 54.105,66.123 60.406,68.663 61.334,66.367 55.57,64.022 73.936,64.022 "/><text x="0" y="115" fill="#000000" font-size="5px" font-weight="bold" font-family="'Helvetica Neue', Helvetica, Arial-Unicode, Arial, Sans-serif">Created by Ervin Bolat</text><text x="0" y="120" fill="#000000" font-size="5px" font-weight="bold" font-family="'Helvetica Neue', Helvetica, Arial-Unicode, Arial, Sans-serif">from the Noun Project</text></svg>