<svg width="100" height="125" xmlns="http://www.w3.org/2000/svg">

 <g>
  <title>background</title>
  <rect fill="none" id="canvas_background" height="402" width="582" y="-1" x="-1"/>
 </g>
 <g>
  <title>Layer 1</title>
  <g id="svg_1">
   <path id="svg_2" d="m71.586998,23.860359l-11.952,0l0,-2.031c0,-2.354 -1.91,-4.261 -4.262997,-4.261l-9.707001,0c-2.355,0 -4.262001,1.907 -4.262001,4.261l0,2.031l-11.952,0c-5.422001,0 -9.834,4.413 -9.834,9.832001l0,63.909996c0,5.419006 4.411999,9.830002 9.834,9.830002l42.134998,0c5.418999,0 9.832001,-4.410995 9.832001,-9.830002l0,-63.909996c0.002998,-5.419001 -4.405998,-9.832001 -9.831001,-9.832001zm-21.066998,-4.368999c1.173,0 2.125999,0.952999 2.125999,2.125999c0,1.172001 -0.952999,2.125 -2.125999,2.125c-1.174,0 -2.125,-0.952 -2.125,-2.125c-0.000999,-1.174 0.949001,-2.125999 2.125,-2.125999zm-11.505001,10.409l23.011002,0l0,8.979l-23.011002,0l0,-8.979zm32.576004,71.913002l-42.138004,0c-2.324999,0 -4.216999,-1.889999 -4.216999,-4.211006l0,-63.909996c0,-2.323 1.892,-4.214001 4.216999,-4.214001l4.019001,0l0,10.040001c0,2.702 2.196999,4.899998 4.902,4.899998l24.292,0c2.701996,0 4.900002,-2.197998 4.900002,-4.899998l0,-10.040001l4.020996,0c2.321999,0 4.212006,1.892 4.212006,4.214001l0,63.909996l0.002998,0c0,2.321007 -1.889,4.211006 -4.210999,4.211006z" fill="#000000"/>
   <path id="svg_3" d="m68.970001,61.273361l-36.875,0c-1.505001,0 -2.727001,1.220997 -2.727001,2.725998c0,1.507004 1.222,2.727005 2.727001,2.727005l36.875,0c1.503998,0 2.726997,-1.220001 2.726997,-2.727005c-0.000999,-1.505001 -1.223,-2.725998 -2.726997,-2.725998z" fill="#000000"/>
   <path id="svg_4" d="m32.095001,58.278358l15.709999,0c1.505001,0 2.727001,-1.221001 2.727001,-2.726997c0,-1.506001 -1.222,-2.727001 -2.727001,-2.727001l-15.709999,0c-1.505001,0 -2.727001,1.220001 -2.727001,2.727001c0,1.507 1.222,2.726997 2.727001,2.726997z" fill="#000000"/>
   <path id="svg_5" d="m32.095001,76.671356l29.205997,0c1.505001,0 2.727001,-1.220993 2.727001,-2.727997c0,-1.503998 -1.222,-2.725998 -2.727001,-2.725998l-29.205997,0c-1.505001,0 -2.727001,1.222 -2.727001,2.725998c0,1.507004 1.222,2.727997 2.727001,2.727997z" fill="#000000"/>
   <path id="svg_6" d="m68.970001,81.163361l-36.875,0c-1.505001,0 -2.727001,1.222 -2.727001,2.726997s1.222,2.727005 2.727001,2.727005l36.875,0c1.503998,0 2.726997,-1.222 2.726997,-2.727005s-1.223,-2.726997 -2.726997,-2.726997z" fill="#000000"/>
   <path id="svg_7" d="m61.300999,91.107361l-29.205997,0c-1.505001,0 -2.727001,1.222 -2.727001,2.727997c0,1.507004 1.222,2.724998 2.727001,2.724998l29.205997,0c1.505001,0 2.727001,-1.217995 2.727001,-2.724998c-0.000999,-1.505997 -1.222,-2.727997 -2.727001,-2.727997z" fill="#000000"/>
  </g>
 </g>
</svg>