<svg xmlns="http://www.w3.org/2000/svg" xmlns:xlink="http://www.w3.org/1999/xlink" version="1.1" x="0px" y="0px" viewBox="0 0 100 100" enable-background="new 0 0 100 100" xml:space="preserve"><g><path d="M75.021,5H24.979c-5.63,0-10.195,4.564-10.195,10.195v69.609C14.784,90.436,19.349,95,24.979,95h50.042   c5.631,0,10.195-4.564,10.195-10.195V15.195C85.216,9.564,80.651,5,75.021,5z M50,72.324c-3.094,0-6.043-0.634-8.725-1.776   l4.395-11.74c0.257-0.686,0.062-1.458-0.49-1.94c-0.552-0.481-1.344-0.57-1.989-0.224l-11.465,6.165   c-2.55-3.628-4.05-8.046-4.05-12.809c0-12.31,10.015-22.324,22.324-22.324S72.324,37.69,72.324,50S62.31,72.324,50,72.324z"></path><path d="M50,44.084c-3.262,0-5.916,2.654-5.916,5.916s2.654,5.915,5.916,5.915s5.915-2.653,5.915-5.915S53.262,44.084,50,44.084z"></path></g></svg>