<svg width="100" height="125" xmlns="http://www.w3.org/2000/svg">

 <g>
  <title>background</title>
  <rect fill="none" id="canvas_background" height="402" width="582" y="-1" x="-1"/>
 </g>
 <g>
  <title>Layer 1</title>
  <g id="svg_1">
   <g id="svg_2">
    <path id="svg_3" d="m83.699997,38.749218c0,-0.799999 -0.299995,-1.599998 -0.899994,-2.200001l-16.800003,-17.999998c-0.599998,-0.700001 -1.5,-1 -2.400002,-1l-41.999998,0c-2.9,0 -5.300001,2.4 -5.300001,5.299999l0,79.299997c0,2.900002 2.400002,5.300003 5.300001,5.300003l56.9,0c2.900002,0 5.300003,-2.400002 5.300003,-5.300003l-0.100006,-63.399998zm-5.299995,64.700001l-56.800001,0c-0.700001,0 -1.300001,-0.599998 -1.300001,-1.300003l0,-79.399998c0,-0.699999 0.6,-1.299999 1.300001,-1.299999l41.300001,0l0,12c0,3.200001 2.599998,5.799999 5.799995,5.799999l11.100006,0l0,62.899998c-0.100006,0.700005 -0.700005,1.300003 -1.400002,1.300003z"/>
    <path id="svg_4" d="m36.700001,85.249222l-5,0l0,-10.700005c0,-0.799995 -0.400002,-1.199997 -1.200001,-1.199997l-1.4,0c-0.800001,0 -1.200001,0.400002 -1.200001,1.199997l0,12.700005c0,0.799995 0.4,1.199997 1.200001,1.199997l7.499998,0c0.800003,0 1.200001,-0.400002 1.200001,-1.199997l0,-0.800003c0.100002,-0.800003 -0.299999,-1.199997 -1.099998,-1.199997z"/>
    <path id="svg_5" d="m47.5,73.149216c-4.700001,0 -7.900002,3.400002 -7.900002,7.700005c0,4.400002 3.200001,7.900002 7.900002,7.900002s7.900002,-3.400002 7.900002,-7.900002c0,-4.400002 -3.200001,-7.700005 -7.900002,-7.700005zm0,12.100006c-2.400002,0 -4.099998,-1.900002 -4.099998,-4.5c0,-2.5 1.699997,-4.300003 4.099998,-4.300003s4.099998,1.800003 4.099998,4.300003c0,2.599998 -1.699997,4.5 -4.099998,4.5z"/>
    <path id="svg_6" d="m71.400002,79.84922l-3.099998,0c-0.800003,0 -1.200005,0.400002 -1.200005,1.199997l0,0.800003c0,0.799995 0.400002,1.199997 1.200005,1.199997l1,0l0,1c0,0 -0.900002,1.200005 -3.100006,1.200005c-2.299995,0 -4.299995,-1.700005 -4.299995,-4.5c0,-2.300003 1.299999,-4.300003 4.299995,-4.300003c1.300003,0 2.100006,0.400002 2.800003,0.699997s1.199997,0.300003 1.599998,-0.299995l0.5,-0.900002c0.400002,-0.699997 0.300003,-1.099998 -0.299995,-1.599998c-0.600006,-0.400002 -2.5,-1.300003 -4.900002,-1.300003c-4.600002,0 -7.900002,3.300003 -7.900002,7.900002c0,4.699997 3.5,7.699997 7.400002,7.699997c2.699997,0 4,-1.399994 4,-1.399994l0,0c0,0 0,0.099998 0,0.199997l0,0c0,0.5 0.400002,0.900002 1.199997,0.900002l0.700005,0c0.799995,0 1.199997,-0.400002 1.199997,-1.200005l0,-6.199997c0.099998,-0.699997 -0.300003,-1.099998 -1.099998,-1.099998z"/>
   </g>
  </g>
 </g>
</svg>