<svg xmlns:dc="http://purl.org/dc/elements/1.1/" xmlns:cc="http://creativecommons.org/ns#" xmlns:rdf="http://www.w3.org/1999/02/22-rdf-syntax-ns#" xmlns:svg="http://www.w3.org/2000/svg" xmlns="http://www.w3.org/2000/svg" xmlns:sodipodi="http://sodipodi.sourceforge.net/DTD/sodipodi-0.dtd" xmlns:inkscape="http://www.inkscape.org/namespaces/inkscape" version="1.1" x="0px" y="0px" viewBox="0 0 100 100"><g transform="translate(0,-952.36218)"><path style="font-size:medium;font-style:normal;font-variant:normal;font-weight:normal;font-stretch:normal;text-indent:0;text-align:start;text-decoration:none;line-height:normal;letter-spacing:normal;word-spacing:normal;text-transform:none;direction:ltr;block-progression:tb;writing-mode:lr-tb;text-anchor:start;baseline-shift:baseline;opacity:1;color:#000000;fill:#000000;fill-opacity:1;stroke:none;stroke-width:6;marker:none;visibility:visible;display:inline;overflow:visible;enable-background:accumulate;font-family:Sans;-inkscape-font-specification:Sans" d="M 10.6875 8 A 3.0003 3.0003 0 0 0 8 11 L 8 45 A 3.0003 3.0003 0 0 0 11 48 L 45 48 A 3.0003 3.0003 0 0 0 48 45 L 48 11 A 3.0003 3.0003 0 0 0 45 8 L 11 8 A 3.0003 3.0003 0 0 0 10.6875 8 z M 55 8 A 3.0003 3.0003 0 0 0 52 11 L 52 45 A 3.0003 3.0003 0 0 0 55 48 L 89 48 A 3.0003 3.0003 0 0 0 92 45 L 92 21 A 3.0003 3.0003 0 1 0 86 21 L 86 42 L 58 42 L 58 14 L 89 14 A 3.0003 3.0003 0 1 0 89 8 L 55 8 z M 14 14 L 42 14 L 42 42 L 14 42 L 14 14 z M 27.96875 17.9375 A 3.0003 3.0003 0 0 0 25 21 L 25 25 L 21 25 A 3.0003 3.0003 0 0 0 20.6875 25 A 3.0040663 3.0040663 0 1 0 21 31 L 25 31 L 25 35 A 3.0003 3.0003 0 1 0 31 35 L 31 31 L 35 31 A 3.0003 3.0003 0 1 0 35 25 L 31 25 L 31 21 A 3.0003 3.0003 0 0 0 27.96875 17.9375 z M 64.6875 25 A 3.0040663 3.0040663 0 1 0 65 31 L 79 31 A 3.0003 3.0003 0 1 0 79 25 L 65 25 A 3.0003 3.0003 0 0 0 64.6875 25 z M 11 52 A 3.0003 3.0003 0 0 0 8 55 L 8 89 A 3.0003 3.0003 0 0 0 10.96875 92.03125 A 3.0003 3.0003 0 0 0 14 89 L 14 58 L 42 58 L 42 86 L 21 86 A 3.0003 3.0003 0 1 0 21 92 L 45 92 A 3.0003 3.0003 0 0 0 48 89 L 48 55 A 3.0003 3.0003 0 0 0 45 52 L 11 52 z M 55 52 A 3.0003 3.0003 0 0 0 52 55 L 52 89 A 3.0003 3.0003 0 0 0 55 92 L 89 92 A 3.0003 3.0003 0 0 0 92 89 L 92 55 A 3.0003 3.0003 0 0 0 89.3125 52 A 3.0003 3.0003 0 0 0 89 52 L 55 52 z M 58 58 L 86 58 L 86 86 L 58 86 L 58 58 z M 72 61 C 70.343146 61 69 62.343146 69 64 C 69 65.656854 70.343146 67 72 67 C 73.656854 67 75 65.656854 75 64 C 75 62.343146 73.656854 61 72 61 z M 20.65625 61.96875 A 3.0003 3.0003 0 0 0 18.875 67.09375 L 23.75 72 L 18.875 76.875 A 3.0003 3.0003 0 1 0 23.125 81.09375 L 28 76.21875 L 32.875 81.09375 A 3.0003 3.0003 0 1 0 37.125 76.875 L 32.25 72 L 37.125 67.09375 A 3.0003 3.0003 0 0 0 34.65625 61.96875 A 3.0003 3.0003 0 0 0 32.875 62.875 L 28 67.75 L 23.125 62.875 A 3.0003 3.0003 0 0 0 20.65625 61.96875 z M 64.6875 69 A 3.0040663 3.0040663 0 1 0 65 75 L 79 75 A 3.0003 3.0003 0 1 0 79 69 L 65 69 A 3.0003 3.0003 0 0 0 64.6875 69 z M 72 77 C 70.343146 77 69 78.343146 69 80 C 69 81.656854 70.343146 83 72 83 C 73.656854 83 75 81.656854 75 80 C 75 78.343146 73.656854 77 72 77 z " transform="translate(0,952.36218)"></path></g></svg>