<svg xmlns="http://www.w3.org/2000/svg" xmlns:xlink="http://www.w3.org/1999/xlink" version="1.1" x="0px" y="0px" viewBox="0 0 100 125" enable-background="new 0 0 100 100" xml:space="preserve"><path d="M22.1,73.1h4.1v9.3c0,1.2,0.7,2.2,1.7,2.8c0.4,0.2,0.9,0.3,1.4,0.3c0.6,0,1.3-0.2,1.8-0.6l16.1-11.8h30.6  c6.8,0,12.3-5.5,12.3-12.3v-34c0-6.8-5.5-12.3-12.3-12.3H22.1c-6.8,0-12.3,5.5-12.3,12.3v34C9.9,67.6,15.4,73.1,22.1,73.1z   M16.1,26.8c0-3.3,2.7-6.1,6.1-6.1h55.7c3.3,0,6.1,2.7,6.1,6.1v34c0,3.3-2.7,6.1-6.1,6.1H46.3c-0.7,0-1.3,0.2-1.8,0.6l-12,8.8V70  c0-1.7-1.4-3.1-3.1-3.1h-7.2c-3.3,0-6.1-2.7-6.1-6.1V26.8z M46.3,45c0-2,1.6-3.7,3.7-3.7s3.7,1.6,3.7,3.7S52,48.7,50,48.7  S46.3,47,46.3,45z M59,45c0-2,1.6-3.7,3.7-3.7s3.7,1.6,3.7,3.7s-1.6,3.7-3.7,3.7S59,47,59,45z M33.7,45c0-2,1.6-3.7,3.7-3.7  c2,0,3.7,1.6,3.7,3.7s-1.6,3.7-3.7,3.7C35.3,48.7,33.7,47,33.7,45z"/><text x="0" y="115" fill="#000000" font-size="5px" font-weight="bold" font-family="'Helvetica Neue', Helvetica, Arial-Unicode, Arial, Sans-serif">Created by Gregor Cresnar</text><text x="0" y="120" fill="#000000" font-size="5px" font-weight="bold" font-family="'Helvetica Neue', Helvetica, Arial-Unicode, Arial, Sans-serif">from the Noun Project</text></svg>