<svg xmlns="http://www.w3.org/2000/svg" xmlns:xlink="http://www.w3.org/1999/xlink" version="1.2" baseProfile="tiny" x="0px" y="0px" viewBox="0 0 100 100" xml:space="preserve"><path fill="#000000" d="M87.5,15.625h-75c-4.142,0-7.5,3.358-7.5,7.5v48.75c0,4.142,3.358,7.5,7.5,7.5H20V92.5l22.5-13.125h45  c4.142,0,7.5-3.358,7.5-7.5v-48.75C95,18.983,91.642,15.625,87.5,15.625z M89.375,71.875c0,1.034-0.841,1.875-1.875,1.875H40.979  l-15.354,8.957V73.75H12.5c-1.034,0-1.875-0.841-1.875-1.875v-48.75c0-1.034,0.841-1.875,1.875-1.875h75  c1.034,0,1.875,0.841,1.875,1.875V71.875z"></path><rect x="20" y="62.5" fill="#000000" width="30" height="3.75"></rect><rect x="42.5" y="51.25" fill="#000000" width="37.5" height="3.75"></rect><rect x="20" y="51.25" fill="#000000" width="15" height="3.75"></rect><rect x="65" y="40" fill="#000000" width="15" height="3.75"></rect><rect x="20" y="40" fill="#000000" width="37.5" height="3.75"></rect><rect x="57.5" y="28.75" fill="#000000" width="22.5" height="3.75"></rect><rect x="20" y="28.75" fill="#000000" width="30" height="3.75"></rect></svg>