<svg xmlns="http://www.w3.org/2000/svg" xml:space="preserve" style="shape-rendering:geometricPrecision;text-rendering:geometricPrecision;image-rendering:optimizeQuality;" viewBox="0 0 1000 1000" x="0px" y="0px" fill-rule="evenodd" clip-rule="evenodd"><defs><style type="text/css">
   
    .str0 {stroke:black;stroke-width:10.4174}
    .fil1 {fill:black}
    .fil0 {fill:white;fill-rule:nonzero}
   
  </style></defs><g><path class="fil0" d="M8364.93 -6488.89l94.8315 24.0002c-19.8309,77.6581 -55.6658,136.997 -107.162,177.994 -51.6736,40.8428 -114.674,61.1698 -189.332,61.1698 -77.1738,0 -139.844,-15.6615 -188.175,-46.9964 -48.3311,-31.5002 -85.17,-77.0085 -110.339,-136.501 -25.1577,-59.6698 -37.831,-123.674 -37.831,-192.002 0,-74.5045 14.1733,-139.501 42.6736,-195.002 28.5002,-55.5004 69.0005,-97.6779 121.666,-126.509 52.5004,-28.8309 110.328,-43.1696 173.505,-43.1696 71.658,0 131.836,18.1773 180.663,54.6737 48.839,36.4964 82.8314,87.6621 102.001,153.828l-93.1661 22.0041c-16.6655,-52.1697 -40.6657,-90.0007 -72.3313,-113.836 -31.5002,-23.8348 -71.1738,-35.6696 -119.174,-35.6696 -54.9926,0 -100.832,13.1694 -137.836,39.5082 -36.9924,26.4923 -63.0005,61.8312 -77.8353,106.335 -15.0001,44.3271 -22.5002,90.1661 -22.5002,137.328 0,61.0044 8.83472,114.001 26.5041,159.509 17.8348,45.3311 45.3311,79.3353 82.8314,101.835 37.5003,22.5002 78.0006,33.6617 121.666,33.6617 53.0083,0 97.8433,-15.3308 134.67,-45.8271 36.8389,-30.6735 61.6658,-76.1699 74.6699,-136.336z"></path><path class="fil0" d="M8903.61 -6301.89c-32.6695,27.6734 -64.0044,47.1736 -94.0047,58.6658 -30.1656,11.3387 -62.5044,17.008 -97.0047,17.008 -57.0004,0 -100.666,-13.8308 -131.328,-41.6696 -30.5081,-27.8388 -45.8389,-63.4966 -45.8389,-106.666 0,-25.5002 5.66934,-48.6736 17.3387,-69.6738 11.4922,-21.0002 26.6577,-37.831 45.3311,-50.4925 18.8269,-12.6733 39.8271,-22.3348 63.3312,-28.8427 17.1734,-4.50004 43.1696,-9.00007 78.0006,-13.1576 71.0084,-8.504 123.332,-18.508 156.84,-30.3428 0.330711,-12.0001 0.496067,-19.6655 0.496067,-22.8309 0,-35.8349 -8.32684,-61.1698 -25.0041,-75.662 -22.323,-20.008 -55.8311,-29.8349 -99.9929,-29.8349 -41.3389,0 -71.8352,7.16935 -91.6661,21.6616 -19.6773,14.5041 -34.1696,40.1696 -43.6775,77.0085l-85.8314 -11.8347c7.83077,-36.6735 20.6695,-66.5084 38.5042,-89.0086 17.8348,-22.6655 43.8311,-40.1578 77.6699,-52.3351 33.827,-12.1655 72.9927,-18.3309 117.662,-18.3309 44.3389,0 80.1739,5.33862 107.835,15.6734 27.6734,10.5001 48.0004,23.4923 61.1698,39.331 13.004,15.8387 22.0041,35.6696 27.3309,59.8351 2.83467,15.0001 4.33468,42.0003 4.33468,81.0006l0 117.166c0,81.8392 1.83072,133.501 5.66934,154.997 3.66145,21.6734 11.1615,42.5082 22.1695,62.3391l-91.8432 0c-9.00007,-18.1655 -15.0001,-39.4964 -17.4923,-64.0044zm-7.3347 -196.336c-32.0081,13.1694 -79.8313,24.1655 -143.505,33.3428 -36.1656,5.16146 -61.8312,10.9961 -76.666,17.4923 -15.0001,6.50793 -26.6695,16.0041 -34.6656,28.6656 -8.17329,12.508 -12.3308,26.3388 -12.3308,41.6696 0,23.5041 9.00007,43.0043 26.6577,58.6658 17.6694,15.508 43.6775,23.3388 77.8353,23.3388 33.8388,0 64.0044,-7.3347 90.3432,-22.1695 26.327,-14.8348 45.8271,-35.1617 58.1579,-60.8273 9.50795,-19.8427 14.1733,-49.1697 14.1733,-87.8393l0 -32.3388z"></path><path class="fil0" d="M9120.44 -6237.89l0 -518.508 79.0046 0 0 78.5085c20.1616,-36.6735 38.835,-61.0044 55.9965,-72.6738 17.008,-11.6694 35.8349,-17.6694 56.339,-17.6694 29.6695,0 59.6698,9.50795 90.3314,28.3349l-30.3309 81.6739c-21.3309,-12.8387 -42.8389,-19.1694 -64.3352,-19.1694 -19.3348,0 -36.4964,5.83469 -51.8272,17.3269 -15.3426,11.6694 -26.1734,27.6734 -32.6695,48.1775 -9.83866,31.1577 -14.6694,65.3273 -14.6694,102.497l0 271.502 -87.8393 0z"></path><path class="fil0" d="M9438.28 -6194.88l85.5007 12.6615c3.5079,26.3388 13.5001,45.4964 29.6695,57.6737 21.8388,16.1576 51.6736,24.3309 89.3393,24.3309 40.831,0 72.1659,-8.17329 94.3354,-24.3309 22.1577,-16.3348 36.9924,-39.1775 44.8232,-68.3391 4.6772,-18.0001 6.67328,-55.5004 6.34257,-112.832 -38.3389,45.1657 -86.1739,67.8312 -143.505,67.8312 -71.3391,0 -126.497,-25.6656 -165.497,-77.162 -39.0003,-51.3429 -58.6776,-113.174 -58.6776,-185.009 0,-49.5004 9.00007,-95.1622 26.8349,-136.997 18.0001,-41.835 44.0082,-74.1738 78.0006,-97.0047 34.0042,-22.6655 74.0085,-34.1696 119.836,-34.1696 61.1698,0 111.674,24.8388 151.336,74.3392l0 -62.5044 81.166 0 0 448.173c0,80.6699 -8.32684,138.001 -24.6616,171.675 -16.5001,33.6617 -42.4964,60.3312 -78.166,79.8313 -35.6696,19.5002 -79.5006,29.327 -131.67,29.327 -61.8312,0 -111.839,-13.9962 -149.836,-41.8232 -38.1617,-27.8388 -56.5044,-69.6738 -55.1697,-125.67zm72.6738 -311.506c0,67.9966 13.5001,117.662 40.6657,148.832 27.0002,31.3349 60.8273,46.8311 101.505,46.8311 40.3232,0 74.162,-15.4962 101.493,-46.5004 27.3309,-31.1577 41.0082,-79.8313 41.0082,-146.328 0,-63.5084 -14.008,-111.332 -42.1775,-143.505 -28.1577,-32.1617 -62.1619,-48.3311 -101.824,-48.3311 -39.0003,0 -72.1777,15.8269 -99.674,47.6697 -27.3309,31.6656 -40.9964,78.8274 -40.9964,141.332z"></path><path class="fil0" d="M10349 -6301.89c-32.6695,27.6734 -64.0044,47.1736 -94.0047,58.6658 -30.1656,11.3387 -62.5044,17.008 -97.0047,17.008 -57.0004,0 -100.666,-13.8308 -131.328,-41.6696 -30.5081,-27.8388 -45.8389,-63.4966 -45.8389,-106.666 0,-25.5002 5.66934,-48.6736 17.3387,-69.6738 11.4922,-21.0002 26.6577,-37.831 45.3311,-50.4925 18.8269,-12.6733 39.8271,-22.3348 63.3312,-28.8427 17.1734,-4.50004 43.1696,-9.00007 78.0006,-13.1576 71.0084,-8.504 123.332,-18.508 156.84,-30.3428 0.330711,-12.0001 0.496067,-19.6655 0.496067,-22.8309 0,-35.8349 -8.32684,-61.1698 -25.0041,-75.662 -22.323,-20.008 -55.8311,-29.8349 -99.9929,-29.8349 -41.3389,0 -71.8352,7.16935 -91.6661,21.6616 -19.6773,14.5041 -34.1696,40.1696 -43.6775,77.0085l-85.8314 -11.8347c7.83077,-36.6735 20.6695,-66.5084 38.5042,-89.0086 17.8348,-22.6655 43.8311,-40.1578 77.6699,-52.3351 33.827,-12.1655 72.9927,-18.3309 117.662,-18.3309 44.3389,0 80.1739,5.33862 107.835,15.6734 27.6734,10.5001 48.0004,23.4923 61.1698,39.331 13.004,15.8387 22.0041,35.6696 27.3309,59.8351 2.83467,15.0001 4.33468,42.0003 4.33468,81.0006l0 117.166c0,81.8392 1.83072,133.501 5.66934,154.997 3.66145,21.6734 11.1615,42.5082 22.1695,62.3391l-91.8432 0c-9.00007,-18.1655 -15.0001,-39.4964 -17.4923,-64.0044zm-7.3347 -196.336c-32.0081,13.1694 -79.8313,24.1655 -143.505,33.3428 -36.1656,5.16146 -61.8312,10.9961 -76.666,17.4923 -15.0001,6.50793 -26.6695,16.0041 -34.6656,28.6656 -8.17329,12.508 -12.3308,26.3388 -12.3308,41.6696 0,23.5041 9.00007,43.0043 26.6577,58.6658 17.6694,15.508 43.6775,23.3388 77.8353,23.3388 33.8388,0 64.0044,-7.3347 90.3432,-22.1695 26.327,-14.8348 45.8271,-35.1617 58.1579,-60.8273 9.50795,-19.8427 14.1733,-49.1697 14.1733,-87.8393l0 -32.3388z"></path><polygon class="fil1 str0" points="188.895,677.675 188.895,277.679 143.871,277.679 143.871,677.675 "></polygon><polygon class="fil1 str0" points="233.34,277.774 677.781,277.774 677.781,322.219 233.34,322.219 "></polygon><polygon class="fil1 str0" points="233.34,366.664 677.781,366.664 677.781,411.11 233.34,411.11 "></polygon><polygon class="fil1 str0" points="233.34,455.555 677.781,455.555 677.781,500 233.34,500 "></polygon><polygon class="fil1 str0" points="233.34,544.445 677.781,544.445 677.781,588.89 233.34,588.89 "></polygon><polygon class="fil1 str0" points="233.34,633.324 677.781,633.324 677.781,677.769 233.34,677.769 "></polygon><polygon class="fil1 str0" points="322.219,233.329 588.89,233.329 588.89,367.243 322.219,367.243 "></polygon><polygon class="fil1 str0" points="589.457,722.214 767.238,722.214 767.238,766.66 589.457,766.66 "></polygon><polygon class="fil1 str0" points="144.45,722.214 322.231,722.214 322.231,766.66 144.45,766.66 "></polygon><polygon class="fil1 str0" points="722.226,677.675 722.226,277.679 767.238,277.679 767.238,677.675 "></polygon><polygon class="fil1 str0" points="804.455,455.448 899.995,455.448 899.995,499.894 804.455,499.894 "></polygon><path class="fil1 str0" d="M144.45 477.677l0 199.998c-24.5435,0 -44.4452,-89.5637 -44.4452,-199.998 0,-110.434 19.9017,-199.998 44.4452,-199.998l0 199.998z"></path><path class="fil1 str0" d="M766.671 477.677l0 199.998c24.5317,0 44.4452,-89.5637 44.4452,-199.998 0,-110.434 -19.9135,-199.998 -44.4452,-199.998l0 199.998z"></path></g></svg>