<svg xmlns="http://www.w3.org/2000/svg" xmlns:xlink="http://www.w3.org/1999/xlink" version="1.1" x="0px" y="0px" viewBox="0 0 100 100" enable-background="new 0 0 100 100" xml:space="preserve"><path d="M75.021,65.117c5.631,0,10.195-4.564,10.195-10.195V15.195C85.216,9.564,80.651,5,75.021,5H24.979  c-5.631,0-10.195,4.564-10.195,10.195v39.727c0,5.631,4.564,10.195,10.195,10.195h22.384v10.198  c-3.64,0.994-6.459,3.992-7.194,7.731H20.293c-1.456,0-2.637,1.181-2.637,2.637s1.181,2.637,2.637,2.637h20.262  C41.934,92.208,45.646,95,50,95c4.354,0,8.066-2.792,9.445-6.68h20.262c1.456,0,2.637-1.181,2.637-2.637s-1.181-2.637-2.637-2.637  H59.83c-0.733-3.739-3.554-6.737-7.193-7.731V65.117H75.021z M54.333,83.047L54.333,83.047c0.065,0.147,0.124,0.299,0.176,0.453  c0,0.001,0,0.001,0,0.002c0.025,0.075,0.048,0.15,0.068,0.227c0.001,0.004,0.002,0.008,0.004,0.012  c0.02,0.072,0.037,0.145,0.053,0.218c0.002,0.009,0.004,0.017,0.006,0.025c0.015,0.068,0.027,0.138,0.039,0.207  c0.003,0.013,0.005,0.026,0.007,0.039c0.011,0.065,0.02,0.131,0.027,0.196c0.002,0.018,0.005,0.035,0.007,0.053  c0.007,0.063,0.011,0.128,0.016,0.192c0.001,0.02,0.003,0.038,0.004,0.058c0.005,0.084,0.007,0.168,0.007,0.252  c0,0.082-0.002,0.162-0.006,0.243c-0.002,0.035-0.006,0.069-0.008,0.104c-0.004,0.045-0.006,0.091-0.011,0.135  c-0.005,0.046-0.012,0.09-0.018,0.135c-0.004,0.034-0.007,0.068-0.013,0.103c-0.008,0.053-0.019,0.105-0.028,0.158  c-0.004,0.024-0.008,0.049-0.013,0.073c-0.012,0.057-0.025,0.112-0.039,0.169c-0.005,0.02-0.009,0.04-0.014,0.06  c-0.016,0.06-0.032,0.118-0.05,0.177c-0.005,0.016-0.009,0.031-0.014,0.047c-0.02,0.063-0.041,0.126-0.063,0.188  c-0.003,0.011-0.007,0.021-0.011,0.032c-0.023,0.065-0.05,0.13-0.076,0.194c-0.003,0.007-0.005,0.013-0.008,0.02  c-0.028,0.067-0.059,0.133-0.09,0.198c-0.001,0.004-0.003,0.007-0.004,0.011c-0.032,0.067-0.066,0.133-0.102,0.198  c-0.001,0.002-0.002,0.004-0.003,0.005c-0.181,0.335-0.4,0.646-0.653,0.926c0,0,0,0-0.001,0c-0.049,0.055-0.1,0.108-0.151,0.16  c-0.224,0.228-0.471,0.432-0.737,0.61c-0.085,0.057-0.172,0.11-0.261,0.162c-0.018,0.01-0.034,0.02-0.051,0.028  c-0.091,0.052-0.184,0.102-0.279,0.146c-0.001,0.001-0.002,0.001-0.003,0.002c-0.092,0.044-0.187,0.084-0.281,0.122  c-0.021,0.008-0.04,0.017-0.061,0.024c-0.098,0.037-0.196,0.072-0.297,0.104c-0.002,0.001-0.005,0.001-0.007,0.002  c-0.097,0.03-0.195,0.056-0.295,0.08c-0.023,0.005-0.048,0.011-0.071,0.017c-0.103,0.022-0.206,0.043-0.311,0.059  c-0.002,0.001-0.004,0.001-0.006,0.001c-0.102,0.016-0.205,0.026-0.309,0.035c-0.027,0.002-0.053,0.005-0.08,0.007  c-0.107,0.007-0.214,0.012-0.323,0.012s-0.216-0.005-0.323-0.012c-0.027-0.002-0.053-0.005-0.08-0.007  c-0.104-0.009-0.207-0.02-0.309-0.035c-0.002,0-0.004,0-0.006-0.001c-0.105-0.016-0.208-0.036-0.311-0.059  c-0.024-0.006-0.048-0.012-0.072-0.017c-0.099-0.024-0.198-0.05-0.295-0.08c-0.002-0.001-0.004-0.001-0.006-0.002  c-0.101-0.031-0.199-0.066-0.296-0.104c-0.021-0.008-0.041-0.017-0.062-0.024c-0.095-0.038-0.189-0.078-0.281-0.122  c-0.001-0.001-0.002-0.001-0.003-0.002c-0.095-0.045-0.188-0.095-0.279-0.146c-0.017-0.009-0.034-0.019-0.05-0.028  c-0.089-0.052-0.176-0.105-0.262-0.162c-0.266-0.179-0.513-0.383-0.737-0.61c-0.052-0.052-0.102-0.105-0.151-0.16c0,0,0,0-0.001,0  c-0.252-0.28-0.472-0.591-0.653-0.926c-0.001-0.001-0.001-0.003-0.002-0.005c-0.035-0.065-0.069-0.131-0.101-0.198  c-0.002-0.004-0.003-0.007-0.005-0.011c-0.031-0.065-0.061-0.131-0.089-0.198c-0.003-0.007-0.005-0.013-0.008-0.02  c-0.027-0.064-0.052-0.129-0.076-0.194c-0.004-0.011-0.007-0.021-0.011-0.032c-0.022-0.062-0.043-0.124-0.063-0.188  c-0.005-0.016-0.009-0.031-0.013-0.047c-0.018-0.059-0.035-0.117-0.05-0.177c-0.005-0.02-0.009-0.04-0.014-0.06  c-0.014-0.057-0.027-0.112-0.039-0.169c-0.005-0.024-0.008-0.049-0.013-0.073c-0.01-0.053-0.02-0.105-0.028-0.158  c-0.005-0.034-0.008-0.068-0.013-0.103c-0.006-0.045-0.013-0.089-0.017-0.135c-0.004-0.044-0.007-0.09-0.01-0.135  c-0.002-0.035-0.006-0.069-0.008-0.104c-0.004-0.081-0.006-0.161-0.006-0.243c0-0.084,0.002-0.168,0.007-0.251  c0.001-0.021,0.003-0.042,0.005-0.062c0.004-0.062,0.008-0.126,0.015-0.188c0.002-0.021,0.005-0.04,0.007-0.06  c0.008-0.063,0.016-0.126,0.025-0.188c0.003-0.017,0.006-0.032,0.009-0.048c0.011-0.066,0.023-0.133,0.038-0.198  c0.002-0.012,0.005-0.022,0.008-0.034c0.016-0.07,0.032-0.14,0.051-0.208c0.002-0.007,0.004-0.015,0.006-0.021  c0.02-0.073,0.042-0.146,0.065-0.217c0.001-0.003,0.002-0.007,0.003-0.01c0.025-0.075,0.052-0.149,0.08-0.224c0,0,0,0,0-0.001  c0.029-0.075,0.061-0.15,0.094-0.224l0,0c0.367-0.819,0.958-1.517,1.697-2.012c0.085-0.057,0.173-0.11,0.262-0.162  c0.017-0.01,0.033-0.02,0.05-0.028c0.091-0.052,0.184-0.102,0.279-0.146c0.001-0.001,0.002-0.001,0.003-0.002  c0.092-0.044,0.186-0.084,0.281-0.122c0.021-0.008,0.041-0.017,0.062-0.024c0.097-0.037,0.196-0.072,0.296-0.104  c0.002-0.001,0.004-0.001,0.006-0.002c0.097-0.03,0.196-0.056,0.295-0.08c0.024-0.005,0.048-0.011,0.072-0.017  c0.103-0.022,0.206-0.043,0.311-0.059c0.002-0.001,0.004-0.001,0.006-0.001c0.102-0.016,0.205-0.026,0.309-0.035  c0.027-0.002,0.053-0.005,0.08-0.007c0.107-0.007,0.214-0.012,0.323-0.012s0.216,0.005,0.323,0.012  c0.027,0.002,0.053,0.005,0.08,0.007c0.104,0.009,0.207,0.02,0.309,0.035c0.002,0,0.004,0,0.006,0.001  c0.105,0.016,0.208,0.036,0.311,0.059c0.023,0.006,0.048,0.012,0.071,0.017c0.1,0.024,0.198,0.05,0.295,0.08  c0.002,0.001,0.005,0.001,0.007,0.002c0.101,0.031,0.199,0.066,0.297,0.104c0.021,0.008,0.04,0.017,0.061,0.024  c0.095,0.038,0.189,0.078,0.281,0.122c0.001,0.001,0.002,0.001,0.003,0.002c0.096,0.045,0.188,0.095,0.279,0.146  c0.017,0.009,0.033,0.019,0.051,0.028c0.089,0.052,0.176,0.105,0.261,0.162C53.374,81.53,53.966,82.228,54.333,83.047z   M32.599,22.051h34.803c1.456,0,2.637,1.181,2.637,2.637s-1.181,2.637-2.637,2.637H32.599c-1.457,0-2.637-1.181-2.637-2.637  S31.142,22.051,32.599,22.051z M32.599,32.598h34.803c1.456,0,2.637,1.181,2.637,2.637s-1.181,2.637-2.637,2.637H32.599  c-1.457,0-2.637-1.181-2.637-2.637S31.142,32.598,32.599,32.598z M29.962,45.781c0-1.456,1.18-2.637,2.637-2.637h34.803  c1.456,0,2.637,1.181,2.637,2.637s-1.181,2.637-2.637,2.637H32.599C31.142,48.418,29.962,47.237,29.962,45.781z"></path></svg>