<?xml version="1.0" encoding="UTF-8" standalone="no"?>
<svg
   xmlns:dc="http://purl.org/dc/elements/1.1/"
   xmlns:cc="http://creativecommons.org/ns#"
   xmlns:rdf="http://www.w3.org/1999/02/22-rdf-syntax-ns#"
   xmlns:svg="http://www.w3.org/2000/svg"
   xmlns="http://www.w3.org/2000/svg"
   xmlns:sodipodi="http://sodipodi.sourceforge.net/DTD/sodipodi-0.dtd"
   xmlns:inkscape="http://www.inkscape.org/namespaces/inkscape"
   version="1.1"
   x="0px"
   y="0px"
   viewBox="0 0 100 100"
   enable-background="new 0 0 100 100"
   xml:space="preserve"
   id="svg4164"
   inkscape:version="0.91 r13725"
   sodipodi:docname="NotIsInListTerm.svg"><metadata
     id="metadata4182"><rdf:RDF><cc:Work
         rdf:about=""><dc:format>image/svg+xml</dc:format><dc:type
           rdf:resource="http://purl.org/dc/dcmitype/StillImage" /><dc:title></dc:title></cc:Work></rdf:RDF></metadata><defs
     id="defs4180" /><sodipodi:namedview
     pagecolor="#ffffff"
     bordercolor="#666666"
     borderopacity="1"
     objecttolerance="10"
     gridtolerance="10"
     guidetolerance="10"
     inkscape:pageopacity="0"
     inkscape:pageshadow="2"
     inkscape:window-width="1920"
     inkscape:window-height="1138"
     id="namedview4178"
     showgrid="false"
     inkscape:zoom="3.337544"
     inkscape:cx="82.763596"
     inkscape:cy="57.555368"
     inkscape:window-x="1192"
     inkscape:window-y="144"
     inkscape:window-maximized="1"
     inkscape:current-layer="svg4164" /><path
     d="M84.343,34.953c0,2-1.622,3.622-3.622,3.622H34.847c-2,0-3.622-1.621-3.622-3.622l0,0c0-2,1.622-3.622,3.622-3.622h45.874  C82.721,31.331,84.343,32.953,84.343,34.953L84.343,34.953z"
     id="path4166" /><circle
     cx="20.36"
     cy="34.953"
     r="6.036"
     id="circle4168" /><path
     d="M84.343,51.25c0,2-1.622,3.621-3.622,3.621H34.847c-2,0-3.622-1.621-3.622-3.621l0,0c0-2,1.622-3.622,3.622-3.622h45.874  C82.721,47.628,84.343,49.25,84.343,51.25L84.343,51.25z"
     id="path4170" /><circle
     cx="20.36"
     cy="51.25"
     r="6.036"
     id="circle4172" /><path
     d="M84.343,67.547c0,2-1.622,3.621-3.622,3.621H34.847c-2,0-3.622-1.621-3.622-3.621l0,0c0-2,1.622-3.621,3.622-3.621h45.874  C82.721,63.926,84.343,65.547,84.343,67.547L84.343,67.547z"
     id="path4174" /><circle
     cx="20.36"
     cy="67.547"
     r="6.036"
     id="circle4176" /><path
     style="fill:none;fill-rule:evenodd;stroke:#000000;stroke-width:5.41068649;stroke-linecap:round;stroke-linejoin:miter;stroke-miterlimit:4;stroke-dasharray:none;stroke-opacity:1"
     d="M 31.320305,31.457642 83.972683,70.434488"
     id="path4728"
     inkscape:connector-curvature="0" /></svg>