<svg xmlns="http://www.w3.org/2000/svg" xmlns:xlink="http://www.w3.org/1999/xlink" version="1.1" x="0px" y="0px" viewBox="0 0 64 25" enable-background="new 0 0 64 25" xml:space="preserve"><g><path fill="#000000" d="M36.993,21.902c-5.096,0-9.242-4.144-9.242-9.236s4.146-9.236,9.242-9.236c5.094,0,9.237,4.144,9.237,9.236   S42.087,21.902,36.993,21.902z M36.993,5.879c-3.745,0-6.792,3.045-6.792,6.787s3.047,6.787,6.792,6.787   c3.743,0,6.788-3.045,6.788-6.787S40.736,5.879,36.993,5.879z"></path><g><rect x="52.691" y="-1.849" transform="matrix(0.2726 0.9621 -0.9621 0.2726 43.6924 -48.4909)" fill="#000000" width="2.45" height="12.999"></rect><rect x="47.416" y="18.774" transform="matrix(0.9622 0.2723 -0.2723 0.9622 7.4842 -13.927)" fill="#000000" width="12.999" height="2.45"></rect><rect x="48.402" y="11.441" fill="#000000" width="13.098" height="2.449"></rect></g><g><rect x="52.691" y="-1.849" transform="matrix(0.2726 0.9621 -0.9621 0.2726 43.6924 -48.4909)" fill="#000000" width="2.45" height="12.999"></rect><rect x="47.416" y="18.774" transform="matrix(0.9622 0.2723 -0.2723 0.9622 7.4842 -13.927)" fill="#000000" width="12.999" height="2.45"></rect><rect x="48.402" y="11.441" fill="#000000" width="13.098" height="2.449"></rect></g><path fill="#000000" d="M27.021,22.252c-5.096,0-9.242-4.144-9.242-9.237c0-5.093,4.146-9.236,9.242-9.236   c5.095,0,9.239,4.144,9.239,9.236C36.26,18.108,32.116,22.252,27.021,22.252z M27.021,6.228c-3.745,0-6.792,3.045-6.792,6.787   c0,3.743,3.047,6.788,6.792,6.788c3.744,0,6.79-3.045,6.79-6.788C33.811,9.272,30.765,6.228,27.021,6.228z"></path><g><rect x="3.594" y="3.77" transform="matrix(0.9621 0.2727 -0.2727 0.9621 1.7453 -2.5647)" fill="#000000" width="13.008" height="2.45"></rect><rect x="8.873" y="13.84" transform="matrix(0.2726 0.9621 -0.9621 0.2726 26.9187 5.0827)" fill="#000000" width="2.45" height="13.008"></rect><rect x="2.5" y="11.79" fill="#000000" width="13.109" height="2.449"></rect></g><g><rect x="3.594" y="3.77" transform="matrix(0.9621 0.2727 -0.2727 0.9621 1.7453 -2.5647)" fill="#000000" width="13.008" height="2.45"></rect><rect x="8.873" y="13.84" transform="matrix(0.2726 0.9621 -0.9621 0.2726 26.9187 5.0827)" fill="#000000" width="2.45" height="13.008"></rect><rect x="2.5" y="11.79" fill="#000000" width="13.109" height="2.449"></rect></g></g></svg>