<?xml version="1.0" encoding="UTF-8" standalone="no"?>
<svg
   xmlns:dc="http://purl.org/dc/elements/1.1/"
   xmlns:cc="http://creativecommons.org/ns#"
   xmlns:rdf="http://www.w3.org/1999/02/22-rdf-syntax-ns#"
   xmlns:svg="http://www.w3.org/2000/svg"
   xmlns="http://www.w3.org/2000/svg"
   xmlns:sodipodi="http://sodipodi.sourceforge.net/DTD/sodipodi-0.dtd"
   xmlns:inkscape="http://www.inkscape.org/namespaces/inkscape"
   version="1.1"
   x="0px"
   y="0px"
   viewBox="0 0 100 125"
   style="enable-background:new 0 0 100 100;"
   xml:space="preserve"
   id="svg5886"
   inkscape:version="0.91 r13725"
   sodipodi:docname="Parsing.svg"><metadata
     id="metadata5904"><rdf:RDF><cc:Work
         rdf:about=""><dc:format>image/svg+xml</dc:format><dc:type
           rdf:resource="http://purl.org/dc/dcmitype/StillImage" /></cc:Work></rdf:RDF></metadata><defs
     id="defs5902" /><sodipodi:namedview
     pagecolor="#ffffff"
     bordercolor="#666666"
     borderopacity="1"
     objecttolerance="10"
     gridtolerance="10"
     guidetolerance="10"
     inkscape:pageopacity="0"
     inkscape:pageshadow="2"
     inkscape:window-width="1920"
     inkscape:window-height="1138"
     id="namedview5900"
     showgrid="false"
     inkscape:zoom="1.888"
     inkscape:cx="50"
     inkscape:cy="62.5"
     inkscape:window-x="1192"
     inkscape:window-y="144"
     inkscape:window-maximized="1"
     inkscape:current-layer="svg5886" /><path
     d="M92.5,5h-85C6.1,5,5,6.1,5,7.5v20C5,28.9,6.1,30,7.5,30H40v10H30c-2.2,0-3.3,2.7-1.8,4.3l20,20c1,1,2.6,1,3.5,0l20-20  c1.5-1.5,0.4-4.3-1.8-4.3H60V30h32.5c1.4,0,2.5-1.1,2.5-2.5v-20C95,6.1,93.9,5,92.5,5z M90,25H57.5c-1.4,0-2.5,1.1-2.5,2.5v15  c0,1.4,1.1,2.5,2.5,2.5H64L50,59L36,45h6.5c1.4,0,2.5-1.1,2.5-2.5v-15c0-1.4-1.1-2.5-2.5-2.5H10V10h80V25z"
     id="path5888" /><path
     d="M40,95h20c1.4,0,2.5-1.1,2.5-2.5v-20c0-1.4-1.1-2.5-2.5-2.5H40c-1.4,0-2.5,1.1-2.5,2.5v20C37.5,93.9,38.6,95,40,95z   M42.5,75h15v15h-15V75z"
     id="path5890" /><path
     d="M7.5,95h20c1.4,0,2.5-1.1,2.5-2.5v-20c0-1.4-1.1-2.5-2.5-2.5h-20C6.1,70,5,71.1,5,72.5v20C5,93.9,6.1,95,7.5,95z M10,75h15  v15H10V75z"
     id="path5892" /><path
     d="M92.5,70h-20c-1.4,0-2.5,1.1-2.5,2.5v20c0,1.4,1.1,2.5,2.5,2.5h20c1.4,0,2.5-1.1,2.5-2.5v-20C95,71.1,93.9,70,92.5,70z   M90,90H75V75h15V90z"
     id="path5894" /></svg>