<?xml version="1.0" encoding="UTF-8" standalone="no"?>
<svg
   xmlns:dc="http://purl.org/dc/elements/1.1/"
   xmlns:cc="http://creativecommons.org/ns#"
   xmlns:rdf="http://www.w3.org/1999/02/22-rdf-syntax-ns#"
   xmlns:svg="http://www.w3.org/2000/svg"
   xmlns="http://www.w3.org/2000/svg"
   xmlns:sodipodi="http://sodipodi.sourceforge.net/DTD/sodipodi-0.dtd"
   xmlns:inkscape="http://www.inkscape.org/namespaces/inkscape"
   version="1.1"
   x="0px"
   y="0px"
   viewBox="0 0 100 125"
   id="svg9576"
   inkscape:version="0.91 r13725"
   sodipodi:docname="paste.svg">
  <metadata
     id="metadata9598">
    <rdf:RDF>
      <cc:Work
         rdf:about="">
        <dc:format>image/svg+xml</dc:format>
        <dc:type
           rdf:resource="http://purl.org/dc/dcmitype/StillImage" />
      </cc:Work>
    </rdf:RDF>
  </metadata>
  <defs
     id="defs9596" />
  <sodipodi:namedview
     pagecolor="#ffffff"
     bordercolor="#666666"
     borderopacity="1"
     objecttolerance="10"
     gridtolerance="10"
     guidetolerance="10"
     inkscape:pageopacity="0"
     inkscape:pageshadow="2"
     inkscape:window-width="1920"
     inkscape:window-height="1138"
     id="namedview9594"
     showgrid="false"
     inkscape:zoom="1.888"
     inkscape:cx="50"
     inkscape:cy="62.5"
     inkscape:window-x="1192"
     inkscape:window-y="144"
     inkscape:window-maximized="1"
     inkscape:current-layer="svg9576" />
  <g
     transform="translate(0,-952.36217)"
     id="g9578">
    <g
       style=""
       transform="matrix(4.1691264,0,0,4.1691264,4400.0291,1049.6013)"
       fill="#000000"
       fill-opacity="1"
       stroke="none"
       id="g9580">
      <g
         transform="matrix(1.0601271,0,0,1.0601271,-990.04224,-1023.1249)"
         id="g9582">
        <g
           transform="matrix(0.72406155,0,0,0.72406155,188.84286,235.29874)"
           id="g9584">
          <g
             id="g9586">
            <path
               style="text-indent:0;text-transform:none;direction:ltr;block-progression:tb;baseline-shift:baseline;color:#000000;enable-background:accumulate;"
               d="M 52.40625 14.46875 L 52.40625 15.96875 L 52.40625 34.46875 L 49.5 34.46875 L 49.5 27.96875 L 49.5 26.46875 L 48 26.46875 L 32 26.46875 L 30.5 26.46875 L 30.5 27.96875 L 30.5 34.46875 L 16 34.46875 C 12.978938 34.46875 10.5 36.94772 10.5 39.96875 L 10.5 80 C 10.5 83.020998 12.978874 85.5 16 85.5 L 64 85.5 C 67.021126 85.5 69.5 83.020998 69.5 80 L 69.5 61.5 L 88 61.5 L 89.5 61.5 L 89.5 60 L 89.5 26.96875 L 89.5 25.46875 L 89.5 23.96875 L 89.5 23.375 L 89.09375 22.96875 L 81.09375 14.96875 L 80.6875 14.46875 L 80.59375 14.46875 L 80 14.46875 L 75.6875 14.46875 L 53.90625 14.46875 L 52.40625 14.46875 z M 55.40625 17.46875 L 75.6875 17.46875 L 75.6875 25.46875 L 75.6875 26.96875 L 77.1875 26.96875 L 86.5 26.96875 L 86.5 58.5 L 69.5 58.5 L 69.5 39.96875 C 69.5 36.94772 67.021062 34.46875 64 34.46875 L 55.40625 34.46875 L 55.40625 17.46875 z M 78.6875 17.46875 L 79.3125 17.46875 L 84.71875 22.875 L 85.78125 23.96875 L 78.6875 23.96875 L 78.6875 17.46875 z M 33.5 29.46875 L 46.5 29.46875 L 46.5 34.46875 L 33.5 34.46875 L 33.5 29.46875 z M 16 37.46875 L 25.125 37.46875 C 24.729472 38.226417 24.5 39.060502 24.5 39.96875 C 24.5 42.989812 26.97897 45.5 30 45.5 L 50 45.5 C 53.021062 45.5 55.5 42.989812 55.5 39.96875 C 55.5 39.060511 55.270528 38.226416 54.875 37.46875 L 64 37.46875 C 65.410973 37.46875 66.5 38.557809 66.5 39.96875 L 66.5 80 C 66.5 81.410973 65.410909 82.5 64 82.5 L 16 82.5 C 14.589091 82.5 13.5 81.410973 13.5 80 L 13.5 39.96875 C 13.5 38.557809 14.589027 37.46875 16 37.46875 z M 30 37.46875 L 50 37.46875 C 51.410973 37.46875 52.5 38.557809 52.5 39.96875 C 52.5 41.379723 51.410973 42.5 50 42.5 L 30 42.5 C 28.589059 42.5 27.5 41.379723 27.5 39.96875 C 27.5 38.557841 28.589091 37.46875 30 37.46875 z M 58.1875 50.5 L 21.78125 50.59375 L 21.78125 53.59375 L 58.3125 53.5 L 58.1875 50.5 z M 58.1875 58.375 L 21.78125 58.59375 L 21.78125 61.59375 L 58.3125 61.375 L 58.1875 58.375 z M 58.1875 66.375 L 21.6875 66.59375 L 21.78125 69.59375 L 58.1875 69.375 L 58.1875 66.375 z M 58.1875 74.59375 L 21.6875 74.78125 L 21.78125 77.78125 L 58.1875 77.59375 L 58.1875 74.59375 z "
               transform="matrix(0.31247949,0,0,0.31247949,-345.9355,977.53696)"
               fill="#000000"
               fill-opacity="1"
               stroke="none"
               marker="none"
               visibility="visible"
               display="inline"
               overflow="visible"
               id="path9588" />
          </g>
        </g>
      </g>
    </g>
  </g>
</svg>
