<svg xmlns="http://www.w3.org/2000/svg" xmlns:xlink="http://www.w3.org/1999/xlink" xmlns:sketch="http://www.bohemiancoding.com/sketch/ns" viewBox="0 0 30 30" version="1.1" x="0px" y="0px"><title>chat_020-writing-write-pen-pencil-edit</title><desc>Created with Sketch.</desc><g stroke="none" stroke-width="1" fill="none" fill-rule="evenodd" sketch:type="MSPage"><g sketch:type="MSArtboardGroup" transform="translate(-450.000000, -90.000000)" fill="#000000"><path d="M469.767572,109.317939 L477.545747,101.539764 L474.71732,98.711337 L466.939145,106.489512 L465.868467,110.388617 L469.767572,109.317939 Z M468.951238,108.501604 L467.755479,107.305846 L467.289353,108.96773 L468.951238,108.501604 Z M455.309401,109 L454.732051,110 L453.57735,110 L453,109 L453.57735,108 L454.732051,108 L455.309401,109 Z M459.309401,109 L458.732051,110 L457.57735,110 L457,109 L457.57735,108 L458.732051,108 L459.309401,109 Z M463.309401,109 L462.732051,110 L461.57735,110 L461,109 L461.57735,108 L462.732051,108 L463.309401,109 Z M473.303106,101.539764 L474.71732,102.953978 L469.767572,107.903725 L468.353359,106.489512 L473.303106,101.539764 Z M474.71732,100.125551 L476.131533,101.539764 L475.424426,102.246871 L474.010213,100.832657 L474.71732,100.125551 Z" sketch:type="MSShapeGroup"></path></g></g></svg>