<svg xmlns="http://www.w3.org/2000/svg" viewBox="0 0 96 120" x="0px" y="0px"><title>part7glyph</title><path d="M13.12,77.22a4,4,0,0,0,5.66,5.66L40,61.67a2,2,0,0,1,2.83,0L55.41,74.26c.06.06.13.1.2.16s.11.12.17.17l.15.09.25.17a3.84,3.84,0,0,0,.4.21l.26.11a3.64,3.64,0,0,0,.47.14l.22,0a3.35,3.35,0,0,0,.71.07h0a3.84,3.84,0,0,0,.83-.09l.25-.07a4.93,4.93,0,0,0,.54-.19l.29-.15.45-.28.27-.23c.07-.06.14-.1.2-.16a2,2,0,0,0,.18-.23l.15-.14A28.08,28.08,0,0,0,67,52.8a2,2,0,0,1,.56-1.71L81.71,36.92a8,8,0,0,0,0-11.32L70.4,14.29a8,8,0,0,0-11.32,0L44.91,28.46A2,2,0,0,1,43.2,29,28.1,28.1,0,0,0,22.11,34.6l-.18.17-.19.16-.1.12a2.69,2.69,0,0,0-.26.33,2.18,2.18,0,0,0-.22.31A3.9,3.9,0,0,0,21,36a3.68,3.68,0,0,0-.15.35c0,.12-.08.24-.11.36s-.06.26-.08.39,0,.24,0,.37,0,.26,0,.38a2.58,2.58,0,0,0,0,.39,2.71,2.71,0,0,0,.06.38c0,.12.07.24.11.36a2.92,2.92,0,0,0,.14.38c.05.11.11.22.17.33s.15.24.23.36l.08.13.17.17a1.56,1.56,0,0,0,.16.2L34.33,53.18a2,2,0,0,1,0,2.83Z"/></svg>