<svg xmlns:dc="http://purl.org/dc/elements/1.1/" xmlns:cc="http://creativecommons.org/ns#" xmlns:rdf="http://www.w3.org/1999/02/22-rdf-syntax-ns#" xmlns:svg="http://www.w3.org/2000/svg" xmlns="http://www.w3.org/2000/svg" xmlns:sodipodi="http://sodipodi.sourceforge.net/DTD/sodipodi-0.dtd" xmlns:inkscape="http://www.inkscape.org/namespaces/inkscape" version="1.1" x="0px" y="0px" viewBox="0 0 100 125"><g transform="translate(0,-952.36215)"><path style="text-indent:0;text-transform:none;direction:ltr;block-progression:tb;baseline-shift:baseline;color:#000000;enable-background:accumulate;" d="M 27.8125,970.36435 A 2.0001996,2.0001309 0 0 0 26,972.36428 l 0,25.99911 -10,0 a 2.0001996,2.0001309 0 0 0 -0.1875,0 A 2.0001996,2.0001309 0 0 0 14,1000.3633 l 0,21.9993 a 2.0001996,2.0001309 0 0 0 2,1.9999 l 10,0 0,7.9997 a 2.0001999,2.0001312 0 0 0 2,2 l 44,0 a 2.0001999,2.0001312 0 0 0 2,-2 l 0,-7.9997 10,0 a 2.0001996,2.0001309 0 0 0 2,-1.9999 l 0,-21.9993 a 2.0001996,2.0001309 0 0 0 -2,-1.99991 l -10,0 0,-11.99959 a 2.0001996,2.0001309 0 0 0 -0.59375,-1.43745 l -14,-13.99952 A 2.0001996,2.0001309 0 0 0 58,970.36435 l -30,0 a 2.0001996,2.0001309 0 0 0 -0.1875,0 z m 2.1875,3.99986 26,0 0,11.99959 a 2.0001996,2.0001309 0 0 0 2,1.99993 l 12,0 0,13.99947 -40,0 0,-27.99899 z m 30,2.8124 7.1875,7.18726 -7.1875,0 0,-7.18726 z m -42,25.18659 8,0 0,2 a 2.0001996,2.0001309 0 0 0 2,1.9999 l 44,0 a 2.0001996,2.0001309 0 0 0 2,-1.9999 l 0,-2 8,0 0,17.9994 -8,0 0,-5.9998 a 2.0001999,2.0001312 0 0 0 -2,-1.9999 l -44,0 a 2.0001999,2.0001312 0 0 0 -0.1875,0 2.0001999,2.0001312 0 0 0 -1.8125,1.9999 l 0,5.9998 -8,0 0,-17.9994 z m 12,13.9996 40,0 0,13.9995 -40,0 0,-13.9995 z" fill="#000000" fill-opacity="1" stroke="none" marker="none" visibility="visible" display="inline" overflow="visible"/></g></svg>