<svg xmlns="http://www.w3.org/2000/svg" xmlns:xlink="http://www.w3.org/1999/xlink" version="1.1" x="0px" y="0px" viewBox="0 0 100 125" enable-background="new 0 0 100 100" xml:space="preserve"><path d="M89.406,78.919V7.844c0-1.555-1.259-2.814-2.814-2.814c-1.555,0-2.814,1.258-2.814,2.814v8.441h-0.142  c-0.652-3.211-3.489-5.627-6.892-5.627c-3.403,0-6.24,2.416-6.892,5.627H58.315c-0.652-3.211-3.489-5.627-6.892-5.627  c-3.403,0-6.24,2.416-6.892,5.627h-0.284c-0.652-3.211-3.489-5.627-6.892-5.627s-6.24,2.416-6.892,5.627H30.18  c-0.652-3.211-3.489-5.627-6.892-5.627s-6.24,2.416-6.892,5.627h-0.142V7.844c0-1.555-1.259-2.814-2.814-2.814  s-2.814,1.258-2.814,2.814v71.075C7.357,80.082,5,83.172,5,86.843v2.594v0.22v2.594h90.033v-2.594v-0.22v-2.594  C95.033,83.172,92.676,80.082,89.406,78.919z M16.254,19.098h0.142c0.652,3.211,3.489,5.627,6.892,5.627s6.24-2.416,6.892-5.627  h0.284c0.652,3.211,3.489,5.627,6.892,5.627s6.24-2.416,6.892-5.627h0.284c0.652,3.211,3.489,5.627,6.892,5.627  c3.403,0,6.24-2.416,6.892-5.627h11.538c0.652,3.211,3.489,5.627,6.892,5.627c3.403,0,6.24-2.416,6.892-5.627h0.142v16.881h-0.142  c-0.652-3.211-3.489-5.627-6.892-5.627c-3.403,0-6.24,2.416-6.892,5.627H69.57c-0.652-3.211-3.489-5.627-6.892-5.627  s-6.24,2.416-6.892,5.627h-0.284c-0.652-3.211-3.489-5.627-6.892-5.627s-6.24,2.416-6.892,5.627H30.18  c-0.652-3.211-3.489-5.627-6.892-5.627s-6.24,2.416-6.892,5.627h-0.142V19.098z M16.254,38.793h0.142  c0.652,3.211,3.489,5.627,6.892,5.627s6.24-2.416,6.892-5.627h11.538c0.652,3.211,3.489,5.627,6.892,5.627s6.24-2.416,6.892-5.627  h0.284c0.652,3.211,3.489,5.627,6.892,5.627s6.24-2.416,6.892-5.627h0.284c0.652,3.211,3.489,5.627,6.892,5.627  c3.403,0,6.24-2.416,6.892-5.627h0.142v16.881h-0.142c-0.652-3.211-3.489-5.627-6.892-5.627c-3.403,0-6.24,2.416-6.892,5.627H69.57  c-0.652-3.211-3.489-5.627-6.892-5.627s-6.24,2.416-6.892,5.627H44.248c-0.652-3.211-3.489-5.627-6.892-5.627  s-6.24,2.416-6.892,5.627H30.18c-0.652-3.211-3.489-5.627-6.892-5.627s-6.24,2.416-6.892,5.627h-0.142V38.793z M16.396,58.488  c0.652,3.211,3.489,5.627,6.892,5.627s6.24-2.416,6.892-5.627h0.284c0.652,3.211,3.489,5.627,6.892,5.627s6.24-2.416,6.892-5.627  h11.538c0.652,3.211,3.489,5.627,6.892,5.627s6.24-2.416,6.892-5.627h0.284c0.652,3.211,3.489,5.627,6.892,5.627  c3.403,0,6.24-2.416,6.892-5.627h0.142v19.914H16.254V58.488H16.396z"/><text x="0" y="115" fill="#000000" font-size="5px" font-weight="bold" font-family="'Helvetica Neue', Helvetica, Arial-Unicode, Arial, Sans-serif">Created by Michael Hýža</text><text x="0" y="120" fill="#000000" font-size="5px" font-weight="bold" font-family="'Helvetica Neue', Helvetica, Arial-Unicode, Arial, Sans-serif">from the Noun Project</text></svg>