<svg width="100" height="125" xmlns="http://www.w3.org/2000/svg">

 <g>
  <title>background</title>
  <rect fill="none" id="canvas_background" height="402" width="582" y="-1" x="-1"/>
 </g>
 <g>
  <title>Layer 1</title>
  <path id="svg_1" d="m92.5,61.25l-10,0l0,-2.5c0,-0.946999 -0.535004,-1.813 -1.382004,-2.236l-10,-5c-0.773994,-0.388 -1.695999,-0.346001 -2.432999,0.109001c-0.737,0.455997 -1.185997,1.259998 -1.185997,2.125999l0,5l-35,0l0,-5c0,-0.866001 -0.448002,-1.671001 -1.186001,-2.125999c-0.736,-0.456001 -1.657,-0.497002 -2.433001,-0.109001l-10,5c-0.844999,0.424 -1.379999,1.289001 -1.379999,2.236l0,2.5l-10,0c-1.381,0 -2.5,1.118999 -2.5,2.5s1.119,2.5 2.5,2.5l10,0l0,5c0,1.380997 1.118999,2.5 2.5,2.5l10,0c1.381001,0 2.5,-1.119003 2.5,-2.5l0,-2.5l35,0l0,2.5c0,1.380997 1.119003,2.5 2.5,2.5l10,0c1.380997,0 2.5,-1.119003 2.5,-2.5l0,-5l10,0c1.380997,0 2.5,-1.119003 2.5,-2.5s-1.119003,-2.5 -2.5,-2.5zm-65,7.5l-5,0l0,-8.455002l5,-2.5l0,10.955002zm50,0l-5,0l0,-10.955002l5,2.5l0,8.455002z"/>
 </g>
</svg>