<svg xmlns="http://www.w3.org/2000/svg" xmlns:xlink="http://www.w3.org/1999/xlink" version="1.1" x="0px" y="0px" viewBox="0 0 100 100" enable-background="new 0 0 100 100" xml:space="preserve"><path d="M20.5,49.771c0-12.75,8.218-23.942,20.02-27.939l1.563,5.408L50,15.823l-12.793-5.458l1.37,4.741  C23.812,19.964,13.5,33.888,13.5,49.771c0,17.41,12.387,32.472,29.452,35.813l1.346-6.869C30.509,76.015,20.5,63.842,20.5,49.771z   M86.5,49.771c0-17.41-12.387-32.472-29.452-35.813l-1.346,6.869C69.491,23.527,79.5,35.7,79.5,49.771  c0,12.793-8.274,24.016-20.141,27.978l-1.441-4.989L50,84.177l12.793,5.458l-1.491-5.161C76.132,79.652,86.5,65.697,86.5,49.771z"></path></svg>