<?xml version="1.0" encoding="UTF-8" standalone="no"?>
<svg
   xmlns:dc="http://purl.org/dc/elements/1.1/"
   xmlns:cc="http://creativecommons.org/ns#"
   xmlns:rdf="http://www.w3.org/1999/02/22-rdf-syntax-ns#"
   xmlns:svg="http://www.w3.org/2000/svg"
   xmlns="http://www.w3.org/2000/svg"
   xmlns:sodipodi="http://sodipodi.sourceforge.net/DTD/sodipodi-0.dtd"
   xmlns:inkscape="http://www.inkscape.org/namespaces/inkscape"
   viewBox="0 0 75 93.75"
   version="1.1"
   x="0px"
   y="0px"
   id="svg6446"
   inkscape:version="0.91 r13725"
   sodipodi:docname="Relay.svg">
  <metadata
     id="metadata6466">
    <rdf:RDF>
      <cc:Work
         rdf:about="">
        <dc:format>image/svg+xml</dc:format>
        <dc:type
           rdf:resource="http://purl.org/dc/dcmitype/StillImage" />
      </cc:Work>
    </rdf:RDF>
  </metadata>
  <defs
     id="defs6464" />
  <sodipodi:namedview
     pagecolor="#ffffff"
     bordercolor="#666666"
     borderopacity="1"
     objecttolerance="10"
     gridtolerance="10"
     guidetolerance="10"
     inkscape:pageopacity="0"
     inkscape:pageshadow="2"
     inkscape:window-width="1920"
     inkscape:window-height="1138"
     id="namedview6462"
     showgrid="false"
     inkscape:zoom="2.5173333"
     inkscape:cx="37.5"
     inkscape:cy="46.875"
     inkscape:window-x="1192"
     inkscape:window-y="144"
     inkscape:window-maximized="1"
     inkscape:current-layer="svg6446" />
  <g
     id="g6448">
    <path
       style=""
       d="M 10.351562 31.226562 C 8.03125 31.226562 6.023438 32.5 4.9375 34.375 L 0 34.375 L 0 40.625 L 4.9375 40.625 C 6.023438 42.5 8.03125 43.773438 10.351562 43.773438 C 13.816406 43.773438 16.625 40.964844 16.625 37.5 C 16.625 34.035156 13.816406 31.226562 10.351562 31.226562 Z M 10.351562 31.226562 "
       stroke="none"
       fill-rule="nonzero"
       fill="rgb(0%,0%,0%)"
       fill-opacity="1"
       id="path6450" />
    <path
       style=""
       d="M 43.570312 63.996094 C 45.441406 62.910156 46.71875 60.902344 46.71875 58.585938 C 46.71875 55.117188 43.90625 52.308594 40.445312 52.308594 C 36.980469 52.308594 34.167969 55.117188 34.167969 58.585938 C 34.167969 60.890625 35.433594 62.886719 37.289062 63.976562 L 37.289062 72.460938 L 75 72.460938 L 75 66.210938 L 43.570312 66.210938 Z M 43.570312 63.996094 "
       stroke="none"
       fill-rule="nonzero"
       fill="rgb(0%,0%,0%)"
       fill-opacity="1"
       id="path6452" />
    <path
       style=""
       d="M 37.289062 2.515625 L 37.289062 10.390625 C 35.429688 11.480469 34.164062 13.476562 34.164062 15.785156 C 34.164062 19.25 36.976562 22.058594 40.441406 22.058594 C 43.90625 22.058594 46.714844 19.25 46.714844 15.785156 C 46.714844 13.464844 45.441406 11.457031 43.566406 10.375 L 43.566406 8.765625 L 75 8.765625 L 75 2.515625 Z M 37.289062 2.515625 "
       stroke="none"
       fill-rule="nonzero"
       fill="rgb(0%,0%,0%)"
       fill-opacity="1"
       id="path6454" />
    <path
       style=""
       d="M 48.078125 20.605469 L 49.195312 23.523438 L 8.867188 38.957031 L 7.75 36.035156 Z M 48.078125 20.605469 "
       stroke="none"
       fill-rule="nonzero"
       fill="rgb(0%,0%,0%)"
       fill-opacity="1"
       id="path6456" />
  </g>
</svg>
