<svg xmlns="http://www.w3.org/2000/svg" xmlns:xlink="http://www.w3.org/1999/xlink" version="1.1" x="0px" y="0px" viewBox="0 0 100 100" enable-background="new 0 0 100 100" xml:space="preserve"><g><path d="M50,65.721c-2.617,0-4.746,2.129-4.746,4.746c0,2.616,2.129,4.746,4.746,4.746s4.746-2.13,4.746-4.746   C54.746,67.85,52.617,65.721,50,65.721z"></path><path d="M75.021,5H24.979c-5.631,0-10.195,4.564-10.195,10.195v69.609C14.784,90.436,19.348,95,24.979,95h50.042   c5.631,0,10.195-4.564,10.195-10.195V15.195C85.216,9.564,80.651,5,75.021,5z M69.102,44.202h-2.402v5.797   c0,1.087-0.658,2.02-1.597,2.423c-0.111,0.188-0.244,0.365-0.404,0.526l-9.169,9.168c2.704,1.796,4.49,4.868,4.49,8.35   c0,5.525-4.494,10.02-10.02,10.02c-5.525,0-10.02-4.494-10.02-10.02c0-3.481,1.787-6.554,4.49-8.35l-9.168-9.168   c-0.161-0.161-0.293-0.339-0.404-0.526c-0.939-0.403-1.597-1.336-1.597-2.423v-6.542c-1.441-0.887-2.402-2.478-2.402-4.294   c0-2.783,2.256-5.039,5.039-5.039s5.039,2.256,5.039,5.039c0,1.816-0.961,3.408-2.402,4.294v5.398   c0.162,0.103,0.315,0.222,0.457,0.363l8.332,8.333V29.284h-3.51c-0.979,0-1.876-0.542-2.333-1.407   c-0.457-0.866-0.396-1.913,0.158-2.72l6.146-8.964c0.008-0.012,0.018-0.023,0.026-0.035c0.021-0.03,0.044-0.06,0.067-0.089   c0.021-0.027,0.042-0.053,0.063-0.079c0.023-0.027,0.046-0.054,0.07-0.08c0.024-0.026,0.047-0.052,0.072-0.077   c0.024-0.024,0.048-0.047,0.073-0.071c0.026-0.024,0.052-0.049,0.079-0.072c0.025-0.022,0.052-0.043,0.078-0.064   c0.027-0.022,0.055-0.044,0.083-0.065c0.028-0.02,0.056-0.04,0.084-0.059c0.029-0.02,0.058-0.039,0.088-0.058   c0.029-0.018,0.059-0.035,0.089-0.052c0.03-0.017,0.061-0.035,0.092-0.051c0.03-0.015,0.061-0.03,0.091-0.044   c0.033-0.016,0.066-0.031,0.1-0.045c0.03-0.013,0.061-0.024,0.091-0.036c0.036-0.013,0.071-0.026,0.108-0.038   c0.013-0.005,0.026-0.01,0.04-0.014c0.018-0.005,0.035-0.009,0.052-0.014c0.037-0.01,0.074-0.021,0.111-0.029   c0.032-0.008,0.063-0.015,0.096-0.021c0.036-0.008,0.072-0.014,0.108-0.02c0.034-0.005,0.067-0.01,0.101-0.014   c0.035-0.004,0.07-0.008,0.105-0.011c0.035-0.003,0.069-0.005,0.104-0.006c0.035-0.001,0.07-0.002,0.104-0.002s0.069,0,0.104,0.002   s0.069,0.003,0.104,0.006c0.036,0.003,0.07,0.006,0.105,0.011c0.034,0.004,0.067,0.009,0.101,0.014   c0.036,0.005,0.072,0.012,0.107,0.02c0.032,0.006,0.064,0.013,0.096,0.021c0.037,0.009,0.074,0.019,0.11,0.029   c0.018,0.005,0.035,0.009,0.053,0.014c0.014,0.004,0.027,0.01,0.041,0.015c0.036,0.011,0.071,0.024,0.106,0.038   c0.031,0.011,0.062,0.023,0.092,0.036c0.033,0.014,0.065,0.029,0.099,0.044c0.031,0.015,0.062,0.029,0.093,0.045   c0.03,0.016,0.061,0.033,0.091,0.05c0.03,0.018,0.061,0.035,0.091,0.053c0.028,0.018,0.058,0.037,0.086,0.057   c0.029,0.02,0.058,0.039,0.085,0.06c0.028,0.021,0.056,0.042,0.083,0.064c0.027,0.021,0.054,0.042,0.079,0.065   c0.027,0.023,0.053,0.047,0.078,0.072c0.025,0.023,0.05,0.047,0.074,0.071c0.024,0.025,0.048,0.051,0.071,0.077   s0.047,0.052,0.07,0.08c0.021,0.025,0.042,0.052,0.062,0.079c0.022,0.029,0.045,0.059,0.066,0.089   c0.009,0.012,0.019,0.023,0.026,0.035l6.146,8.965c0.553,0.807,0.614,1.854,0.158,2.72s-1.354,1.408-2.333,1.408h-3.51v28.267   l8.332-8.333c0.142-0.141,0.295-0.261,0.457-0.363v-4.654h-2.402V34.125h10.078V44.202L69.102,44.202z"></path></g></svg>