<?xml version="1.0" encoding="UTF-8" standalone="no"?>
<svg
   xmlns:dc="http://purl.org/dc/elements/1.1/"
   xmlns:cc="http://creativecommons.org/ns#"
   xmlns:rdf="http://www.w3.org/1999/02/22-rdf-syntax-ns#"
   xmlns:svg="http://www.w3.org/2000/svg"
   xmlns="http://www.w3.org/2000/svg"
   xmlns:sodipodi="http://sodipodi.sourceforge.net/DTD/sodipodi-0.dtd"
   xmlns:inkscape="http://www.inkscape.org/namespaces/inkscape"
   version="1.1"
   data-icon="external-link"
   viewBox="0 0 16 20"
   x="0px"
   y="0px"
   id="svg3355"
   inkscape:version="0.91 r13725"
   sodipodi:docname="SaveAs.svg">
  <metadata
     id="metadata3367">
    <rdf:RDF>
      <cc:Work
         rdf:about="">
        <dc:format>image/svg+xml</dc:format>
        <dc:type
           rdf:resource="http://purl.org/dc/dcmitype/StillImage" />
        <dc:title></dc:title>
      </cc:Work>
    </rdf:RDF>
  </metadata>
  <defs
     id="defs3365" />
  <sodipodi:namedview
     pagecolor="#ffffff"
     bordercolor="#666666"
     borderopacity="1"
     objecttolerance="10"
     gridtolerance="10"
     guidetolerance="10"
     inkscape:pageopacity="0"
     inkscape:pageshadow="2"
     inkscape:window-width="1920"
     inkscape:window-height="1137"
     id="namedview3363"
     showgrid="false"
     inkscape:zoom="11.8"
     inkscape:cx="-6.4491525"
     inkscape:cy="10"
     inkscape:window-x="1196"
     inkscape:window-y="488"
     inkscape:window-maximized="1"
     inkscape:current-layer="svg3355" />
  <path
     d="m 15.999,13.999 0,-14 -14,0 0,8 2,0 0,-6 10,0 0,10 -6,0 0,2 z"
     id="path3357"
     inkscape:connector-curvature="0"
     sodipodi:nodetypes="ccccccccccc" />
  <a
     id="a3384"
     transform="translate(0,0.08474576)">
    <path
       d="m 1.6690292,8.3043234 0,5.9999996 6,0 0,-5.9999996 z m 2,1.9999996 2,0 0,2 -2,0 z"
       id="path3357-4"
       inkscape:connector-curvature="0"
       sodipodi:nodetypes="cccccccccc" />
  </a>
  <path
     d="m 13.172699,8.2330504 -1.781001,-1.781 0.5,-0.5 1.171573,-1.171573 0.688,-0.719 -1.406,-1.406 -0.718999,0.688 -1.171574,1.171574 -0.4999987,0.499999 -1.781001,-1.781 0,5 4.9999997,0 z"
     id="path3357-8"
     inkscape:connector-curvature="0"
     sodipodi:nodetypes="ccccccccccccc" />
</svg>
