<svg xmlns="http://www.w3.org/2000/svg" xmlns:xlink="http://www.w3.org/1999/xlink" version="1.1" x="0px" y="0px" viewBox="0 0 30 30" xml:space="preserve"><g transform="translate(-90 -200)"><g xmlns="http://www.w3.org/2000/svg" xmlns:xlink="http://www.w3.org/1999/xlink"><path d="M97,221c-0.736,0-1.375,0.405-1.722,1c-0.172,0.295-0.278,0.635-0.278,1c0,1.102,0.897,2,2,2c1.104,0,2-0.898,2-2    c0-0.365-0.105-0.705-0.278-1C98.375,221.405,97.737,221,97,221z"></path><path d="M113,221c-0.736,0-1.375,0.405-1.722,1c-0.172,0.295-0.278,0.635-0.278,1c0,1.102,0.897,2,2,2c1.104,0,2-0.898,2-2    c0-0.365-0.105-0.705-0.278-1C114.375,221.405,113.737,221,113,221z"></path><path d="M119,219v-1l-6-1.715L107,212h-4h-1h-5l-4,5l0,0h-2v2h-1v3h1v1h3c0-0.352,0.072-0.686,0.184-1    c0.414-1.162,1.513-2,2.816-2c1.305,0,2.403,0.838,2.816,2c0.111,0.314,0.184,0.648,0.184,1h10c0-0.352,0.072-0.686,0.184-1    c0.414-1.162,1.513-2,2.816-2c1.305,0,2.403,0.838,2.816,2c0.111,0.314,0.184,0.648,0.184,1h3v-1h1v-3H119z M106.68,213l4.2,3H103    v-3H106.68z M97.48,213H102v3h-6.919L97.48,213z"></path></g></g></svg>