<?xml version="1.0" encoding="UTF-8"?>
<svg width="75.545" height="125" xmlns="http://www.w3.org/2000/svg">
 <g>
  <title>Layer 1</title>
  <path d="m32.323002,41.904999c0.989998,-0.265999 1.574997,-1.278 1.308998,-2.263c-0.265999,-0.989998 -1.278,-1.57 -2.259001,-1.308998c-0.99,0.265999 -1.573999,1.278 -1.309,2.263c0.262001,0.987 1.274,1.575001 2.259003,1.308998z"/>
  <path d="m43.217999,41.904999c0.985001,0.266003 1.998001,-0.322998 2.263,-1.308998c0.268002,-0.985001 -0.320999,-1.998001 -1.306999,-2.263c-0.981998,-0.262001 -1.998001,0.318001 -2.264999,1.304001c-0.261002,0.989998 0.324001,2.001999 1.308998,2.267998z"/>
  <path d="m20.648001,44.736c-0.721001,0.724998 -0.721001,1.889 0,2.612c0.724998,0.725002 1.893,0.725002 2.615999,0c0.716,-0.723999 0.716,-1.888 0,-2.612c-0.723,-0.723999 -1.891001,-0.723999 -2.615999,0z" fill="black"/>
  <path d="m60.355,58.09c0.990002,-0.263 1.574001,-1.282001 1.309002,-2.263c-0.263,-0.985001 -1.273003,-1.571999 -2.260002,-1.310001c-0.989998,0.267002 -1.57,1.278 -1.312,2.267002c0.27,0.988998 1.281002,1.565998 2.263,1.306z" fill="black"/>
  <path d="m60.359001,66.364998c-0.986,-0.262001 -1.997002,0.321999 -2.268002,1.309013c-0.257999,0.987 0.321999,1.997986 1.312,2.264c0.986,0.265999 1.997002,-0.318001 2.259998,-1.310013c0.266003,-0.979996 -0.317997,-1.998001 -1.303997,-2.263z"/>
  <path d="m52.647999,77.109001c-0.721001,0.718002 -0.721001,1.890999 0,2.611c0.725002,0.723999 1.893002,0.723999 2.616001,0c0.716,-0.721001 0.716,-1.894005 0,-2.611c-0.723,-0.725998 -1.890999,-0.725998 -2.616001,0z"/>
  <path d="m43.217999,82.554001c-0.984997,0.261002 -1.57,1.274002 -1.308998,2.259003c0.266998,0.990997 1.272999,1.57 2.264999,1.309998c0.985001,-0.263 1.574001,-1.276001 1.306999,-2.264c-0.264999,-0.984001 -1.277,-1.57 -2.263,-1.305z"/>
  <path d="m32.323002,82.554001c-0.985003,-0.265999 -1.997002,0.32 -2.259003,1.305c-0.265999,0.987 0.319,2.000999 1.309,2.264c0.981001,0.261002 1.994001,-0.325005 2.259001,-1.309998c0.265999,-0.984001 -0.319,-1.998001 -1.308998,-2.259003z"/>
  <path d="m20.281,77.109001c-0.724001,0.718002 -0.724001,1.890999 0,2.611c0.719,0.723999 1.889,0.723999 2.612,0c0.720001,-0.721001 0.720001,-1.894005 0,-2.611c-0.723,-0.725998 -1.893,-0.725998 -2.612,0z"/>
  <path d="m15.187,66.369003c-0.986,0.261993 -1.575,1.272995 -1.309,2.258995c0.266,0.991005 1.278,1.57 2.264,1.310005c0.986,-0.266006 1.57,-1.276001 1.309,-2.264c-0.267,-0.987007 -1.278,-1.571007 -2.264,-1.305l0,0z"/>
  <path d="m15.187,58.09c0.986,0.259998 1.997,-0.317001 2.264,-1.306c0.261,-0.987999 -0.323,-2 -1.309,-2.267002c-0.986,-0.262997 -1.998,0.324001 -2.264,1.310001c-0.266,0.980999 0.323,2.000999 1.309,2.263z"/>
  <path d="m66.709,37.949001l1.861,-1.862l0.646004,0.646c0.542,0.540997 1.418999,0.540997 1.954994,0l2.442001,-2.438004c0.536003,-0.540997 0.536003,-1.417 0,-1.953999l-0.013,-0.014l-5.812996,-5.813h-0.004005c-0.536995,-0.541 -1.412994,-0.541 -1.953995,0l-2.438004,2.438c-0.541,0.541 -0.541,1.414 0,1.954l0.633003,0.632l-1.854004,1.853998c-4.369999,-3.698997 -9.585999,-6.424999 -15.320999,-7.837997c3.245003,-2.635 5.316002,-6.651001 5.316002,-11.162001c-0.000999,-7.95 -6.443001,-14.392 -14.394001,-14.392c-7.947001,0 -14.393,6.442 -14.393,14.393c0,4.51 2.076,8.527 5.316,11.162001c-5.73,1.413 -10.947001,4.139 -15.317,7.838001l-1.854,-1.854002l0.628,-0.632c0.537,-0.541 0.537,-1.413 0,-1.954l-2.44201,-2.438c-0.537,-0.540998 -1.409,-0.540998 -1.95,0l0,0l-5.814,5.813l-0.008,0.012001c-0.545,0.536999 -0.545,1.412998 0,1.953999l2.434,2.438c0.541,0.541 1.418,0.541 1.954,0l0.65,-0.646l1.863,1.862003c-5.514,6.57 -8.838,15.036999 -8.838,24.278c0,20.865002 16.91001,37.773998 37.77101,37.773998c20.860001,0 37.773998,-16.908997 37.773998,-37.773998c0,-9.241001 -3.318001,-17.708 -8.835999,-24.277l0,0zm-38.612,-23.556002c0,-5.342 4.331001,-9.674 9.674,-9.674c5.342999,0 9.678001,4.332 9.678001,9.674c0,4.188 -2.665001,7.75 -6.380001,9.099001v-6.181h0.910999c0.763,0 1.382,-0.619001 1.382,-1.382001v-3.45c0,-0.764 -0.618999,-1.382 -1.382,-1.382h-0.017998h-8.217003h-0.003998c-0.763,0 -1.382,0.618999 -1.382,1.382v3.45c0,0.763 0.618999,1.382001 1.382,1.382001h0.889999v6.233c-3.799,-1.305 -6.534,-4.907001 -6.534,-9.151001zm9.674,76.384001c-15.719,0 -28.459,-12.743004 -28.459,-28.464001c0,-15.714001 12.74,-28.459 28.459,-28.459c15.715,0 28.457996,12.744999 28.457996,28.459c0,15.720997 -12.742996,28.464001 -28.457996,28.464001z" fill="black"/>
  <path d="m54.304119,58.696999c-0.223999,-0.217999 -0.459,-0.404999 -0.705997,-0.572998l0.021,-0.028999l-17.725002,-13.359001c-0.723999,-0.723999 -1.892998,-0.723999 -2.612,0c-0.723999,0.724998 -0.723999,1.889 0,2.612l13.358002,17.72599l0.025997,-0.023987c0.170002,0.251007 0.358002,0.486008 0.576,0.705994c1.949001,1.948013 5.110001,1.948013 7.062,0c1.940002,-1.947018 1.940002,-5.109997 0,-7.058998z" fill="black" id="svg_1" transform="rotate(90.1761, 44.2481, 55.7062)"/>
 </g>
</svg>