<?xml version="1.0" encoding="UTF-8" standalone="no"?>
<svg
   xmlns:dc="http://purl.org/dc/elements/1.1/"
   xmlns:cc="http://creativecommons.org/ns#"
   xmlns:rdf="http://www.w3.org/1999/02/22-rdf-syntax-ns#"
   xmlns:svg="http://www.w3.org/2000/svg"
   xmlns="http://www.w3.org/2000/svg"
   xmlns:sodipodi="http://sodipodi.sourceforge.net/DTD/sodipodi-0.dtd"
   xmlns:inkscape="http://www.inkscape.org/namespaces/inkscape"
   version="1.1"
   x="0px"
   y="0px"
   viewBox="0 0 100 125"
   enable-background="new 0 0 100 100"
   xml:space="preserve"
   id="svg7586"
   inkscape:version="0.91 r13725"
   sodipodi:docname="target.svg"><metadata
     id="metadata7602"><rdf:RDF><cc:Work
         rdf:about=""><dc:format>image/svg+xml</dc:format><dc:type
           rdf:resource="http://purl.org/dc/dcmitype/StillImage" /></cc:Work></rdf:RDF></metadata><defs
     id="defs7600" /><sodipodi:namedview
     pagecolor="#ffffff"
     bordercolor="#666666"
     borderopacity="1"
     objecttolerance="10"
     gridtolerance="10"
     guidetolerance="10"
     inkscape:pageopacity="0"
     inkscape:pageshadow="2"
     inkscape:window-width="1920"
     inkscape:window-height="1138"
     id="namedview7598"
     showgrid="false"
     inkscape:zoom="1.888"
     inkscape:cx="50"
     inkscape:cy="62.5"
     inkscape:window-x="1192"
     inkscape:window-y="144"
     inkscape:window-maximized="1"
     inkscape:current-layer="svg7586" /><g
     id="g7588"><path
       d="M98,46h-5.694C90.406,25.752,74.247,9.594,54,7.694V2h-8v5.694C25.752,9.594,9.594,25.752,7.694,46H2v8h5.694   C9.594,74.247,25.752,90.406,46,92.306V98h8v-5.694C74.247,90.406,90.406,74.247,92.306,54H98V46z M54,84.261V72h-8v12.261   C30.168,82.424,17.577,69.831,15.739,54H28v-8H15.739C17.577,30.168,30.168,17.577,46,15.739V28h8V15.739   C69.831,17.577,82.424,30.168,84.261,46H72v8h12.261C82.424,69.831,69.831,82.424,54,84.261z"
       id="path7590" /><circle
       cx="50"
       cy="50"
       r="7"
       id="circle7592" /></g></svg>