<svg xmlns:dc="http://purl.org/dc/elements/1.1/" xmlns:cc="http://creativecommons.org/ns#" xmlns:rdf="http://www.w3.org/1999/02/22-rdf-syntax-ns#" xmlns:svg="http://www.w3.org/2000/svg" xmlns="http://www.w3.org/2000/svg" xmlns:sodipodi="http://sodipodi.sourceforge.net/DTD/sodipodi-0.dtd" xmlns:inkscape="http://www.inkscape.org/namespaces/inkscape" version="1.1" x="0px" y="0px" viewBox="0 0 100 100"><g transform="translate(0,-952.36218)"><path d="m 12.0001,956.38241 c -3.8261,0 -7,3.1739 -7,7 0,3.1303 2.1321,5.8112 5,6.6875 l 0,50.31249 c 0,2.1641 1.8359,4 4,4 l 33,0 0,3.8438 -14.0625,15 c -1.1742,1.1245 -1.1619,3.2469 0.025,4.3577 1.1871,1.1109 3.3057,0.9823 4.3498,-0.264 l 9.6877,-10.3437 0,4.4062 c 0,1.6568 1.3432,3 3,3 1.6568,0 3,-1.3432 3,-3 l 0,-4.4062 9.6875,10.3437 c 1.0441,1.2463 3.1627,1.3749 4.3498,0.264 1.1871,-1.1108 1.1994,-3.2332 0.025,-4.3577 l -14.0625,-15 0,-3.8438 33,0 c 2.1641,0 4,-1.8359 4,-4 l 0,-50.31249 c 2.8679,-0.8763 5,-3.5572 5,-6.6875 0,-3.8261 -3.1739,-7 -7,-7 z m 0,6 76,0 c 0.6059,0 1,0.3941 1,1 0,0.6059 -0.3941,1 -1,1 l -76,0 c -0.6059,0 -1,-0.3941 -1,-1 0,-0.6059 0.3941,-1 1,-1 z m 4,8 68,0 0,47.99999 -68,0 z" style="text-indent:0;text-transform:none;direction:ltr;block-progression:tb;baseline-shift:baseline;color:#000000;enable-background:accumulate;" fill="#000000" fill-opacity="1" stroke="none" marker="none" visibility="visible" display="inline" overflow="visible"></path><path style="text-indent:0;text-transform:none;direction:ltr;block-progression:tb;baseline-shift:baseline;color:#000000;enable-background:accumulate;" d="m 48.9062,975.56971 -28,11 c -1.1192,0.4346 -1.9143,1.5964 -1.9143,2.7969 0,1.2006 0.7951,2.3624 1.9143,2.7969 l 0.094,0.031 0,5.5937 c -0.6135,0.7051 -1,1.6078 -1,2.59379 0,2.1736 1.8264,4 4,4 2.1736,0 4,-1.8264 4,-4 0,-0.98599 -0.3865,-1.88869 -1,-2.59379 l 0,-3.2187 2,0.7812 0,9.03129 c 0,2.1466 1.3114,3.4926 2.5938,4.4687 1.2822,0.976 2.8271,1.725 4.6562,2.375 3.6582,1.2998 8.4383,2.1563 13.75,2.1563 5.3117,0 10.0918,-0.8565 13.75,-2.1563 1.8291,-0.65 3.374,-1.399 4.6562,-2.375 1.2823,-0.9761 2.5938,-2.3221 2.5938,-4.4687 l 0,-9.03129 8.0938,-3.1875 c 1.1192,-0.4345 1.9143,-1.5963 1.9143,-2.7968 0,-1.2006 -0.7951,-2.3624 -1.9143,-2.7969 l -28,-11 c -0.8244,-0.2818 -1.612,-0.1951 -2.1878,0 z m 1.094,6.0313 19.7812,7.7813 -19.7812,7.75 -19.7812,-7.75 z m -15,16.0938 13.9062,5.46869 c 0.695,0.2722 1.4926,0.2722 2.1876,0 l 13.9062,-5.46869 0,6.18749 c -0.9092,0.7028 -2.3043,1.3464 -3.25,1.6875 -2.8488,1.0122 -7.0897,1.8125 -11.75,1.8125 -4.6603,0 -8.9012,-0.8003 -11.75,-1.8125 -1.1418,-0.4388 -2.3125,-0.9538 -3.25,-1.6875 z" fill="#000000" fill-opacity="1" stroke="none" marker="none" visibility="visible" display="inline" overflow="visible"></path></g></svg>