<svg xmlns="http://www.w3.org/2000/svg" xmlns:xlink="http://www.w3.org/1999/xlink" version="1.1" x="0px" y="0px" viewBox="0 0 100 125" style="enable-background:new 0 0 100 100;" xml:space="preserve"><path d="M47.4,82.4c-7.4,0-13.5-6-13.5-13.5c0-4,1.8-7.8,4.9-10.4c0-0.1,0-0.2,0-0.3v-32c0-4.7,3.9-8.6,8.6-8.6s8.6,3.9,8.6,8.6v32  c0,0.1,0,0.2,0,0.3c3.1,2.5,4.9,6.4,4.9,10.4C60.9,76.3,54.8,82.4,47.4,82.4z M47.4,20.2c-3.3,0-6,2.7-6,6v32c0,0.2,0,0.5,0,0.7  c0.1,0.5-0.1,0.9-0.5,1.2c-2.8,2.1-4.4,5.3-4.4,8.7c0,6,4.9,10.9,10.9,10.9c6,0,10.9-4.9,10.9-10.9c0-3.5-1.6-6.6-4.4-8.7  c-0.4-0.3-0.6-0.7-0.5-1.2c0-0.2,0-0.5,0-0.7v-32C53.4,22.9,50.7,20.2,47.4,20.2z M55.9,68.8c0-3.6-2.2-6.6-5.4-7.9V35  c0-1.7-1.4-3.1-3.1-3.1s-3.1,1.4-3.1,3.1v25.9c-3.2,1.2-5.4,4.3-5.4,7.9c0,4.7,3.8,8.5,8.5,8.5S55.9,73.4,55.9,68.8z M66,23.7h-6.5  v1.5H66V23.7z M65.1,29.6h-5.6v1.5h5.6V29.6z M66,35.6h-6.5v1.5H66V35.6z M65.1,41.5h-5.6V43h5.6V41.5z M66,47.5h-6.5v1.5H66V47.5z"/><text x="0" y="115" fill="#000000" font-size="5px" font-weight="bold" font-family="'Helvetica Neue', Helvetica, Arial-Unicode, Arial, Sans-serif">Created by n.o.o.m.</text><text x="0" y="120" fill="#000000" font-size="5px" font-weight="bold" font-family="'Helvetica Neue', Helvetica, Arial-Unicode, Arial, Sans-serif">from the Noun Project</text></svg>