<?xml version="1.0" encoding="UTF-8" standalone="no"?>
<svg
   xmlns:dc="http://purl.org/dc/elements/1.1/"
   xmlns:cc="http://creativecommons.org/ns#"
   xmlns:rdf="http://www.w3.org/1999/02/22-rdf-syntax-ns#"
   xmlns:svg="http://www.w3.org/2000/svg"
   xmlns="http://www.w3.org/2000/svg"
   xmlns:sodipodi="http://sodipodi.sourceforge.net/DTD/sodipodi-0.dtd"
   xmlns:inkscape="http://www.inkscape.org/namespaces/inkscape"
   version="1.1"
   x="0px"
   y="0px"
   viewBox="0 0 48 60"
   enable-background="new 0 0 48 48"
   xml:space="preserve"
   id="svg8144"
   inkscape:version="0.91 r13725"
   sodipodi:docname="up.svg"><metadata
     id="metadata8156"><rdf:RDF><cc:Work
         rdf:about=""><dc:format>image/svg+xml</dc:format><dc:type
           rdf:resource="http://purl.org/dc/dcmitype/StillImage" /></cc:Work></rdf:RDF></metadata><defs
     id="defs8154" /><sodipodi:namedview
     pagecolor="#ffffff"
     bordercolor="#666666"
     borderopacity="1"
     objecttolerance="10"
     gridtolerance="10"
     guidetolerance="10"
     inkscape:pageopacity="0"
     inkscape:pageshadow="2"
     inkscape:window-width="1920"
     inkscape:window-height="1138"
     id="namedview8152"
     showgrid="false"
     inkscape:zoom="3.9333333"
     inkscape:cx="24"
     inkscape:cy="30"
     inkscape:window-x="1192"
     inkscape:window-y="144"
     inkscape:window-maximized="1"
     inkscape:current-layer="svg8144" /><path
     fill="#000000"
     d="M13.5,0.8l-13,25.7c-0.2,0.3,0.3,0.6,0.7,0.5l6.2-2c0.5-0.2,1,0.2,1,0.7l0,20.7c0,0.7,0.5,1.2,1.2,1.2  l36.8,0c0.7,0,1.2-0.5,1.2-1.2l0-9c0-0.7-0.5-1.2-1.2-1.2l-25.5,0c-0.7,0-1.2-0.5-1.2-1.2v-9.2c0-0.5,0.5-0.8,1-0.7l6.2,2  c0.4,0.1,0.9-0.2,0.7-0.5l-13-25.7C14.3,0.4,13.7,0.4,13.5,0.8z"
     id="path8146" /></svg>