<?xml version="1.0" encoding="UTF-8" standalone="no"?>
<svg
   xmlns:dc="http://purl.org/dc/elements/1.1/"
   xmlns:cc="http://creativecommons.org/ns#"
   xmlns:rdf="http://www.w3.org/1999/02/22-rdf-syntax-ns#"
   xmlns:svg="http://www.w3.org/2000/svg"
   xmlns="http://www.w3.org/2000/svg"
   xmlns:sodipodi="http://sodipodi.sourceforge.net/DTD/sodipodi-0.dtd"
   xmlns:inkscape="http://www.inkscape.org/namespaces/inkscape"
   version="1.1"
   x="0px"
   y="0px"
   viewBox="0 0 24 24"
   enable-background="new 0 0 24 24"
   xml:space="preserve"
   id="svg4136"
   inkscape:version="0.91 r13725"
   sodipodi:docname="usageWrite1.svg"><metadata
     id="metadata4146"><rdf:RDF><cc:Work
         rdf:about=""><dc:format>image/svg+xml</dc:format><dc:type
           rdf:resource="http://purl.org/dc/dcmitype/StillImage" /><dc:title></dc:title></cc:Work></rdf:RDF></metadata><defs
     id="defs4144"><inkscape:path-effect
       effect="spiro"
       id="path-effect4164"
       is_visible="true" /></defs><sodipodi:namedview
     pagecolor="#ffffff"
     bordercolor="#666666"
     borderopacity="1"
     objecttolerance="10"
     gridtolerance="10"
     guidetolerance="10"
     inkscape:pageopacity="0"
     inkscape:pageshadow="2"
     inkscape:window-width="1920"
     inkscape:window-height="1148"
     id="namedview4142"
     showgrid="false"
     inkscape:zoom="10.135417"
     inkscape:cx="-13.408239"
     inkscape:cy="7.6708674"
     inkscape:window-x="1912"
     inkscape:window-y="-8"
     inkscape:window-maximized="1"
     inkscape:current-layer="svg4136" /><path
     d="M 2.039,6.309 C 2.064,6.248 2.101,6.193 2.147,6.147 l 6,-6 C 8.193,0.101 8.248,0.064 8.31,0.039 8.37,0.013 8.435,0 8.5,0 l 12,0 C 21.327,0 22,0.673 22,1.5 l 0,21 c 0,0.827 -0.673,1.5 -1.5,1.5 l -17,0 C 2.673,24 2,23.327 2,22.5 L 2,6.5 C 2,6.435 2.013,6.37 2.039,6.309 Z M 8,1.707 3.707,6 7.5,6 C 7.775,6 8,5.776 8,5.5 L 8,1.707 Z M 3,22.5 C 3,22.776 3.225,23 3.5,23 l 17,0 c 0.275,0 0.5,-0.224 0.5,-0.5 l 0,-21 C 21,1.224 20.775,1 20.5,1 L 9,1 9,5.5 C 9,6.327 8.327,7 7.5,7 L 3,7 3,22.5 Z"
     id="path4140"
     inkscape:connector-curvature="0" /><g
     id="g4150"
     transform="matrix(1.296817,0,0,1.296817,-70.730857,-1316.3674)"><path
       id="path4152"
       d="m 65.917847,1020.7634 c -0.481702,0.018 -0.96703,0.222 -1.330596,0.5963 l -4.508032,4.6462 c -0.07064,0.071 -0.116534,0.1627 -0.130878,0.2617 l -0.276299,2.2831 c -0.03696,0.3051 0.226791,0.5617 0.530785,0.5163 l 2.406707,-0.3491 c 0.09906,-0.014 0.190848,-0.06 0.261757,-0.1308 l 4.646181,-4.6462 c 0.652277,-0.6528 0.678182,-1.7563 -0.0073,-2.4213 l -0.269028,-0.2617 c -0.358565,-0.3479 -0.841623,-0.5125 -1.323326,-0.4945 z m 0.02908,0.9598 c 0.251738,-0.01 0.49333,0.062 0.63985,0.2036 l 0.276299,0.2618 c 0.298324,0.2894 0.278422,0.8047 -0.0073,1.0906 l -0.225402,0.2254 -1.519643,-1.3524 0.145421,-0.1454 c 0.179882,-0.1852 0.439009,-0.2746 0.690746,-0.2836 z m -1.483287,1.0979 1.505101,1.3452 -3.170165,3.1701 c -0.12751,-0.4171 -0.349657,-0.6986 -0.508971,-0.8579 -0.0024,0 -0.0048,0 -0.0073,-0.01 -0.09953,-0.094 -0.286914,-0.2892 -0.581681,-0.429 -0.08331,-0.04 -0.176991,-0.067 -0.276299,-0.095 z m -3.642781,3.9773 c 0.230879,0 0.375046,0.037 0.479888,0.087 0.129922,0.062 0.213636,0.1405 0.334466,0.2545 0.0029,0 0.0043,0 0.0073,0.01 0.172326,0.1713 0.312095,0.2871 0.327196,0.7271 l -1.301512,0.1891 z"
       style="color:#000000;font-style:normal;font-variant:normal;font-weight:normal;font-stretch:normal;font-size:medium;line-height:normal;font-family:Sans;-inkscape-font-specification:Sans;text-indent:0;text-align:start;text-decoration:none;text-decoration-line:none;letter-spacing:normal;word-spacing:normal;text-transform:none;direction:ltr;block-progression:tb;writing-mode:lr-tb;baseline-shift:baseline;text-anchor:start;display:inline;overflow:visible;visibility:visible;opacity:1;fill:#000000;fill-opacity:1;stroke:none;stroke-width:3.99999976;marker:none;enable-background:accumulate"
       inkscape:connector-curvature="0"
       sodipodi:nodetypes="cccccccccccccccccccccccccsccccccccc" /></g></svg>