<?xml version="1.0" encoding="UTF-8" standalone="no"?>
<svg
   xmlns:dc="http://purl.org/dc/elements/1.1/"
   xmlns:cc="http://creativecommons.org/ns#"
   xmlns:rdf="http://www.w3.org/1999/02/22-rdf-syntax-ns#"
   xmlns:svg="http://www.w3.org/2000/svg"
   xmlns="http://www.w3.org/2000/svg"
   xmlns:sodipodi="http://sodipodi.sourceforge.net/DTD/sodipodi-0.dtd"
   xmlns:inkscape="http://www.inkscape.org/namespaces/inkscape"
   version="1.1"
   x="0px"
   y="0px"
   viewBox="0 0 24 24"
   enable-background="new 0 0 24 24"
   xml:space="preserve"
   id="svg4172"
   inkscape:version="0.91 r13725"
   sodipodi:docname="usageAll.svg"><metadata
     id="metadata4182"><rdf:RDF><cc:Work
         rdf:about=""><dc:format>image/svg+xml</dc:format><dc:type
           rdf:resource="http://purl.org/dc/dcmitype/StillImage" /></cc:Work></rdf:RDF></metadata><defs
     id="defs4180" /><sodipodi:namedview
     pagecolor="#ffffff"
     bordercolor="#666666"
     borderopacity="1"
     objecttolerance="10"
     gridtolerance="10"
     guidetolerance="10"
     inkscape:pageopacity="0"
     inkscape:pageshadow="2"
     inkscape:window-width="1920"
     inkscape:window-height="1148"
     id="namedview4178"
     showgrid="false"
     inkscape:zoom="9.8333333"
     inkscape:cx="12"
     inkscape:cy="12"
     inkscape:window-x="1912"
     inkscape:window-y="-8"
     inkscape:window-maximized="1"
     inkscape:current-layer="svg4172" /><path
     d="M15.028,18.159c-0.074,0-0.149-0.017-0.218-0.05L12,16.745l-2.809,1.364c-0.165,0.081-0.362,0.063-0.512-0.045  c-0.149-0.108-0.227-0.29-0.201-0.473l0.429-3.093l-2.165-2.25c-0.128-0.133-0.172-0.326-0.115-0.501  c0.057-0.176,0.206-0.305,0.388-0.338l3.074-0.548l1.471-2.755c0.174-0.326,0.708-0.326,0.882,0l1.471,2.755l3.074,0.548  c0.182,0.032,0.331,0.162,0.388,0.338c0.057,0.176,0.013,0.368-0.115,0.501l-2.165,2.25l0.429,3.093  c0.025,0.183-0.052,0.365-0.201,0.473C15.234,18.127,15.131,18.159,15.028,18.159z M12,15.689c0.075,0,0.149,0.017,0.218,0.05  l2.186,1.061l-0.334-2.406c-0.021-0.152,0.029-0.305,0.135-0.415l1.684-1.751l-2.392-0.426c-0.151-0.027-0.281-0.122-0.353-0.257  L12,9.402l-1.145,2.143c-0.072,0.135-0.202,0.23-0.353,0.257l-2.392,0.426l1.684,1.751c0.106,0.11,0.156,0.264,0.135,0.415  L9.596,16.8l2.186-1.061C11.851,15.706,11.925,15.689,12,15.689z"
     id="path4174" /><path
     d="M 2.039,6.309 C 2.064,6.248 2.101,6.193 2.147,6.147 l 6,-6 C 8.193,0.101 8.248,0.064 8.31,0.039 8.37,0.013 8.435,0 8.5,0 l 12,0 C 21.327,0 22,0.673 22,1.5 l 0,21 c 0,0.827 -0.673,1.5 -1.5,1.5 l -17,0 C 2.673,24 2,23.327 2,22.5 L 2,6.5 C 2,6.435 2.013,6.37 2.039,6.309 Z M 8,1.707 3.707,6 7.5,6 C 7.775,6 8,5.776 8,5.5 L 8,1.707 Z M 3,22.5 C 3,22.776 3.225,23 3.5,23 l 17,0 c 0.275,0 0.5,-0.224 0.5,-0.5 l 0,-21 C 21,1.224 20.775,1 20.5,1 L 9,1 9,5.5 C 9,6.327 8.327,7 7.5,7 L 3,7 3,22.5 Z"
     id="path4176"
     inkscape:connector-curvature="0" /></svg>