<?xml version="1.0" encoding="UTF-8" standalone="no"?>
<svg
   xmlns:dc="http://purl.org/dc/elements/1.1/"
   xmlns:cc="http://creativecommons.org/ns#"
   xmlns:rdf="http://www.w3.org/1999/02/22-rdf-syntax-ns#"
   xmlns:svg="http://www.w3.org/2000/svg"
   xmlns="http://www.w3.org/2000/svg"
   xmlns:sodipodi="http://sodipodi.sourceforge.net/DTD/sodipodi-0.dtd"
   xmlns:inkscape="http://www.inkscape.org/namespaces/inkscape"
   version="1.1"
   x="0px"
   y="0px"
   viewBox="0 0 29 30"
   xml:space="preserve"
   id="svg4833"
   inkscape:version="0.91 r13725"
   sodipodi:docname="ValidationTableTerm2.svg"><metadata
     id="metadata4863"><rdf:RDF><cc:Work
         rdf:about=""><dc:format>image/svg+xml</dc:format><dc:type
           rdf:resource="http://purl.org/dc/dcmitype/StillImage" /><dc:title></dc:title></cc:Work></rdf:RDF></metadata><defs
     id="defs4861" /><sodipodi:namedview
     pagecolor="#ffffff"
     bordercolor="#666666"
     borderopacity="1"
     objecttolerance="10"
     gridtolerance="10"
     guidetolerance="10"
     inkscape:pageopacity="0"
     inkscape:pageshadow="2"
     inkscape:window-width="1920"
     inkscape:window-height="1138"
     id="namedview4859"
     showgrid="false"
     inkscape:zoom="15.733333"
     inkscape:cx="18.304227"
     inkscape:cy="6.3491609"
     inkscape:window-x="1192"
     inkscape:window-y="144"
     inkscape:window-maximized="1"
     inkscape:current-layer="g4837" /><g
     transform="translate(-570 -500)"
     id="g4835"><g
       id="g4837"><path
         d="M572,505v21h12.869c1.258,2.378,3.753,4,6.631,4c4.143,0,7.5-3.357,7.5-7.5c0-1.966-0.763-3.75-2-5.087V505H572z M591,506    h5v3h-5V506z M591,510h5v3h-5V510z M596,514v2.51c-1.254-0.943-2.809-1.51-4.5-1.51c-0.169,0-0.334,0.015-0.5,0.025V514H596z     M585,506h5v3h-5V506z M585,510h5v3h-5V510z M585,514h5v1.15c-1.37,0.278-2.6,0.936-3.587,1.85H585V514z M585.51,518    c-0.185,0.245-0.355,0.501-0.51,0.769V518H585.51z M579,506h5v3h-5V506z M579,510h5v3h-5V510z M579,514h5v3h-5V514z M579,518h5v3    h-5V518z M578,525h-5v-3h5V525z M578,521h-5v-3h5V521z M578,517h-5v-3h5V517z M578,513h-5v-3h5V513z M578,509h-5v-3h5V509z     M584,525h-5v-3h5V525z M598,522.5c0,3.59-2.91,6.5-6.5,6.5s-6.5-2.91-6.5-6.5s2.91-6.5,6.5-6.5S598,518.91,598,522.5z"
         id="path4839" /><rect
         x="574"
         y="519"
         width="3"
         height="1"
         id="rect4841" /><rect
         x="574"
         y="523"
         width="3"
         height="1"
         id="rect4843" /><rect
         x="574"
         y="515"
         width="3"
         height="1"
         id="rect4845" /><rect
         x="574"
         y="511"
         width="3"
         height="1"
         id="rect4847" /><rect
         x="574"
         y="507"
         width="3"
         height="1"
         id="rect4849" /><rect
         x="580"
         y="507"
         width="3"
         height="1"
         id="rect4851" /><rect
         x="586"
         y="507"
         width="3"
         height="1"
         id="rect4853" /><rect
         x="592"
         y="507"
         width="3"
         height="1"
         id="rect4855" /><path
         id="path5425"
         d="m 586.07836,522.91281 3.48286,2.60208 0,-1.31434 c 3.6832,-2.8e-4 5.6872,-2.35888 6.56213,-4.90622 -2.04151,2.54705 -4.99955,2.33057 -6.56213,2.33043 l 0,-1.31375 -3.48286,2.6018 z"
         inkscape:connector-curvature="0" /></g></g></svg>