<svg xmlns="http://www.w3.org/2000/svg" xmlns:xlink="http://www.w3.org/1999/xlink" version="1.1" x="0px" y="0px" viewBox="0 0 29 30" xml:space="preserve"><g transform="translate(-570 -500)"><g xmlns="http://www.w3.org/2000/svg" xmlns:xlink="http://www.w3.org/1999/xlink"><path d="M572,505v21h12.869c1.258,2.378,3.753,4,6.631,4c4.143,0,7.5-3.357,7.5-7.5c0-1.966-0.763-3.75-2-5.087V505H572z M591,506    h5v3h-5V506z M591,510h5v3h-5V510z M596,514v2.51c-1.254-0.943-2.809-1.51-4.5-1.51c-0.169,0-0.334,0.015-0.5,0.025V514H596z     M585,506h5v3h-5V506z M585,510h5v3h-5V510z M585,514h5v1.15c-1.37,0.278-2.6,0.936-3.587,1.85H585V514z M585.51,518    c-0.185,0.245-0.355,0.501-0.51,0.769V518H585.51z M579,506h5v3h-5V506z M579,510h5v3h-5V510z M579,514h5v3h-5V514z M579,518h5v3    h-5V518z M578,525h-5v-3h5V525z M578,521h-5v-3h5V521z M578,517h-5v-3h5V517z M578,513h-5v-3h5V513z M578,509h-5v-3h5V509z     M584,525h-5v-3h5V525z M598,522.5c0,3.59-2.91,6.5-6.5,6.5s-6.5-2.91-6.5-6.5s2.91-6.5,6.5-6.5S598,518.91,598,522.5z"></path><rect x="574" y="519" width="3" height="1"></rect><rect x="574" y="523" width="3" height="1"></rect><rect x="574" y="515" width="3" height="1"></rect><rect x="574" y="511" width="3" height="1"></rect><rect x="574" y="507" width="3" height="1"></rect><rect x="580" y="507" width="3" height="1"></rect><rect x="586" y="507" width="3" height="1"></rect><rect x="592" y="507" width="3" height="1"></rect><polygon points="595.742,520.025 595.035,519.318 590.086,524.268 587.965,522.146 587.258,522.854 590.086,525.682   "></polygon></g></g></svg>