<svg xmlns="http://www.w3.org/2000/svg" xmlns:xlink="http://www.w3.org/1999/xlink" version="1.1" x="0px" y="0px" viewBox="0 0 100 100" enable-background="new 0 0 100 100" xml:space="preserve"><path d="M83.512,38.511c-5.516,0-10.131,3.905-11.235,9.095H32.545c-0.226-1.293-0.632-2.521-1.19-3.666l22.92-16.55  c2.039,1.846,4.732,2.981,7.693,2.981c6.337,0,11.489-5.154,11.489-11.489c0-6.334-5.152-11.488-11.489-11.488  c-6.335,0-11.489,5.154-11.489,11.488c0,1.649,0.356,3.214,0.984,4.633L28.552,40.058c-2.502-2.434-5.911-3.941-9.669-3.941  C11.228,36.117,5,42.345,5,50c0,7.654,6.228,13.883,13.883,13.883c3.76,0,7.17-1.508,9.672-3.944l22.908,16.545  c-0.628,1.419-0.984,2.984-0.984,4.634c0,6.335,5.154,11.488,11.489,11.488c6.337,0,11.489-5.153,11.489-11.488  c0-6.336-5.152-11.489-11.489-11.489c-2.96,0-5.653,1.135-7.692,2.979L31.356,56.055c0.558-1.143,0.963-2.37,1.188-3.662h39.73  c1.104,5.19,5.721,9.097,11.236,9.097C89.848,61.489,95,56.336,95,50S89.848,38.511,83.512,38.511z"></path></svg>