<svg xmlns="http://www.w3.org/2000/svg" viewBox="0 0 18 27.5" fill="none" x="0px" y="0px"><path fill-rule="evenodd" clip-rule="evenodd" d="M8 4C8 5.86658 6.72119 7.43457 4.99219 7.87598C4.99707 7.91663 5 7.95801 5 8V10H11C12.1045 10 13 9.10461 13 8C13 7.95801 13.0029 7.91663 13.0078 7.87598C11.2788 7.43457 10 5.86658 10 4C10 1.79089 11.791 0 14 0C16.209 0 18 1.79089 18 4C18 5.86658 16.7212 7.43457 14.9922 7.87598C14.9971 7.91663 15 7.95801 15 8C15 10.2091 13.209 12 11 12H5V14L4.99951 14.0249L4.99756 14.0637C4.99658 14.084 4.99463 14.1041 4.99219 14.124C6.72119 14.5654 8 16.1334 8 18C8 20.2091 6.20898 22 4 22C1.79102 22 0 20.2091 0 18C0 16.1334 1.27881 14.5654 3.00781 14.124C3.00439 14.0952 3.00195 14.0659 3.00098 14.0364L3 14V8C3 7.95801 3.00293 7.91663 3.00781 7.87598C1.27881 7.43457 0 5.86658 0 4C0 1.79089 1.79102 0 4 0C6.20898 0 8 1.79089 8 4ZM4 6C5.10449 6 6 5.10461 6 4C6 2.89539 5.10449 2 4 2C2.89551 2 2 2.89539 2 4C2 5.10461 2.89551 6 4 6ZM14 6C15.1045 6 16 5.10461 16 4C16 2.89539 15.1045 2 14 2C12.8955 2 12 2.89539 12 4C12 5.10461 12.8955 6 14 6ZM6 18C6 19.1046 5.10449 20 4 20C2.89551 20 2 19.1046 2 18C2 16.8954 2.89551 16 4 16C5.10449 16 6 16.8954 6 18Z" fill="black"/></svg>