<svg xmlns="http://www.w3.org/2000/svg" xmlns:xlink="http://www.w3.org/1999/xlink" version="1.1" x="0px" y="0px" viewBox="0 0 66 82.5" enable-background="new 0 0 66 66" xml:space="preserve"><g><polygon points="53,46.9 65,55 65,33 53,41.1  "/><path d="M47,53h4v-7.7v-2.5V35h-4v-6h-7.2c3.2-2.2,5.4-5.8,5.4-10c0-6.6-5.4-12-12-12c-5.6,0-10.4,3.9-11.7,9.1   c-1.7-3.1-5-5.1-8.7-5.1c-5.5,0-10,4.5-10,10c0,3.3,1.6,6.2,4,8H1v30h46V53z M33.2,11c4.4,0,8,3.6,8,8c0,4.4-3.6,8-8,8   c-4.4,0-8-3.6-8-8C25.2,14.6,28.8,11,33.2,11z M22.3,24.1c0.9,2,2.4,3.7,4.2,4.9h-7.7C20.4,27.8,21.7,26.1,22.3,24.1z M6.8,21   c0-3.3,2.7-6,6-6s6,2.7,6,6c0,3.3-2.7,6-6,6S6.8,24.3,6.8,21z M41,53H7V35h34V53z"/><rect x="11" y="39" width="26" height="10"/></g><text x="0" y="81" fill="#000000" font-size="5px" font-weight="bold" font-family="'Helvetica Neue', Helvetica, Arial-Unicode, Arial, Sans-serif">Created by Vectors Market</text><text x="0" y="86" fill="#000000" font-size="5px" font-weight="bold" font-family="'Helvetica Neue', Helvetica, Arial-Unicode, Arial, Sans-serif">from the Noun Project</text></svg>