<?xml version="1.0" encoding="UTF-8" standalone="no"?>
<svg
   xmlns:dc="http://purl.org/dc/elements/1.1/"
   xmlns:cc="http://creativecommons.org/ns#"
   xmlns:rdf="http://www.w3.org/1999/02/22-rdf-syntax-ns#"
   xmlns:svg="http://www.w3.org/2000/svg"
   xmlns="http://www.w3.org/2000/svg"
   xmlns:sodipodi="http://sodipodi.sourceforge.net/DTD/sodipodi-0.dtd"
   xmlns:inkscape="http://www.inkscape.org/namespaces/inkscape"
   viewBox="0 0 75 93.75"
   version="1.1"
   x="0px"
   y="0px"
   id="svg8698"
   inkscape:version="0.91 r13725"
   sodipodi:docname="warning.svg">
  <metadata
     id="metadata8716">
    <rdf:RDF>
      <cc:Work
         rdf:about="">
        <dc:format>image/svg+xml</dc:format>
        <dc:type
           rdf:resource="http://purl.org/dc/dcmitype/StillImage" />
      </cc:Work>
    </rdf:RDF>
  </metadata>
  <defs
     id="defs8714" />
  <sodipodi:namedview
     pagecolor="#ffffff"
     bordercolor="#666666"
     borderopacity="1"
     objecttolerance="10"
     gridtolerance="10"
     guidetolerance="10"
     inkscape:pageopacity="0"
     inkscape:pageshadow="2"
     inkscape:window-width="1920"
     inkscape:window-height="1138"
     id="namedview8712"
     showgrid="false"
     inkscape:zoom="2.5173333"
     inkscape:cx="37.5"
     inkscape:cy="46.875"
     inkscape:window-x="1192"
     inkscape:window-y="144"
     inkscape:window-maximized="1"
     inkscape:current-layer="svg8698" />
  <g
     id="g8700">
    <path
       style=""
       d="M 37.539062 2.683594 C 18.40625 2.683594 2.898438 18.195312 2.898438 37.324219 C 2.898438 56.453125 18.40625 71.960938 37.539062 71.960938 C 56.667969 71.960938 72.179688 56.453125 72.179688 37.324219 C 72.179688 18.195312 56.671875 2.683594 37.539062 2.683594 Z M 37.539062 65.710938 C 21.882812 65.710938 9.148438 52.976562 9.148438 37.324219 C 9.148438 21.667969 21.882812 8.933594 37.539062 8.933594 C 53.195312 8.933594 65.929688 21.667969 65.929688 37.324219 C 65.929688 52.976562 53.195312 65.710938 37.539062 65.710938 Z M 37.539062 65.710938 "
       stroke="none"
       fill-rule="nonzero"
       fill="rgb(0%,0%,0%)"
       fill-opacity="1"
       id="path8702" />
    <path
       style=""
       d="M 36.359375 41.417969 L 38.71875 41.417969 C 39.222656 41.417969 39.726562 40.96875 39.785156 40.523438 L 42.535156 24.75 L 42.535156 18.464844 C 42.535156 17.90625 42.03125 17.398438 41.46875 17.398438 L 33.613281 17.398438 C 33.050781 17.398438 32.546875 17.902344 32.546875 18.464844 L 32.546875 24.863281 L 35.296875 40.523438 C 35.351562 40.96875 35.855469 41.417969 36.359375 41.417969 Z M 36.359375 41.417969 "
       stroke="none"
       fill-rule="nonzero"
       fill="rgb(0%,0%,0%)"
       fill-opacity="1"
       id="path8704" />
    <path
       style=""
       d="M 37.484375 46.582031 C 34.621094 46.582031 32.207031 49.054688 32.207031 51.96875 C 32.207031 54.832031 34.621094 57.246094 37.484375 57.246094 C 40.402344 57.246094 42.871094 54.832031 42.871094 51.96875 C 42.871094 49.054688 40.402344 46.582031 37.484375 46.582031 Z M 37.484375 46.582031 "
       stroke="none"
       fill-rule="nonzero"
       fill="rgb(0%,0%,0%)"
       fill-opacity="1"
       id="path8706" />
  </g>
</svg>
