<?xml version="1.0" encoding="UTF-8" standalone="no"?>
<svg
   xmlns:dc="http://purl.org/dc/elements/1.1/"
   xmlns:cc="http://creativecommons.org/ns#"
   xmlns:rdf="http://www.w3.org/1999/02/22-rdf-syntax-ns#"
   xmlns:svg="http://www.w3.org/2000/svg"
   xmlns="http://www.w3.org/2000/svg"
   xmlns:sodipodi="http://sodipodi.sourceforge.net/DTD/sodipodi-0.dtd"
   xmlns:inkscape="http://www.inkscape.org/namespaces/inkscape"
   version="1.1"
   x="0px"
   y="0px"
   viewBox="0 0 50 62.5"
   enable-background="new 0 0 50 50"
   xml:space="preserve"
   id="svg10696"
   inkscape:version="0.91 r13725"
   sodipodi:docname="wizard.svg"><metadata
     id="metadata10736"><rdf:RDF><cc:Work
         rdf:about=""><dc:format>image/svg+xml</dc:format><dc:type
           rdf:resource="http://purl.org/dc/dcmitype/StillImage" /></cc:Work></rdf:RDF></metadata><defs
     id="defs10734" /><sodipodi:namedview
     pagecolor="#ffffff"
     bordercolor="#666666"
     borderopacity="1"
     objecttolerance="10"
     gridtolerance="10"
     guidetolerance="10"
     inkscape:pageopacity="0"
     inkscape:pageshadow="2"
     inkscape:window-width="1920"
     inkscape:window-height="1138"
     id="namedview10732"
     showgrid="false"
     inkscape:zoom="3.776"
     inkscape:cx="-7.309322"
     inkscape:cy="31.25"
     inkscape:window-x="1192"
     inkscape:window-y="144"
     inkscape:window-maximized="1"
     inkscape:current-layer="svg10696" /><g
     id="g10698"><polygon
       fill="#000000"
       points="32.021,13.746 3.108,44.375 6.118,47.484 33.892,15.287  "
       id="polygon10700" /><g
       id="g10702"><path
         fill="#000000"
         d="M34.677,13.781l-1.155-0.932l0.03,0.557l2.42-2.422l-0.474,0.047l0.989,0.662l-0.079-0.553l-2.254,2.691    L34.677,13.781z M36.904,11.07l-0.989-0.662l-0.256-0.172l-0.218,0.219l-2.42,2.422l-0.295,0.295l0.324,0.262l1.155,0.932    l0.287,0.23l0.236-0.281l2.254-2.691l0.268-0.32L36.904,11.07z"
         id="path10704" /></g><polygon
       fill="#000000"
       points="32.297,24.445 33.008,25.879 34.589,26.109 33.443,27.225 33.715,28.803 32.297,28.057    30.884,28.803 31.152,27.225 30.009,26.109 31.589,25.879  "
       id="polygon10706" /><polygon
       fill="#000000"
       points="22.767,13.488 23.609,15.025 25.148,15.869 23.609,16.709 22.767,18.25 21.926,16.709    20.385,15.869 21.926,15.025  "
       id="polygon10708" /><polygon
       fill="#000000"
       points="42.685,6.982 43.426,9.799 46.226,10.521 43.518,11.1 42.685,14.066 42.125,11.057 39.143,10.521    42.033,9.799  "
       id="polygon10710" /><g
       id="g10712"><path
         fill="#000000"
         d="M39.711,13.705l1.353,5.145l0.056,0.211l0.213,0.057l5.111,1.32l0.016-0.73l-4.947,1.057l-0.221,0.049    l-0.062,0.217l-1.517,5.408l0.729,0.033l-1.023-5.49l-0.047-0.256l-0.256-0.045l-5.445-0.975l0.025,0.732l5.281-1.32l0.223-0.057    l0.052-0.223l1.187-5.145L39.711,13.705z M38.796,18.389l-5.281,1.32l0.025,0.734l5.444,0.975l-0.303-0.301l1.023,5.49    l0.729,0.033l1.517-5.408l-0.282,0.266l4.947-1.059l0.015-0.729l-5.111-1.32l0.27,0.268l-1.353-5.145l-0.729,0.012l-1.187,5.145    L38.796,18.389z"
         id="path10714" /></g><g
       id="g10716"><path
         fill="#000000"
         d="M15.071,14.076l1.082,4.107l0.056,0.213l0.212,0.055l4.083,1.061l0.017-0.73l-3.953,0.842l-0.222,0.047    l-0.062,0.219l-1.212,4.324l0.73,0.033l-0.816-4.389l-0.047-0.256l-0.256-0.045l-4.35-0.777l0.025,0.732l4.218-1.061l0.223-0.055    l0.051-0.225l0.948-4.107L15.071,14.076z M14.395,17.725l-4.218,1.061l0.025,0.732l4.35,0.777l-0.303-0.301l0.816,4.389    l0.729,0.033l1.212-4.324l-0.283,0.266l3.953-0.842l0.016-0.73l-4.082-1.061l0.269,0.268l-1.083-4.107l-0.728,0.012l-0.948,4.107    L14.395,17.725z"
         id="path10718" /></g><polygon
       fill="#000000"
       points="45.539,24.191 46.018,25.066 46.892,25.545 46.018,26.023 45.539,26.896 45.061,26.023    44.187,25.545 45.061,25.066  "
       id="polygon10720" /><polygon
       fill="#000000"
       points="37.252,2.516 38.017,3.914 39.417,4.678 38.017,5.443 37.252,6.842 36.487,5.443 35.088,4.678    36.487,3.914  "
       id="polygon10722" /><polygon
       fill="#000000"
       points="23.723,4.621 24.199,5.494 25.073,5.975 24.199,6.453 23.723,7.33 23.243,6.453 22.368,5.975    23.243,5.494  "
       id="polygon10724" /><polygon
       fill="#000000"
       points="28.808,7.721 29.636,9.393 31.479,9.664 30.143,10.965 30.459,12.799 28.808,11.934 27.161,12.799    27.475,10.965 26.14,9.664 27.982,9.393  "
       id="polygon10726" /></g></svg>