<?xml version="1.0" encoding="UTF-8" standalone="no"?>
<svg
   xmlns:dc="http://purl.org/dc/elements/1.1/"
   xmlns:cc="http://creativecommons.org/ns#"
   xmlns:rdf="http://www.w3.org/1999/02/22-rdf-syntax-ns#"
   xmlns:svg="http://www.w3.org/2000/svg"
   xmlns="http://www.w3.org/2000/svg"
   xmlns:sodipodi="http://sodipodi.sourceforge.net/DTD/sodipodi-0.dtd"
   xmlns:inkscape="http://www.inkscape.org/namespaces/inkscape"
   version="1.1"
   x="0px"
   y="0px"
   viewBox="0 0 100 125"
   enable-background="new 0 0 100 100"
   xml:space="preserve"
   id="svg9258"
   inkscape:version="0.91 r13725"
   sodipodi:docname="wrong.svg"><metadata
     id="metadata9272"><rdf:RDF><cc:Work
         rdf:about=""><dc:format>image/svg+xml</dc:format><dc:type
           rdf:resource="http://purl.org/dc/dcmitype/StillImage" /></cc:Work></rdf:RDF></metadata><defs
     id="defs9270" /><sodipodi:namedview
     pagecolor="#ffffff"
     bordercolor="#666666"
     borderopacity="1"
     objecttolerance="10"
     gridtolerance="10"
     guidetolerance="10"
     inkscape:pageopacity="0"
     inkscape:pageshadow="2"
     inkscape:window-width="1920"
     inkscape:window-height="1138"
     id="namedview9268"
     showgrid="false"
     inkscape:zoom="1.888"
     inkscape:cx="50"
     inkscape:cy="62.5"
     inkscape:window-x="1192"
     inkscape:window-y="144"
     inkscape:window-maximized="1"
     inkscape:current-layer="svg9258" /><path
     d="M50.001,95C25.187,95,5,74.813,5,50S25.187,5,50.001,5C74.813,5,95,25.187,95,50S74.813,95,50.001,95z M50.001,12.678  C29.42,12.678,12.678,29.42,12.678,50S29.42,87.322,50.001,87.322C70.58,87.322,87.322,70.58,87.322,50S70.58,12.678,50.001,12.678z  "
     id="path9260" /><path
     d="M60.857,50l11.765-11.763c0.994-0.995,0.994-2.624,0-3.619l-7.24-7.239c-0.995-0.994-2.624-0.994-3.619,0L50.001,39.143  L38.237,27.379c-0.995-0.994-2.624-0.994-3.619,0l-7.237,7.239c-0.995,0.995-0.995,2.624,0,3.619L39.142,50L27.381,61.763  c-0.995,0.995-0.995,2.624,0,3.619l7.237,7.239c0.995,0.994,2.624,0.994,3.619,0l11.764-11.764l11.762,11.764  c0.995,0.994,2.624,0.994,3.619,0l7.24-7.239c0.994-0.995,0.994-2.624,0-3.619L60.857,50z"
     id="path9262" /></svg>