<?xml version="1.0" encoding="UTF-8" standalone="no"?>
<svg
   xmlns:dc="http://purl.org/dc/elements/1.1/"
   xmlns:cc="http://creativecommons.org/ns#"
   xmlns:rdf="http://www.w3.org/1999/02/22-rdf-syntax-ns#"
   xmlns:svg="http://www.w3.org/2000/svg"
   xmlns="http://www.w3.org/2000/svg"
   xmlns:sodipodi="http://sodipodi.sourceforge.net/DTD/sodipodi-0.dtd"
   xmlns:inkscape="http://www.inkscape.org/namespaces/inkscape"
   version="1.1"
   x="0px"
   y="0px"
   viewBox="0 0 100 125"
   enable-background="new 0 0 100 100"
   xml:space="preserve"
   id="svg11832"
   inkscape:version="0.91 r13725"
   sodipodi:docname="zoomFit.svg"><metadata
     id="metadata11844"><rdf:RDF><cc:Work
         rdf:about=""><dc:format>image/svg+xml</dc:format><dc:type
           rdf:resource="http://purl.org/dc/dcmitype/StillImage" /></cc:Work></rdf:RDF></metadata><defs
     id="defs11842" /><sodipodi:namedview
     pagecolor="#ffffff"
     bordercolor="#666666"
     borderopacity="1"
     objecttolerance="10"
     gridtolerance="10"
     guidetolerance="10"
     inkscape:pageopacity="0"
     inkscape:pageshadow="2"
     inkscape:window-width="1920"
     inkscape:window-height="1138"
     id="namedview11840"
     showgrid="false"
     inkscape:zoom="1.888"
     inkscape:cx="50"
     inkscape:cy="62.5"
     inkscape:window-x="1192"
     inkscape:window-y="144"
     inkscape:window-maximized="1"
     inkscape:current-layer="svg11832" /><path
     d="M66.4,38.6c0.5,1.1,0.7,2.3,0.7,3.5c0,0.5-0.2,0.9-0.5,1.3c-0.3,0.3-0.8,0.5-1.4,0.5c-0.5,0-0.9-0.2-1.3-0.5  c-0.3-0.4-0.5-0.8-0.5-1.3c0-1.5-0.5-2.9-1.6-3.9c-1.1-1.1-2.4-1.6-3.9-1.6c-0.5,0-0.9-0.2-1.3-0.5c-0.3-0.3-0.5-0.8-0.5-1.3  c0-0.5,0.2-1,0.5-1.3c0.3-0.3,0.8-0.5,1.3-0.5c1.3,0,2.5,0.2,3.6,0.7c1.1,0.5,2.1,1.1,2.9,2C65.2,36.5,65.9,37.4,66.4,38.6z   M77.2,35.8c-1.3-2.9-3-5.5-5.2-7.7c-2.2-2.2-4.8-3.9-7.7-5.2c-2.9-1.3-6.1-1.9-9.4-1.9c-3.3,0-6.4,0.6-9.4,1.9  c-2.9,1.3-5.5,3-7.7,5.2c-2.2,2.2-4,4.8-5.2,7.7c-1.3,2.9-1.9,6.1-1.9,9.4c0,2.4,0.3,4.7,1,7c0.7,2.3,1.7,4.4,3,6.3l-13,13.1  c-0.4,0.4-0.7,1-0.7,1.7c0,0.4,0.2,0.9,0.7,1.6c0.4,0.7,1,1.3,1.6,1.9c0.7,0.6,1.3,1.2,1.9,1.6c0.6,0.5,1.2,0.7,1.6,0.7  c0.7,0,1.3-0.2,1.7-0.7l13.1-13c2,1.3,4.1,2.3,6.4,3c2.3,0.7,4.6,1,6.9,1c3.3,0,6.5-0.6,9.4-1.9c2.9-1.3,5.5-3,7.7-5.2  c2.2-2.2,4-4.8,5.2-7.7c1.3-2.9,1.9-6.1,1.9-9.4C79,41.8,78.4,38.7,77.2,35.8z M72.7,52.8c-1,2.3-2.4,4.4-4.2,6.1  c-1.7,1.7-3.8,3.1-6.2,4.1c-2.4,1-4.9,1.5-7.5,1.5S49.7,64,47.3,63c-2.4-1-4.4-2.4-6.1-4.1c-1.8-1.7-3.1-3.8-4.2-6.1  c-1-2.3-1.6-4.9-1.6-7.6c0-2.7,0.5-5.1,1.6-7.5c1-2.4,2.4-4.4,4.2-6.2c1.7-1.8,3.8-3.1,6.1-4.2c2.3-1,4.8-1.5,7.5-1.5  s5.2,0.5,7.5,1.5c2.4,1,4.4,2.4,6.2,4.2c1.7,1.8,3.1,3.8,4.2,6.2c1,2.3,1.6,4.8,1.6,7.5C74.2,47.9,73.7,50.4,72.7,52.8z M94.1,89.3  c0-1.8,0-3.5,0-4.6l0-12.3L72.4,94.1h21.7V89.3z M5.9,72.4v21.7h21.7L5.9,72.4z M27.6,5.9H5.9v21.7L27.6,5.9z M94.1,5.9H72.4  l21.7,21.7L94.1,5.9z"
     id="path11834" /></svg>