<svg xmlns="http://www.w3.org/2000/svg" xmlns:xlink="http://www.w3.org/1999/xlink" version="1.1" x="0px" y="0px" viewBox="0 0 256 320" enable-background="new 0 0 256 256" xml:space="preserve" width="100%" height="100%" ><rect id="svgEditorBackground" x="0" y="0" width="256" height="320" style="fill: none; stroke: none;"/><g><path d="M224.32899475097656,203.52099609375l-59.14399719238281,-59.14500427246094c-5.5789947509765625,8.16400146484375,-12.645004272460938,15.22900390625,-20.809005737304688,20.807998657226562l59.14500427246094,59.14500427246094c3.904998779296875,3.904998779296875,10.23699951171875,3.904998779296875,14.141998291015625,0l6.6669921875,-6.6660003662109375c3.9050140380859375,-3.904998779296875,3.9050140380859375,-10.235992431640625,-0.0009918212890625,-14.141998291015625Z" transform="matrix(-0.0128515, 0.999918, -0.999918, -0.0128515, 273.043, -20.1849)"/><path d="M170.742,99.742c0-39.149-31.851-71-71.001-71c-39.148,0-71,31.851-71,71s31.852,71,71,71   C138.892,170.742,170.742,138.891,170.742,99.742z M99.742,153.742c-29.822,0-54-24.177-54-54s24.178-54,54-54   c29.824,0,54.001,24.177,54.001,54S129.566,153.742,99.742,153.742z" transform="matrix(1, 0, 0, 1, 56.1283, -3.42246)"/><path d="M61.089,87.724C59.194,89.272,57,90.588,53,91.692v8.255c3-0.708,4.465-1.45,6.007-2.225   c1.54-0.774,2.993-1.788,4.993-3.04V119h10V82h-8.357C64.572,84,62.984,86.175,61.089,87.724z" transform="matrix(1, 0, 0, 1, 56.1283, -3.42246)"/><path d="M106.854,88.269c-0.568-1.062-1.347-2.076-2.335-3.04c-0.989-0.964-2.267-1.746-3.831-2.348   c-1.565-0.601-3.568-0.902-6.006-0.902c-5.076,0-8.854,1.376-11.332,4.127c-2.48,2.752-3.72,7.572-3.72,14.458   c0,2.801,0.243,5.359,0.729,7.674c0.485,2.315,1.165,4.14,2.039,5.475c1.202,1.878,2.743,3.304,4.621,4.276   c1.879,0.972,4.342,1.458,7.39,1.458c5.438,0,9.269-1.524,11.493-4.572s3.336-7.859,3.336-14.434c0-2.933-0.337-5.75-1.013-8.453   C107.88,90.572,107.422,89.332,106.854,88.269z M98.698,108.103c-0.354,1.549-0.906,2.682-1.655,3.398   c-0.75,0.716-1.636,1.075-2.657,1.075c-1.549,0-2.731-0.844-3.547-2.533c-0.815-1.689-1.223-4.84-1.223-9.454   c0-4.563,0.371-7.69,1.112-9.379c0.741-1.688,1.944-2.533,3.607-2.533c1.632,0,2.854,0.828,3.671,2.484   c0.815,1.656,1.224,4.89,1.224,9.701C99.23,104.141,99.052,106.555,98.698,108.103z" transform="matrix(1, 0, 0, 1, 56.1283, -3.42246)"/><path d="M141.988,91.989c-0.346-1.417-0.804-2.657-1.372-3.72c-0.568-1.062-1.346-2.076-2.335-3.04s-2.266-1.746-3.831-2.348   c-1.566-0.601-3.568-0.902-6.006-0.902c-5.075,0-8.853,1.376-11.332,4.127c-2.479,2.752-3.72,7.572-3.72,14.458   c0,2.801,0.243,5.359,0.729,7.674c0.486,2.315,1.165,4.14,2.039,5.475c1.203,1.878,2.743,3.304,4.621,4.276   c1.879,0.972,4.342,1.458,7.391,1.458c5.438,0,9.268-1.524,11.492-4.572s3.337-7.859,3.337-14.434   C143.001,97.509,142.663,94.691,141.988,91.989z M132.459,108.103c-0.354,1.549-0.906,2.682-1.655,3.398   c-0.75,0.716-1.636,1.075-2.657,1.075c-1.549,0-2.73-0.844-3.547-2.533c-0.815-1.689-1.223-4.84-1.223-9.454   c0-4.563,0.371-7.69,1.112-9.379c0.741-1.688,1.944-2.533,3.608-2.533c1.631,0,2.854,0.828,3.67,2.484   c0.815,1.656,1.224,4.89,1.224,9.701C132.992,104.141,132.814,106.555,132.459,108.103z" transform="matrix(1, 0, 0, 1, 56.1283, -3.42246)"/></g><text x="0" y="271" fill="#000000" font-size="5px" font-weight="bold" font-family="'Helvetica Neue', Helvetica, Arial-Unicode, Arial, Sans-serif"/><text x="0" y="276" fill="#000000" font-size="5px" font-weight="bold" font-family="'Helvetica Neue', Helvetica, Arial-Unicode, Arial, Sans-serif"/></svg>